<svg width="2880" height="1440" viewBox="0 0 2880 1440" fill="none" xmlns="http://www.w3.org/2000/svg">
<path d="M74 1366H89.8828V1370H70V1350.29H74V1366Z" fill="white" fill-opacity="0.75"/>
<path d="M143.529 1370H107.765V1366H143.529V1370Z" fill="white" fill-opacity="0.75"/>
<path d="M197.177 1370H161.412V1366H197.177V1370Z" fill="white" fill-opacity="0.75"/>
<path d="M250.823 1370H215.059V1366H250.823V1370Z" fill="white" fill-opacity="0.75"/>
<path d="M304.471 1370H268.706V1366H304.471V1370Z" fill="white" fill-opacity="0.75"/>
<path d="M358.117 1370H322.353V1366H358.117V1370Z" fill="white" fill-opacity="0.75"/>
<path d="M411.765 1370H376V1366H411.765V1370Z" fill="white" fill-opacity="0.75"/>
<path d="M465.412 1370H429.647V1366H465.412V1370Z" fill="white" fill-opacity="0.75"/>
<path d="M519.059 1370H483.294V1366H519.059V1370Z" fill="white" fill-opacity="0.75"/>
<path d="M572.706 1370H536.941V1366H572.706V1370Z" fill="white" fill-opacity="0.75"/>
<path d="M626.353 1370H590.588V1366H626.353V1370Z" fill="white" fill-opacity="0.75"/>
<path d="M680 1370H644.235V1366H680V1370Z" fill="white" fill-opacity="0.75"/>
<path d="M733.647 1370H697.883V1366H733.647V1370Z" fill="white" fill-opacity="0.75"/>
<path d="M787.294 1370H751.529V1366H787.294V1370Z" fill="white" fill-opacity="0.75"/>
<path d="M840.941 1370H805.177V1366H840.941V1370Z" fill="white" fill-opacity="0.75"/>
<path d="M894.588 1370H858.823V1366H894.588V1370Z" fill="white" fill-opacity="0.75"/>
<path d="M948.235 1370H912.471V1366H948.235V1370Z" fill="white" fill-opacity="0.75"/>
<path d="M1001.88 1370H966.117V1366H1001.88V1370Z" fill="white" fill-opacity="0.75"/>
<path d="M1055.53 1370H1019.76V1366H1055.53V1370Z" fill="white" fill-opacity="0.75"/>
<path d="M1109.18 1370H1073.41V1366H1109.18V1370Z" fill="white" fill-opacity="0.75"/>
<path d="M1162.82 1370H1127.06V1366H1162.82V1370Z" fill="white" fill-opacity="0.75"/>
<path d="M1216.47 1370H1180.71V1366H1216.47V1370Z" fill="white" fill-opacity="0.75"/>
<path d="M1270.12 1370H1234.35V1366H1270.12V1370Z" fill="white" fill-opacity="0.75"/>
<path d="M1323.76 1370H1288V1366H1323.76V1370Z" fill="white" fill-opacity="0.75"/>
<path d="M1377.41 1370H1341.65V1366H1377.41V1370Z" fill="white" fill-opacity="0.75"/>
<path d="M1431.06 1370H1395.29V1366H1431.06V1370Z" fill="white" fill-opacity="0.75"/>
<path d="M1484.71 1370H1448.94V1366H1484.71V1370Z" fill="white" fill-opacity="0.75"/>
<path d="M1538.35 1370H1502.59V1366H1538.35V1370Z" fill="white" fill-opacity="0.75"/>
<path d="M1592 1370H1556.23V1366H1592V1370Z" fill="white" fill-opacity="0.75"/>
<path d="M1645.65 1370H1609.88V1366H1645.65V1370Z" fill="white" fill-opacity="0.75"/>
<path d="M1699.29 1370H1663.53V1366H1699.29V1370Z" fill="white" fill-opacity="0.75"/>
<path d="M1752.94 1370H1717.17V1366H1752.94V1370Z" fill="white" fill-opacity="0.75"/>
<path d="M1806.59 1370H1770.82V1366H1806.59V1370Z" fill="white" fill-opacity="0.75"/>
<path d="M1860.23 1370H1824.47V1366H1860.23V1370Z" fill="white" fill-opacity="0.75"/>
<path d="M1913.88 1370H1878.12V1366H1913.88V1370Z" fill="white" fill-opacity="0.75"/>
<path d="M1967.53 1370H1931.76V1366H1967.53V1370Z" fill="white" fill-opacity="0.75"/>
<path d="M2021.17 1370H1985.41V1366H2021.17V1370Z" fill="white" fill-opacity="0.75"/>
<path d="M2074.82 1370H2039.06V1366H2074.82V1370Z" fill="white" fill-opacity="0.75"/>
<path d="M2128.47 1370H2092.7V1366H2128.47V1370Z" fill="white" fill-opacity="0.75"/>
<path d="M2182.12 1370H2146.35V1366H2182.12V1370Z" fill="white" fill-opacity="0.75"/>
<path d="M2235.76 1370H2200V1366H2235.76V1370Z" fill="white" fill-opacity="0.75"/>
<path d="M2289.41 1370H2253.65V1366H2289.41V1370Z" fill="white" fill-opacity="0.75"/>
<path d="M2343.06 1370H2307.29V1366H2343.06V1370Z" fill="white" fill-opacity="0.75"/>
<path d="M2396.7 1370H2360.94V1366H2396.7V1370Z" fill="white" fill-opacity="0.75"/>
<path d="M2450.35 1370H2414.59V1366H2450.35V1370Z" fill="white" fill-opacity="0.75"/>
<path d="M2504 1370H2468.23V1366H2504V1370Z" fill="white" fill-opacity="0.75"/>
<path d="M2557.64 1370H2521.88V1366H2557.64V1370Z" fill="white" fill-opacity="0.75"/>
<path d="M2611.29 1370H2575.53V1366H2611.29V1370Z" fill="white" fill-opacity="0.75"/>
<path d="M2664.94 1370H2629.17V1366H2664.94V1370Z" fill="white" fill-opacity="0.75"/>
<path d="M2718.59 1370H2682.82V1366H2718.59V1370Z" fill="white" fill-opacity="0.75"/>
<path d="M2772.23 1370H2736.47V1366H2772.23V1370Z" fill="white" fill-opacity="0.75"/>
<path d="M2810 1370H2790.12V1366H2806V1350.29H2810V1370Z" fill="white" fill-opacity="0.75"/>
<path d="M74 1332.57H70V1297.14H74V1332.57Z" fill="white" fill-opacity="0.75"/>
<path d="M2810 1332.57H2806V1297.14H2810V1332.57Z" fill="white" fill-opacity="0.75"/>
<path d="M74 1279.43H70V1244H74V1279.43Z" fill="white" fill-opacity="0.75"/>
<path d="M2810 1279.43H2806V1244H2810V1279.43Z" fill="white" fill-opacity="0.75"/>
<path d="M578 1256H574V1224H578V1256Z" fill="white" fill-opacity="0.75"/>
<path d="M614 1256H610V1224H614V1256Z" fill="white" fill-opacity="0.75"/>
<path d="M650 1256H646V1224H650V1256Z" fill="white" fill-opacity="0.75"/>
<path d="M686 1256H682V1224H686V1256Z" fill="white" fill-opacity="0.75"/>
<path d="M722 1256H718V1224H722V1256Z" fill="white" fill-opacity="0.75"/>
<path d="M758 1256H754V1224H758V1256Z" fill="white" fill-opacity="0.75"/>
<path d="M794 1256H790V1224H794V1256Z" fill="white" fill-opacity="0.75"/>
<path d="M830 1256H826V1224H830V1256Z" fill="white" fill-opacity="0.75"/>
<path d="M866 1256H862V1224H866V1256Z" fill="white" fill-opacity="0.75"/>
<path d="M902 1256H898V364H902V1256Z" fill="white" fill-opacity="0.75"/>
<path d="M938 1256H934V1224H938V1256Z" fill="white" fill-opacity="0.75"/>
<path d="M974 1256H970V1224H974V1256Z" fill="white" fill-opacity="0.75"/>
<path d="M1010 1256H1006V1224H1010V1256Z" fill="white" fill-opacity="0.75"/>
<path d="M1046 1256H1042V1224H1046V1256Z" fill="white" fill-opacity="0.75"/>
<path d="M1082 1256H1078V364H1082V1256Z" fill="white" fill-opacity="0.75"/>
<path d="M1118 1256H1114V1224H1118V1256Z" fill="white" fill-opacity="0.75"/>
<path d="M1154 1256H1150V1224H1154V1256Z" fill="white" fill-opacity="0.75"/>
<path d="M1190 1256H1186V1224H1190V1256Z" fill="white" fill-opacity="0.75"/>
<path d="M1226 1256H1222V1224H1226V1256Z" fill="white" fill-opacity="0.75"/>
<path d="M1262 1256H1258V364H1262V1256Z" fill="white" fill-opacity="0.75"/>
<path d="M1298 1256H1294V1224H1298V1256Z" fill="white" fill-opacity="0.75"/>
<path d="M1334 1256H1330V1224H1334V1256Z" fill="white" fill-opacity="0.75"/>
<path d="M1370 1256H1366V1224H1370V1256Z" fill="white" fill-opacity="0.75"/>
<path d="M1406 1256H1402V1224H1406V1256Z" fill="white" fill-opacity="0.75"/>
<path d="M1442 1256H1438V364H1442V1256Z" fill="white" fill-opacity="0.75"/>
<path d="M2162 1256H2158V1224H2162V1256Z" fill="white" fill-opacity="0.75"/>
<path d="M1478 1256H1474V1224H1478V1256Z" fill="white" fill-opacity="0.75"/>
<path d="M1514 1256H1510V1224H1514V1256Z" fill="white" fill-opacity="0.75"/>
<path d="M1550 1256H1546V1224H1550V1256Z" fill="white" fill-opacity="0.75"/>
<path d="M1586 1256H1582V1224H1586V1256Z" fill="white" fill-opacity="0.75"/>
<path d="M1622 1256H1618V364H1622V1256Z" fill="white" fill-opacity="0.75"/>
<path d="M1658 1256H1654V1224H1658V1256Z" fill="white" fill-opacity="0.75"/>
<path d="M1694 1256H1690V1224H1694V1256Z" fill="white" fill-opacity="0.75"/>
<path d="M1730 1256H1726V1224H1730V1256Z" fill="white" fill-opacity="0.75"/>
<path d="M1766 1256H1762V1224H1766V1256Z" fill="white" fill-opacity="0.75"/>
<path d="M1802 1256H1798V364H1802V1256Z" fill="white" fill-opacity="0.75"/>
<path d="M1838 1256H1834V1224H1838V1256Z" fill="white" fill-opacity="0.75"/>
<path d="M1874 1256H1870V1224H1874V1256Z" fill="white" fill-opacity="0.75"/>
<path d="M1910 1256H1906V1224H1910V1256Z" fill="white" fill-opacity="0.75"/>
<path d="M1946 1256H1942V1224H1946V1256Z" fill="white" fill-opacity="0.75"/>
<path d="M1982 1256H1978V364H1982V1256Z" fill="white" fill-opacity="0.75"/>
<path d="M2018 1256H2014V1224H2018V1256Z" fill="white" fill-opacity="0.75"/>
<path d="M2054 1256H2050V1224H2054V1256Z" fill="white" fill-opacity="0.75"/>
<path d="M2090 1256H2086V1224H2090V1256Z" fill="white" fill-opacity="0.75"/>
<path d="M2126 1256H2122V1224H2126V1256Z" fill="white" fill-opacity="0.75"/>
<path d="M2198 1256H2194V1224H2198V1256Z" fill="white" fill-opacity="0.75"/>
<path d="M2234 1256H2230V1224H2234V1256Z" fill="white" fill-opacity="0.75"/>
<path d="M2270 1256H2266V1224H2270V1256Z" fill="white" fill-opacity="0.75"/>
<path d="M2306 1256H2302V1224H2306V1256Z" fill="white" fill-opacity="0.75"/>
<path d="M722 1206H718V1170H722V1206Z" fill="white" fill-opacity="0.75"/>
<path d="M2162 1206H2158V1170H2162V1206Z" fill="white" fill-opacity="0.75"/>
<path fill-rule="evenodd" clip-rule="evenodd" d="M927.228 1115.39C940.488 1115.39 944.596 1123.71 944.596 1133.18C944.596 1141.7 942.256 1152.83 927.176 1152.83C912.148 1152.83 909.86 1141.7 909.86 1133.18C909.86 1123.71 913.968 1115.39 927.228 1115.39ZM927.28 1120.75C922.288 1120.75 921.508 1124.18 921.508 1132.55V1137.08C921.508 1142.9 922.236 1147.53 927.228 1147.53C932.167 1147.53 933 1142.9 933 1137.08V1132.55C933 1124.18 932.168 1120.75 927.28 1120.75Z" fill="white" fill-opacity="0.75"/>
<path fill-rule="evenodd" clip-rule="evenodd" d="M1287.23 1115.39C1300.49 1115.39 1304.6 1123.71 1304.6 1133.18C1304.6 1141.7 1302.26 1152.83 1287.18 1152.83C1272.15 1152.83 1269.86 1141.7 1269.86 1133.18C1269.86 1123.71 1273.97 1115.39 1287.23 1115.39ZM1287.28 1120.75C1282.29 1120.75 1281.51 1124.18 1281.51 1132.55V1137.08C1281.51 1142.9 1282.24 1147.53 1287.23 1147.53C1292.17 1147.53 1293 1142.9 1293 1137.08V1132.55C1293 1124.18 1292.17 1120.75 1287.28 1120.75Z" fill="white" fill-opacity="0.75"/>
<path fill-rule="evenodd" clip-rule="evenodd" d="M1647.23 1115.39C1660.49 1115.39 1664.6 1123.71 1664.6 1133.18C1664.6 1141.7 1662.26 1152.83 1647.18 1152.83C1632.15 1152.83 1629.86 1141.7 1629.86 1133.18C1629.86 1123.71 1633.97 1115.39 1647.23 1115.39ZM1647.28 1120.75C1642.29 1120.75 1641.51 1124.18 1641.51 1132.55V1137.08C1641.51 1142.9 1642.24 1147.53 1647.23 1147.53C1652.17 1147.53 1653 1142.9 1653 1137.08V1132.55C1653 1124.18 1652.17 1120.75 1647.28 1120.75Z" fill="white" fill-opacity="0.75"/>
<path fill-rule="evenodd" clip-rule="evenodd" d="M2006.23 1115.39C2019.49 1115.39 2023.6 1123.71 2023.6 1133.18C2023.6 1141.7 2021.26 1152.83 2006.18 1152.83C1991.15 1152.83 1988.86 1141.7 1988.86 1133.18C1988.86 1123.71 1992.97 1115.39 2006.23 1115.39ZM2006.28 1120.75C2001.29 1120.75 2000.51 1124.18 2000.51 1132.55V1137.08C2000.51 1142.9 2001.24 1147.53 2006.23 1147.53C2011.17 1147.53 2012 1142.9 2012 1137.08V1132.55C2012 1124.18 2011.17 1120.75 2006.28 1120.75Z" fill="white" fill-opacity="0.75"/>
<path d="M1232.93 1115.34C1240.99 1115.34 1249.47 1117.84 1249.47 1125.74C1249.47 1130.26 1245.77 1133.8 1241.09 1135.88C1228.51 1141.5 1224.3 1143 1222.69 1146.02C1224.77 1144.41 1226.33 1143.58 1228.98 1143.58C1232.72 1143.58 1236.73 1144.41 1240.57 1144.41C1242.6 1144.41 1244.37 1144.3 1244.42 1142.48L1244.53 1139.47H1249.88V1144.88C1249.88 1150.54 1245.93 1152.52 1240.94 1152.52C1235.27 1152.52 1227.37 1149.09 1224.35 1149.09C1222.11 1149.09 1221.8 1150.34 1221.54 1152H1217.12C1217.12 1150.18 1217.12 1145.45 1223.57 1140.3C1228.2 1136.61 1237.56 1132.76 1237.56 1125.9C1237.56 1122.26 1234.59 1120.33 1230.33 1120.33C1228.46 1120.33 1224.87 1120.7 1224.04 1122.2C1226.22 1122.57 1227.42 1123.97 1227.42 1125.74C1227.42 1128.34 1225.29 1130.06 1222.32 1130.06C1218.58 1130.06 1216.13 1127.72 1216.13 1124.44C1216.14 1117.11 1226.27 1115.34 1232.93 1115.34Z" fill="white" fill-opacity="0.75"/>
<path d="M1592.93 1115.34C1600.99 1115.34 1609.47 1117.84 1609.47 1125.74C1609.47 1130.26 1605.77 1133.8 1601.09 1135.88C1588.51 1141.5 1584.3 1143 1582.69 1146.02C1584.77 1144.41 1586.33 1143.58 1588.98 1143.58C1592.72 1143.58 1596.73 1144.41 1600.57 1144.41C1602.6 1144.41 1604.37 1144.3 1604.42 1142.48L1604.53 1139.47H1609.88V1144.88C1609.88 1150.54 1605.93 1152.52 1600.94 1152.52C1595.27 1152.52 1587.37 1149.09 1584.35 1149.09C1582.11 1149.09 1581.8 1150.34 1581.54 1152H1577.12C1577.12 1150.18 1577.12 1145.45 1583.57 1140.3C1588.2 1136.61 1597.56 1132.76 1597.56 1125.9C1597.56 1122.26 1594.59 1120.33 1590.33 1120.33C1588.46 1120.33 1584.87 1120.7 1584.04 1122.2C1586.22 1122.57 1587.42 1123.97 1587.42 1125.74C1587.42 1128.34 1585.29 1130.06 1582.32 1130.06C1578.58 1130.06 1576.13 1127.72 1576.13 1124.44C1576.14 1117.11 1586.27 1115.34 1592.93 1115.34Z" fill="white" fill-opacity="0.75"/>
<path d="M722 1152H718V1116H722V1152Z" fill="white" fill-opacity="0.75"/>
<path d="M883.838 1144.72C883.838 1145.71 884.359 1146.7 885.971 1146.7H892.314V1152H864.13V1146.7H870.994C871.878 1146.7 872.971 1146.18 872.971 1144.77V1126.42C869.747 1127.04 866.678 1127.2 863.559 1127.2V1122.52C869.85 1122.1 874.582 1121.84 876.506 1115.81H883.838V1144.72Z" fill="white" fill-opacity="0.75"/>
<path d="M1962.84 1144.72C1962.84 1145.71 1963.36 1146.7 1964.97 1146.7H1971.31V1152H1943.13V1146.7H1949.99C1950.88 1146.7 1951.97 1146.18 1951.97 1144.77V1126.42C1948.75 1127.04 1945.68 1127.2 1942.56 1127.2V1122.52C1948.85 1122.1 1953.58 1121.84 1955.51 1115.81H1962.84V1144.72Z" fill="white" fill-opacity="0.75"/>
<path d="M2162 1152H2158V1116H2162V1152Z" fill="white" fill-opacity="0.75"/>
<path d="M848 1140L824 1134L848 1128V1140Z" fill="white" fill-opacity="0.75"/>
<path d="M1201 1140L1177 1134L1201 1128V1140Z" fill="white" fill-opacity="0.75"/>
<path d="M1704 1134L1680 1140V1128L1704 1134Z" fill="white" fill-opacity="0.75"/>
<path d="M2063 1134L2039 1140V1128L2063 1134Z" fill="white" fill-opacity="0.75"/>
<path d="M722 1098H718V1062H722V1098Z" fill="white" fill-opacity="0.75"/>
<path d="M2162 1098H2158V1062H2162V1098Z" fill="white" fill-opacity="0.75"/>
<path d="M722 1044H718V1008H722V1044Z" fill="white" fill-opacity="0.75"/>
<path d="M2162 1044H2158V1008H2162V1044Z" fill="white" fill-opacity="0.75"/>
<path d="M722 990H718V954H722V990Z" fill="white" fill-opacity="0.75"/>
<path d="M2162 990H2158V954H2162V990Z" fill="white" fill-opacity="0.75"/>
<path d="M722 936H718V900H722V936Z" fill="white" fill-opacity="0.75"/>
<path d="M2162 936H2158V900H2162V936Z" fill="white" fill-opacity="0.75"/>
<path d="M722 882H718V846H722V882Z" fill="white" fill-opacity="0.75"/>
<path d="M2162 882H2158V846H2162V882Z" fill="white" fill-opacity="0.75"/>
<path d="M578 828H574V792H578V828Z" fill="white" fill-opacity="0.75"/>
<path d="M614 828H610V792H614V828Z" fill="white" fill-opacity="0.75"/>
<path d="M650 828H646V792H650V828Z" fill="white" fill-opacity="0.75"/>
<path d="M686 828H682V792H686V828Z" fill="white" fill-opacity="0.75"/>
<path d="M722 828H718V792H722V828Z" fill="white" fill-opacity="0.75"/>
<path d="M758 828H754V792H758V828Z" fill="white" fill-opacity="0.75"/>
<path d="M794 828H790V792H794V828Z" fill="white" fill-opacity="0.75"/>
<path d="M830 828H826V792H830V828Z" fill="white" fill-opacity="0.75"/>
<path d="M866 828H862V792H866V828Z" fill="white" fill-opacity="0.75"/>
<path d="M938 828H934V792H938V828Z" fill="white" fill-opacity="0.75"/>
<path d="M974 828H970V792H974V828Z" fill="white" fill-opacity="0.75"/>
<path d="M1010 828H1006V792H1010V828Z" fill="white" fill-opacity="0.75"/>
<path d="M1046 828H1042V792H1046V828Z" fill="white" fill-opacity="0.75"/>
<path d="M1118 828H1114V792H1118V828Z" fill="white" fill-opacity="0.75"/>
<path d="M1154 828H1150V792H1154V828Z" fill="white" fill-opacity="0.75"/>
<path d="M1190 828H1186V792H1190V828Z" fill="white" fill-opacity="0.75"/>
<path d="M1226 828H1222V792H1226V828Z" fill="white" fill-opacity="0.75"/>
<path d="M1298 828H1294V792H1298V828Z" fill="white" fill-opacity="0.75"/>
<path d="M1334 828H1330V792H1334V828Z" fill="white" fill-opacity="0.75"/>
<path d="M1370 828H1366V792H1370V828Z" fill="white" fill-opacity="0.75"/>
<path d="M1406 828H1402V792H1406V828Z" fill="white" fill-opacity="0.75"/>
<path d="M1478 828H1474V792H1478V828Z" fill="white" fill-opacity="0.75"/>
<path d="M1514 828H1510V792H1514V828Z" fill="white" fill-opacity="0.75"/>
<path d="M1550 828H1546V792H1550V828Z" fill="white" fill-opacity="0.75"/>
<path d="M1586 828H1582V792H1586V828Z" fill="white" fill-opacity="0.75"/>
<path d="M1658 828H1654V792H1658V828Z" fill="white" fill-opacity="0.75"/>
<path d="M1694 828H1690V792H1694V828Z" fill="white" fill-opacity="0.75"/>
<path d="M1730 828H1726V792H1730V828Z" fill="white" fill-opacity="0.75"/>
<path d="M1766 828H1762V792H1766V828Z" fill="white" fill-opacity="0.75"/>
<path d="M1838 828H1834V792H1838V828Z" fill="white" fill-opacity="0.75"/>
<path d="M1874 828H1870V792H1874V828Z" fill="white" fill-opacity="0.75"/>
<path d="M1910 828H1906V792H1910V828Z" fill="white" fill-opacity="0.75"/>
<path d="M1946 828H1942V792H1946V828Z" fill="white" fill-opacity="0.75"/>
<path d="M2018 828H2014V792H2018V828Z" fill="white" fill-opacity="0.75"/>
<path d="M2054 828H2050V792H2054V828Z" fill="white" fill-opacity="0.75"/>
<path d="M2090 828H2086V792H2090V828Z" fill="white" fill-opacity="0.75"/>
<path d="M2126 828H2122V792H2126V828Z" fill="white" fill-opacity="0.75"/>
<path d="M2162 828H2158V792H2162V828Z" fill="white" fill-opacity="0.75"/>
<path d="M2198 828H2194V792H2198V828Z" fill="white" fill-opacity="0.75"/>
<path d="M2234 828H2230V792H2234V828Z" fill="white" fill-opacity="0.75"/>
<path d="M2270 828H2266V792H2270V828Z" fill="white" fill-opacity="0.75"/>
<path d="M2306 828H2302V792H2306V828Z" fill="white" fill-opacity="0.75"/>
<path d="M722 774H718V738H722V774Z" fill="white" fill-opacity="0.75"/>
<path d="M2162 774H2158V738H2162V774Z" fill="white" fill-opacity="0.75"/>
<path d="M722 720H718V684H722V720Z" fill="white" fill-opacity="0.75"/>
<path d="M2162 720H2158V684H2162V720Z" fill="white" fill-opacity="0.75"/>
<path d="M722 666H718V630H722V666Z" fill="white" fill-opacity="0.75"/>
<path d="M2162 666H2158V630H2162V666Z" fill="white" fill-opacity="0.75"/>
<path d="M722 612H718V576H722V612Z" fill="white" fill-opacity="0.75"/>
<path d="M2162 612H2158V576H2162V612Z" fill="white" fill-opacity="0.75"/>
<path d="M722 558H718V522H722V558Z" fill="white" fill-opacity="0.75"/>
<path d="M2162 558H2158V522H2162V558Z" fill="white" fill-opacity="0.75"/>
<path d="M1279.06 467.479C1284.73 467.479 1292.63 470.912 1295.65 470.912C1297.89 470.912 1298.2 469.664 1298.46 468H1302.88C1302.88 469.82 1302.88 474.552 1296.43 479.7C1291.8 483.392 1282.44 487.24 1282.44 494.104C1282.44 497.744 1285.41 499.668 1289.67 499.668C1291.54 499.668 1295.13 499.304 1295.96 497.796C1293.78 497.432 1292.58 496.028 1292.58 494.26C1292.58 491.66 1294.71 489.944 1297.68 489.944C1301.42 489.944 1303.87 492.284 1303.87 495.56C1303.87 502.892 1293.73 504.66 1287.07 504.66C1279.01 504.66 1270.53 502.164 1270.53 494.26C1270.53 489.736 1274.23 486.2 1278.91 484.12C1291.49 478.504 1295.7 476.995 1297.31 473.979C1295.23 475.591 1293.67 476.424 1291.02 476.424C1287.28 476.424 1283.27 475.592 1279.43 475.592C1277.4 475.592 1275.63 475.696 1275.58 477.516L1275.47 480.532H1270.12V475.124C1270.12 469.456 1274.07 467.479 1279.06 467.479Z" fill="white" fill-opacity="0.75"/>
<path d="M1639.06 467.479C1644.73 467.479 1652.63 470.912 1655.65 470.912C1657.89 470.912 1658.2 469.664 1658.46 468H1662.88C1662.88 469.82 1662.88 474.552 1656.43 479.7C1651.8 483.392 1642.44 487.24 1642.44 494.104C1642.44 497.744 1645.41 499.668 1649.67 499.668C1651.54 499.668 1655.13 499.304 1655.96 497.796C1653.78 497.432 1652.58 496.028 1652.58 494.26C1652.58 491.66 1654.71 489.944 1657.68 489.944C1661.42 489.944 1663.87 492.284 1663.87 495.56C1663.87 502.892 1653.73 504.66 1647.07 504.66C1639.01 504.66 1630.53 502.164 1630.53 494.26C1630.53 489.736 1634.23 486.2 1638.91 484.12C1651.49 478.504 1655.7 476.995 1657.31 473.979C1655.23 475.591 1653.67 476.424 1651.02 476.424C1647.28 476.424 1643.27 475.592 1639.43 475.592C1637.4 475.592 1635.63 475.696 1635.58 477.516L1635.47 480.532H1630.12V475.124C1630.12 469.456 1634.07 467.48 1639.06 467.479Z" fill="white" fill-opacity="0.75"/>
<path fill-rule="evenodd" clip-rule="evenodd" d="M873.824 467.168C888.852 467.168 891.14 478.296 891.14 486.824C891.14 496.288 887.032 504.608 873.772 504.608C860.513 504.608 856.404 496.288 856.404 486.824C856.404 478.296 858.744 467.168 873.824 467.168ZM873.772 472.472C868.833 472.472 868 477.1 868 482.924V487.448C868 495.82 868.832 499.252 873.72 499.252C878.712 499.252 879.492 495.82 879.492 487.448V482.924C879.492 477.1 878.764 472.472 873.772 472.472Z" fill="white" fill-opacity="0.75"/>
<path fill-rule="evenodd" clip-rule="evenodd" d="M1232.82 467.168C1247.85 467.168 1250.14 478.296 1250.14 486.824C1250.14 496.288 1246.03 504.608 1232.77 504.608C1219.51 504.608 1215.4 496.288 1215.4 486.824C1215.4 478.296 1217.74 467.168 1232.82 467.168ZM1232.77 472.472C1227.83 472.472 1227 477.1 1227 482.924V487.448C1227 495.82 1227.83 499.252 1232.72 499.252C1237.71 499.252 1238.49 495.82 1238.49 487.448V482.924C1238.49 477.1 1237.76 472.472 1232.77 472.472Z" fill="white" fill-opacity="0.75"/>
<path fill-rule="evenodd" clip-rule="evenodd" d="M1592.82 467.168C1607.85 467.168 1610.14 478.296 1610.14 486.824C1610.14 496.288 1606.03 504.608 1592.77 504.608C1579.51 504.608 1575.4 496.288 1575.4 486.824C1575.4 478.296 1577.74 467.168 1592.82 467.168ZM1592.77 472.472C1587.83 472.472 1587 477.1 1587 482.924V487.448C1587 495.82 1587.83 499.252 1592.72 499.252C1597.71 499.252 1598.49 495.82 1598.49 487.448V482.924C1598.49 477.1 1597.76 472.472 1592.77 472.472Z" fill="white" fill-opacity="0.75"/>
<path fill-rule="evenodd" clip-rule="evenodd" d="M1953.82 467.168C1968.85 467.168 1971.14 478.296 1971.14 486.824C1971.14 496.288 1967.03 504.608 1953.77 504.608C1940.51 504.608 1936.4 496.288 1936.4 486.824C1936.4 478.296 1938.74 467.168 1953.82 467.168ZM1953.77 472.472C1948.83 472.472 1948 477.1 1948 482.924V487.448C1948 495.82 1948.83 499.252 1953.72 499.252C1958.71 499.252 1959.49 495.82 1959.49 487.448V482.924C1959.49 477.1 1958.76 472.472 1953.77 472.472Z" fill="white" fill-opacity="0.75"/>
<path d="M936.87 473.304H930.006C929.122 473.304 928.03 473.824 928.029 475.228V493.584C931.253 492.96 934.322 492.804 937.441 492.804V497.484C931.15 497.9 926.418 498.161 924.494 504.192H917.162V475.28C917.162 474.292 916.641 473.304 915.029 473.304H908.686V468H936.87V473.304Z" fill="white" fill-opacity="0.75"/>
<path d="M2016.87 473.304H2010.01C2009.12 473.304 2008.03 473.824 2008.03 475.228V493.584C2011.25 492.96 2014.32 492.804 2017.44 492.804V497.484C2011.15 497.9 2006.42 498.161 2004.49 504.192H1997.16V475.28C1997.16 474.292 1996.64 473.304 1995.03 473.304H1988.69V468H2016.87V473.304Z" fill="white" fill-opacity="0.75"/>
<path d="M722 504H718V468H722V504Z" fill="white" fill-opacity="0.75"/>
<path d="M2162 504H2158V468H2162V504Z" fill="white" fill-opacity="0.75"/>
<path d="M841 492L817 486L841 480V492Z" fill="white" fill-opacity="0.75"/>
<path d="M1200 492L1176 486L1200 480V492Z" fill="white" fill-opacity="0.75"/>
<path d="M1703 486L1679 492V480L1703 486Z" fill="white" fill-opacity="0.75"/>
<path d="M2057 486L2033 492V480L2057 486Z" fill="white" fill-opacity="0.75"/>
<path d="M722 450H718V414H722V450Z" fill="white" fill-opacity="0.75"/>
<path d="M2162 450H2158V414H2162V450Z" fill="white" fill-opacity="0.75"/>
<path d="M578 396H574V364H578V396Z" fill="white" fill-opacity="0.75"/>
<path d="M614 396H610V364H614V396Z" fill="white" fill-opacity="0.75"/>
<path d="M650 396H646V364H650V396Z" fill="white" fill-opacity="0.75"/>
<path d="M686 396H682V364H686V396Z" fill="white" fill-opacity="0.75"/>
<path d="M722 396H718V364H722V396Z" fill="white" fill-opacity="0.75"/>
<path d="M758 396H754V364H758V396Z" fill="white" fill-opacity="0.75"/>
<path d="M794 396H790V364H794V396Z" fill="white" fill-opacity="0.75"/>
<path d="M830 396H826V364H830V396Z" fill="white" fill-opacity="0.75"/>
<path d="M866 396H862V364H866V396Z" fill="white" fill-opacity="0.75"/>
<path d="M938 396H934V364H938V396Z" fill="white" fill-opacity="0.75"/>
<path d="M974 396H970V364H974V396Z" fill="white" fill-opacity="0.75"/>
<path d="M1010 396H1006V364H1010V396Z" fill="white" fill-opacity="0.75"/>
<path d="M1046 396H1042V364H1046V396Z" fill="white" fill-opacity="0.75"/>
<path d="M1118 396H1114V364H1118V396Z" fill="white" fill-opacity="0.75"/>
<path d="M1154 396H1150V364H1154V396Z" fill="white" fill-opacity="0.75"/>
<path d="M1190 396H1186V364H1190V396Z" fill="white" fill-opacity="0.75"/>
<path d="M1226 396H1222V364H1226V396Z" fill="white" fill-opacity="0.75"/>
<path d="M1298 396H1294V364H1298V396Z" fill="white" fill-opacity="0.75"/>
<path d="M1334 396H1330V364H1334V396Z" fill="white" fill-opacity="0.75"/>
<path d="M1370 396H1366V364H1370V396Z" fill="white" fill-opacity="0.75"/>
<path d="M1406 396H1402V364H1406V396Z" fill="white" fill-opacity="0.75"/>
<path d="M1478 396H1474V364H1478V396Z" fill="white" fill-opacity="0.75"/>
<path d="M1514 396H1510V364H1514V396Z" fill="white" fill-opacity="0.75"/>
<path d="M1550 396H1546V364H1550V396Z" fill="white" fill-opacity="0.75"/>
<path d="M1586 396H1582V364H1586V396Z" fill="white" fill-opacity="0.75"/>
<path d="M1658 396H1654V364H1658V396Z" fill="white" fill-opacity="0.75"/>
<path d="M1694 396H1690V364H1694V396Z" fill="white" fill-opacity="0.75"/>
<path d="M1730 396H1726V364H1730V396Z" fill="white" fill-opacity="0.75"/>
<path d="M1766 396H1762V364H1766V396Z" fill="white" fill-opacity="0.75"/>
<path d="M1838 396H1834V364H1838V396Z" fill="white" fill-opacity="0.75"/>
<path d="M1874 396H1870V364H1874V396Z" fill="white" fill-opacity="0.75"/>
<path d="M1910 396H1906V364H1910V396Z" fill="white" fill-opacity="0.75"/>
<path d="M1946 396H1942V364H1946V396Z" fill="white" fill-opacity="0.75"/>
<path d="M2018 396H2014V364H2018V396Z" fill="white" fill-opacity="0.75"/>
<path d="M2054 396H2050V364H2054V396Z" fill="white" fill-opacity="0.75"/>
<path d="M2090 396H2086V364H2090V396Z" fill="white" fill-opacity="0.75"/>
<path d="M2126 396H2122V364H2126V396Z" fill="white" fill-opacity="0.75"/>
<path d="M2162 396H2158V364H2162V396Z" fill="white" fill-opacity="0.75"/>
<path d="M2198 396H2194V364H2198V396Z" fill="white" fill-opacity="0.75"/>
<path d="M2234 396H2230V364H2234V396Z" fill="white" fill-opacity="0.75"/>
<path d="M2270 396H2266V364H2270V396Z" fill="white" fill-opacity="0.75"/>
<path d="M2306 396H2302V364H2306V396Z" fill="white" fill-opacity="0.75"/>
<path fill-rule="evenodd" clip-rule="evenodd" d="M2704 1268H176V352H2704V1268ZM184 1260H532V360H184V1260ZM540 1260H2340V360H540V1260ZM2348 1260H2696V360H2348V1260Z" fill="white" fill-opacity="0.75"/>
<path d="M74 1226.29H70V1190.86H74V1226.29Z" fill="white" fill-opacity="0.75"/>
<path d="M2810 1226.29H2806V1190.86H2810V1226.29Z" fill="white" fill-opacity="0.75"/>
<path d="M74 1173.14H70V1137.71H74V1173.14Z" fill="white" fill-opacity="0.75"/>
<path d="M2810 1173.14H2806V1137.71H2810V1173.14Z" fill="white" fill-opacity="0.75"/>
<path d="M74 1120H70V1084.57H74V1120Z" fill="white" fill-opacity="0.75"/>
<path d="M2810 1120H2806V1084.57H2810V1120Z" fill="white" fill-opacity="0.75"/>
<path d="M74 1066.86H70V1031.43H74V1066.86Z" fill="white" fill-opacity="0.75"/>
<path d="M2810 1066.86H2806V1031.43H2810V1066.86Z" fill="white" fill-opacity="0.75"/>
<path d="M74 1013.71H70V978.286H74V1013.71Z" fill="white" fill-opacity="0.75"/>
<path d="M2810 1013.71H2806V978.286H2810V1013.71Z" fill="white" fill-opacity="0.75"/>
<path d="M74 960.571H70V925.143H74V960.571Z" fill="white" fill-opacity="0.75"/>
<path d="M2810 960.571H2806V925.143H2810V960.571Z" fill="white" fill-opacity="0.75"/>
<path d="M74 907.429H70V872H74V907.429Z" fill="white" fill-opacity="0.75"/>
<path d="M2810 907.429H2806V872H2810V907.429Z" fill="white" fill-opacity="0.75"/>
<path d="M74 854.286H70V818.857H74V854.286Z" fill="white" fill-opacity="0.75"/>
<path d="M2810 854.286H2806V818.857H2810V854.286Z" fill="white" fill-opacity="0.75"/>
<path d="M74 801.143H70V765.714H74V801.143Z" fill="white" fill-opacity="0.75"/>
<path d="M2810 801.143H2806V765.714H2810V801.143Z" fill="white" fill-opacity="0.75"/>
<path d="M74 748H70V712.571H74V748Z" fill="white" fill-opacity="0.75"/>
<path d="M2810 748H2806V712.571H2810V748Z" fill="white" fill-opacity="0.75"/>
<path d="M74 694.857H70V659.429H74V694.857Z" fill="white" fill-opacity="0.75"/>
<path d="M2810 694.857H2806V659.429H2810V694.857Z" fill="white" fill-opacity="0.75"/>
<path d="M74 641.714H70V606.286H74V641.714Z" fill="white" fill-opacity="0.75"/>
<path d="M2810 641.714H2806V606.286H2810V641.714Z" fill="white" fill-opacity="0.75"/>
<path d="M74 588.571H70V553.143H74V588.571Z" fill="white" fill-opacity="0.75"/>
<path d="M2810 588.571H2806V553.143H2810V588.571Z" fill="white" fill-opacity="0.75"/>
<path d="M74 535.429H70V500H74V535.429Z" fill="white" fill-opacity="0.75"/>
<path d="M2810 535.429H2806V500H2810V535.429Z" fill="white" fill-opacity="0.75"/>
<path d="M74 482.286H70V446.857H74V482.286Z" fill="white" fill-opacity="0.75"/>
<path d="M2810 482.285H2806V446.857H2810V482.285Z" fill="white" fill-opacity="0.75"/>
<path d="M74 429.143H70V393.714H74V429.143Z" fill="white" fill-opacity="0.75"/>
<path d="M2810 429.143H2806V393.714H2810V429.143Z" fill="white" fill-opacity="0.75"/>
<path d="M74 376H70V340.571H74V376Z" fill="white" fill-opacity="0.75"/>
<path d="M2810 376H2806V340.571H2810V376Z" fill="white" fill-opacity="0.75"/>
<path d="M74 322.857H70V287.429H74V322.857Z" fill="white" fill-opacity="0.75"/>
<path d="M2810 322.857H2806V287.429H2810V322.857Z" fill="white" fill-opacity="0.75"/>
<path d="M90 254H74V269.714H70V250H90V254Z" fill="white" fill-opacity="0.75"/>
<path d="M2810 269.714H2806V254H2790V250H2810V269.714Z" fill="white" fill-opacity="0.75"/>
<path d="M144 254H108V250H144V254Z" fill="white" fill-opacity="0.75"/>
<path d="M198 254H162V250H198V254Z" fill="white" fill-opacity="0.75"/>
<path d="M252 254H216V250H252V254Z" fill="white" fill-opacity="0.75"/>
<path d="M306 254H270V250H306V254Z" fill="white" fill-opacity="0.75"/>
<path d="M360 254H324V250H360V254Z" fill="white" fill-opacity="0.75"/>
<path d="M414 254H378V250H414V254Z" fill="white" fill-opacity="0.75"/>
<path d="M468 254H432V250H468V254Z" fill="white" fill-opacity="0.75"/>
<path d="M522 254H486V250H522V254Z" fill="white" fill-opacity="0.75"/>
<path d="M576 254H540V250H576V254Z" fill="white" fill-opacity="0.75"/>
<path d="M630 254H594V250H630V254Z" fill="white" fill-opacity="0.75"/>
<path d="M684 254H648V250H684V254Z" fill="white" fill-opacity="0.75"/>
<path d="M722 250H738V254H702V250H718V232H722V250Z" fill="white" fill-opacity="0.75"/>
<path d="M792 254H756V250H792V254Z" fill="white" fill-opacity="0.75"/>
<path d="M846 254H810V250H846V254Z" fill="white" fill-opacity="0.75"/>
<path d="M900 254H864V250H900V254Z" fill="white" fill-opacity="0.75"/>
<path d="M954 254H918V250H954V254Z" fill="white" fill-opacity="0.75"/>
<path d="M1008 254H972V250H1008V254Z" fill="white" fill-opacity="0.75"/>
<path d="M1062 254H1026V250H1062V254Z" fill="white" fill-opacity="0.75"/>
<path d="M1116 254H1080V250H1116V254Z" fill="white" fill-opacity="0.75"/>
<path d="M1170 254H1134V250H1170V254Z" fill="white" fill-opacity="0.75"/>
<path d="M1224 254H1188V250H1224V254Z" fill="white" fill-opacity="0.75"/>
<path d="M1262 250H1277.14V254H1242V250H1258V232H1262V250Z" fill="white" fill-opacity="0.75"/>
<path d="M1328.57 254H1294.29V250H1328.57V254Z" fill="white" fill-opacity="0.75"/>
<path d="M1380 254H1345.71V250H1380V254Z" fill="white" fill-opacity="0.75"/>
<path d="M1431.43 254H1397.14V250H1431.43V254Z" fill="white" fill-opacity="0.75"/>
<path d="M1482.86 254H1448.57V250H1482.86V254Z" fill="white" fill-opacity="0.75"/>
<path d="M1534.29 254H1500V250H1534.29V254Z" fill="white" fill-opacity="0.75"/>
<path d="M1585.71 254H1551.43V250H1585.71V254Z" fill="white" fill-opacity="0.75"/>
<path d="M1622 250H1638V254H1602.86V250H1618V232H1622V250Z" fill="white" fill-opacity="0.75"/>
<path d="M1692 254H1656V250H1692V254Z" fill="white" fill-opacity="0.75"/>
<path d="M1746 254H1710V250H1746V254Z" fill="white" fill-opacity="0.75"/>
<path d="M1800 254H1764V250H1800V254Z" fill="white" fill-opacity="0.75"/>
<path d="M1854 254H1818V250H1854V254Z" fill="white" fill-opacity="0.75"/>
<path d="M1908 254H1872V250H1908V254Z" fill="white" fill-opacity="0.75"/>
<path d="M1962 254H1926V250H1962V254Z" fill="white" fill-opacity="0.75"/>
<path d="M2016 254H1980V250H2016V254Z" fill="white" fill-opacity="0.75"/>
<path d="M2070 254H2034V250H2070V254Z" fill="white" fill-opacity="0.75"/>
<path d="M2124 254H2088V250H2124V254Z" fill="white" fill-opacity="0.75"/>
<path d="M2162 250H2178V254H2142V250H2158V232H2162V250Z" fill="white" fill-opacity="0.75"/>
<path d="M2232 254H2196V250H2232V254Z" fill="white" fill-opacity="0.75"/>
<path d="M2286 254H2250V250H2286V254Z" fill="white" fill-opacity="0.75"/>
<path d="M2340 254H2304V250H2340V254Z" fill="white" fill-opacity="0.75"/>
<path d="M2394 254H2358V250H2394V254Z" fill="white" fill-opacity="0.75"/>
<path d="M2448 254H2412V250H2448V254Z" fill="white" fill-opacity="0.75"/>
<path d="M2502 254H2466V250H2502V254Z" fill="white" fill-opacity="0.75"/>
<path d="M2556 254H2520V250H2556V254Z" fill="white" fill-opacity="0.75"/>
<path d="M2610 254H2574V250H2610V254Z" fill="white" fill-opacity="0.75"/>
<path d="M2664 254H2628V250H2664V254Z" fill="white" fill-opacity="0.75"/>
<path d="M2718 254H2682V250H2718V254Z" fill="white" fill-opacity="0.75"/>
<path d="M2772 254H2736V250H2772V254Z" fill="white" fill-opacity="0.75"/>
<path d="M722 212H718V172H722V212Z" fill="white" fill-opacity="0.75"/>
<path d="M1262 212H1258V172H1262V212Z" fill="white" fill-opacity="0.75"/>
<path d="M1622 212H1618V172H1622V212Z" fill="white" fill-opacity="0.75"/>
<path d="M2162 212H2158V172H2162V212Z" fill="white" fill-opacity="0.75"/>
<path d="M722 152H718V112H722V152Z" fill="white" fill-opacity="0.75"/>
<path d="M1262 152H1258V112H1262V152Z" fill="white" fill-opacity="0.75"/>
<path d="M1622 152H1618V112H1622V152Z" fill="white" fill-opacity="0.75"/>
<path d="M2162 152H2158V112H2162V152Z" fill="white" fill-opacity="0.75"/>
<path d="M738 74H722V92H718V70H738V74Z" fill="white" fill-opacity="0.75"/>
<path d="M1262 92H1258V74H1242V70H1262V92Z" fill="white" fill-opacity="0.75"/>
<path d="M1638 74H1622V92H1618V70H1638V74Z" fill="white" fill-opacity="0.75"/>
<path d="M2162 92H2158V74H2142V70H2162V92Z" fill="white" fill-opacity="0.75"/>
<path d="M792 74H756V70H792V74Z" fill="white" fill-opacity="0.75"/>
<path d="M846 74H810V70H846V74Z" fill="white" fill-opacity="0.75"/>
<path d="M900 74H864V70H900V74Z" fill="white" fill-opacity="0.75"/>
<path d="M954 74H918V70H954V74Z" fill="white" fill-opacity="0.75"/>
<path d="M1008 74H972V70H1008V74Z" fill="white" fill-opacity="0.75"/>
<path d="M1062 74H1026V70H1062V74Z" fill="white" fill-opacity="0.75"/>
<path d="M1116 74H1080V70H1116V74Z" fill="white" fill-opacity="0.75"/>
<path d="M1170 74H1134V70H1170V74Z" fill="white" fill-opacity="0.75"/>
<path d="M1224 74H1188V70H1224V74Z" fill="white" fill-opacity="0.75"/>
<path d="M1692 74H1656V70H1692V74Z" fill="white" fill-opacity="0.75"/>
<path d="M1746 74H1710V70H1746V74Z" fill="white" fill-opacity="0.75"/>
<path d="M1800 74H1764V70H1800V74Z" fill="white" fill-opacity="0.75"/>
<path d="M1854 74H1818V70H1854V74Z" fill="white" fill-opacity="0.75"/>
<path d="M1908 74H1872V70H1908V74Z" fill="white" fill-opacity="0.75"/>
<path d="M1962 74H1926V70H1962V74Z" fill="white" fill-opacity="0.75"/>
<path d="M2016 74H1980V70H2016V74Z" fill="white" fill-opacity="0.75"/>
<path d="M2070 74H2034V70H2070V74Z" fill="white" fill-opacity="0.75"/>
<path d="M2124 74H2088V70H2124V74Z" fill="white" fill-opacity="0.75"/>
</svg>
