<svg width="4400" height="2536" viewBox="0 0 4400 2536" fill="none" xmlns="http://www.w3.org/2000/svg">
<path d="M438 2224H434V2200H438V2224Z" fill="white" fill-opacity="0.75"/>
<path d="M474 2224H470V2200H474V2224Z" fill="white" fill-opacity="0.75"/>
<path d="M510 2224H506V2200H510V2224Z" fill="white" fill-opacity="0.75"/>
<path d="M546 2224H542V2200H546V2224Z" fill="white" fill-opacity="0.75"/>
<path d="M582 1024H592V1028H582V1508H592V1512H582V2224H578V1512H568V1508H578V1028H568V1024H578V312H582V1024Z" fill="white" fill-opacity="0.75"/>
<path d="M618 2224H614V2200H618V2224Z" fill="white" fill-opacity="0.75"/>
<path d="M654 2224H650V2200H654V2224Z" fill="white" fill-opacity="0.75"/>
<path d="M690 2224H686V2200H690V2224Z" fill="white" fill-opacity="0.75"/>
<path d="M726 2224H722V2200H726V2224Z" fill="white" fill-opacity="0.75"/>
<path d="M762 1024H772V1028H762V1508H772V1512H762V2224H758V1512H748V1508H758V1028H748V1024H758V312H762V1024Z" fill="white" fill-opacity="0.75"/>
<path d="M798 2224H794V2200H798V2224Z" fill="white" fill-opacity="0.75"/>
<path d="M834 2224H830V2200H834V2224Z" fill="white" fill-opacity="0.75"/>
<path d="M870 2224H866V2200H870V2224Z" fill="white" fill-opacity="0.75"/>
<path d="M906 2224H902V2200H906V2224Z" fill="white" fill-opacity="0.75"/>
<path d="M942 1024H952V1028H942V1508H952V1512H942V2224H938V1512H928V1508H938V1028H928V1024H938V312H942V1024Z" fill="white" fill-opacity="0.75"/>
<path d="M978 2224H974V2200H978V2224Z" fill="white" fill-opacity="0.75"/>
<path d="M1014 2224H1010V2200H1014V2224Z" fill="white" fill-opacity="0.75"/>
<path d="M1050 2224H1046V2200H1050V2224Z" fill="white" fill-opacity="0.75"/>
<path d="M1086 2224H1082V2200H1086V2224Z" fill="white" fill-opacity="0.75"/>
<path d="M1122 1024H1132V1028H1122V1508H1132V1512H1122V2224H1118V1512H1108V1508H1118V1028H1108V1024H1118V312H1122V1024Z" fill="white" fill-opacity="0.75"/>
<path d="M1158 2224H1154V2200H1158V2224Z" fill="white" fill-opacity="0.75"/>
<path d="M1194 2224H1190V2200H1194V2224Z" fill="white" fill-opacity="0.75"/>
<path d="M1230 2224H1226V2200H1230V2224Z" fill="white" fill-opacity="0.75"/>
<path d="M1266 2224H1262V2200H1266V2224Z" fill="white" fill-opacity="0.75"/>
<path d="M1302 1024H1312V1028H1302V1508H1312V1512H1302V2224H1298V1512H1288V1508H1298V1028H1288V1024H1298V312H1302V1024Z" fill="white" fill-opacity="0.75"/>
<path d="M1338 2224H1334V2200H1338V2224Z" fill="white" fill-opacity="0.75"/>
<path d="M1374 2224H1370V2200H1374V2224Z" fill="white" fill-opacity="0.75"/>
<path d="M1410 2224H1406V2200H1410V2224Z" fill="white" fill-opacity="0.75"/>
<path d="M1446 2224H1442V2200H1446V2224Z" fill="white" fill-opacity="0.75"/>
<path d="M1482 1024H1492V1028H1482V1508H1492V1512H1482V2224H1478V1512H1468V1508H1478V1028H1468V1024H1478V312H1482V1024Z" fill="white" fill-opacity="0.75"/>
<path d="M1518 2224H1514V2200H1518V2224Z" fill="white" fill-opacity="0.75"/>
<path d="M1554 2224H1550V2200H1554V2224Z" fill="white" fill-opacity="0.75"/>
<path d="M1590 2224H1586V2200H1590V2224Z" fill="white" fill-opacity="0.75"/>
<path d="M1626 2224H1622V2200H1626V2224Z" fill="white" fill-opacity="0.75"/>
<path d="M1662 1024H1672V1028H1662V1508H1672V1512H1662V2224H1658V1512H1648V1508H1658V1028H1648V1024H1658V312H1662V1024Z" fill="white" fill-opacity="0.75"/>
<path d="M1698 2224H1694V2200H1698V2224Z" fill="white" fill-opacity="0.75"/>
<path d="M1734 2224H1730V2200H1734V2224Z" fill="white" fill-opacity="0.75"/>
<path d="M1770 2224H1766V2200H1770V2224Z" fill="white" fill-opacity="0.75"/>
<path d="M1806 2224H1802V2200H1806V2224Z" fill="white" fill-opacity="0.75"/>
<path d="M1842 1024H1852V1028H1842V1508H1852V1512H1842V2224H1838V1512H1828V1508H1838V1028H1828V1024H1838V312H1842V1024Z" fill="white" fill-opacity="0.75"/>
<path d="M1878 2224H1874V2200H1878V2224Z" fill="white" fill-opacity="0.75"/>
<path d="M1914 2224H1910V2200H1914V2224Z" fill="white" fill-opacity="0.75"/>
<path d="M1950 2224H1946V2200H1950V2224Z" fill="white" fill-opacity="0.75"/>
<path d="M1986 2224H1982V2200H1986V2224Z" fill="white" fill-opacity="0.75"/>
<path d="M2022 1024H2032V1028H2022V1508H2032V1512H2022V2224H2018V1512H2008V1508H2018V1028H2008V1024H2018V312H2022V1024Z" fill="white" fill-opacity="0.75"/>
<path d="M2058 2224H2054V2200H2058V2224Z" fill="white" fill-opacity="0.75"/>
<path d="M2094 2224H2090V2200H2094V2224Z" fill="white" fill-opacity="0.75"/>
<path d="M2130 2224H2126V2200H2130V2224Z" fill="white" fill-opacity="0.75"/>
<path d="M2166 2224H2162V2200H2166V2224Z" fill="white" fill-opacity="0.75"/>
<path d="M2202 1024H2212V1028H2202V1508H2212V1512H2202V2224H2198V1512H2188V1508H2198V1028H2188V1024H2198V312H2202V1024Z" fill="white" fill-opacity="0.75"/>
<path d="M2238 2224H2234V2200H2238V2224Z" fill="white" fill-opacity="0.75"/>
<path d="M2274 2224H2270V2200H2274V2224Z" fill="white" fill-opacity="0.75"/>
<path d="M2310 2224H2306V2200H2310V2224Z" fill="white" fill-opacity="0.75"/>
<path d="M2346 2224H2342V2200H2346V2224Z" fill="white" fill-opacity="0.75"/>
<path d="M2382 1024H2392V1028H2382V1508H2392V1512H2382V2224H2378V1512H2368V1508H2378V1028H2368V1024H2378V312H2382V1024Z" fill="white" fill-opacity="0.75"/>
<path d="M2418 2224H2414V2200H2418V2224Z" fill="white" fill-opacity="0.75"/>
<path d="M2454 2224H2450V2200H2454V2224Z" fill="white" fill-opacity="0.75"/>
<path d="M2490 2224H2486V2200H2490V2224Z" fill="white" fill-opacity="0.75"/>
<path d="M2526 2224H2522V2200H2526V2224Z" fill="white" fill-opacity="0.75"/>
<path d="M2562 1024H2572V1028H2562V1508H2572V1512H2562V2224H2558V1512H2548V1508H2558V1028H2548V1024H2558V312H2562V1024Z" fill="white" fill-opacity="0.75"/>
<path d="M2598 2224H2594V2200H2598V2224Z" fill="white" fill-opacity="0.75"/>
<path d="M2634 2224H2630V2200H2634V2224Z" fill="white" fill-opacity="0.75"/>
<path d="M2670 2224H2666V2200H2670V2224Z" fill="white" fill-opacity="0.75"/>
<path d="M2706 2224H2702V2200H2706V2224Z" fill="white" fill-opacity="0.75"/>
<path d="M2742 1024H2752V1028H2742V1508H2752V1512H2742V2224H2738V1512H2728V1508H2738V1028H2728V1024H2738V312H2742V1024Z" fill="white" fill-opacity="0.75"/>
<path d="M2778 2224H2774V2200H2778V2224Z" fill="white" fill-opacity="0.75"/>
<path d="M2814 2224H2810V2200H2814V2224Z" fill="white" fill-opacity="0.75"/>
<path d="M2850 2224H2846V2200H2850V2224Z" fill="white" fill-opacity="0.75"/>
<path d="M2886 2224H2882V2200H2886V2224Z" fill="white" fill-opacity="0.75"/>
<path d="M2922 1024H2932V1028H2922V1508H2932V1512H2922V2224H2918V1512H2908V1508H2918V1028H2908V1024H2918V312H2922V1024Z" fill="white" fill-opacity="0.75"/>
<path d="M2958 2224H2954V2200H2958V2224Z" fill="white" fill-opacity="0.75"/>
<path d="M2994 2224H2990V2200H2994V2224Z" fill="white" fill-opacity="0.75"/>
<path d="M3030 2224H3026V2200H3030V2224Z" fill="white" fill-opacity="0.75"/>
<path d="M3066 2224H3062V2200H3066V2224Z" fill="white" fill-opacity="0.75"/>
<path d="M3102 1024H3112V1028H3102V1508H3112V1512H3102V2224H3098V1512H3088V1508H3098V1028H3088V1024H3098V312H3102V1024Z" fill="white" fill-opacity="0.75"/>
<path d="M3138 2224H3134V2200H3138V2224Z" fill="white" fill-opacity="0.75"/>
<path d="M3174 2224H3170V2200H3174V2224Z" fill="white" fill-opacity="0.75"/>
<path d="M3210 2224H3206V2200H3210V2224Z" fill="white" fill-opacity="0.75"/>
<path d="M3246 2224H3242V2200H3246V2224Z" fill="white" fill-opacity="0.75"/>
<path d="M3282 1024H3292V1028H3282V1508H3292V1512H3282V2224H3278V1512H3268V1508H3278V1028H3268V1024H3278V312H3282V1024Z" fill="white" fill-opacity="0.75"/>
<path d="M3318 2224H3314V2200H3318V2224Z" fill="white" fill-opacity="0.75"/>
<path d="M3354 2224H3350V2200H3354V2224Z" fill="white" fill-opacity="0.75"/>
<path d="M3390 2224H3386V2200H3390V2224Z" fill="white" fill-opacity="0.75"/>
<path d="M3426 2224H3422V2200H3426V2224Z" fill="white" fill-opacity="0.75"/>
<path d="M3462 1024H3472V1028H3462V1508H3472V1512H3462V2224H3458V1512H3448V1508H3458V1028H3448V1024H3458V312H3462V1024Z" fill="white" fill-opacity="0.75"/>
<path d="M3498 2224H3494V2200H3498V2224Z" fill="white" fill-opacity="0.75"/>
<path d="M3534 2224H3530V2200H3534V2224Z" fill="white" fill-opacity="0.75"/>
<path d="M3570 2224H3566V2200H3570V2224Z" fill="white" fill-opacity="0.75"/>
<path d="M3606 2224H3602V2200H3606V2224Z" fill="white" fill-opacity="0.75"/>
<path d="M3642 1024H3652V1028H3642V1508H3652V1512H3642V2224H3638V1512H3628V1508H3638V1028H3628V1024H3638V312H3642V1024Z" fill="white" fill-opacity="0.75"/>
<path d="M3678 2224H3674V2200H3678V2224Z" fill="white" fill-opacity="0.75"/>
<path d="M3714 2224H3710V2200H3714V2224Z" fill="white" fill-opacity="0.75"/>
<path d="M3750 2224H3746V2200H3750V2224Z" fill="white" fill-opacity="0.75"/>
<path d="M3786 2224H3782V2200H3786V2224Z" fill="white" fill-opacity="0.75"/>
<path d="M3822 1024H3832V1028H3822V1508H3832V1512H3822V2224H3818V1512H3808V1508H3818V1028H3808V1024H3818V312H3822V1024Z" fill="white" fill-opacity="0.75"/>
<path d="M3858 2224H3854V2200H3858V2224Z" fill="white" fill-opacity="0.75"/>
<path d="M3894 2224H3890V2200H3894V2224Z" fill="white" fill-opacity="0.75"/>
<path d="M3930 2224H3926V2200H3930V2224Z" fill="white" fill-opacity="0.75"/>
<path d="M3966 2224H3962V2200H3966V2224Z" fill="white" fill-opacity="0.75"/>
<path fill-rule="evenodd" clip-rule="evenodd" d="M809.456 1902.79C835.976 1902.79 844.192 1919.42 844.192 1938.35C844.192 1955.41 839.512 1977.67 809.352 1977.67C779.296 1977.66 774.72 1955.41 774.72 1938.35C774.72 1919.42 782.936 1902.79 809.456 1902.79ZM809.56 1913.5C799.576 1913.5 798.016 1920.36 798.016 1937.1V1946.15C798.016 1957.8 799.472 1967.06 809.456 1967.06C819.336 1967.06 821 1957.8 821 1946.15V1937.1C821 1920.36 819.336 1913.5 809.56 1913.5Z" fill="white" fill-opacity="0.75"/>
<path fill-rule="evenodd" clip-rule="evenodd" d="M1169.46 1902.78C1195.98 1902.78 1204.19 1919.42 1204.19 1938.35C1204.19 1955.41 1199.51 1977.67 1169.35 1977.67C1139.3 1977.66 1134.72 1955.41 1134.72 1938.35C1134.72 1919.42 1142.94 1902.78 1169.46 1902.78ZM1169.56 1913.5C1159.58 1913.5 1158.02 1920.36 1158.02 1937.1V1946.15C1158.02 1957.8 1159.47 1967.06 1169.46 1967.06C1179.34 1967.06 1181 1957.8 1181 1946.15V1937.1C1181 1920.36 1179.34 1913.5 1169.56 1913.5Z" fill="white" fill-opacity="0.75"/>
<path fill-rule="evenodd" clip-rule="evenodd" d="M1529.46 1902.78C1555.98 1902.78 1564.19 1919.42 1564.19 1938.35C1564.19 1955.41 1559.51 1977.67 1529.35 1977.67C1499.3 1977.66 1494.72 1955.41 1494.72 1938.35C1494.72 1919.42 1502.94 1902.78 1529.46 1902.78ZM1529.56 1913.5C1519.58 1913.5 1518.02 1920.36 1518.02 1937.1V1946.15C1518.02 1957.8 1519.47 1967.06 1529.46 1967.06C1539.34 1967.06 1541 1957.8 1541 1946.15V1937.1C1541 1920.36 1539.34 1913.5 1529.56 1913.5Z" fill="white" fill-opacity="0.75"/>
<path fill-rule="evenodd" clip-rule="evenodd" d="M1889.46 1902.79C1915.98 1902.79 1924.19 1919.42 1924.19 1938.35C1924.19 1955.41 1919.51 1977.66 1889.35 1977.67C1859.3 1977.67 1854.72 1955.41 1854.72 1938.35C1854.72 1919.42 1862.94 1902.79 1889.46 1902.79ZM1889.56 1913.5C1879.58 1913.5 1878.02 1920.36 1878.02 1937.1V1946.15C1878.02 1957.8 1879.47 1967.06 1889.46 1967.06C1899.34 1967.06 1901 1957.8 1901 1946.15V1937.1C1901 1920.36 1899.34 1913.5 1889.56 1913.5Z" fill="white" fill-opacity="0.75"/>
<path fill-rule="evenodd" clip-rule="evenodd" d="M2249.46 1902.79C2275.98 1902.79 2284.19 1919.42 2284.19 1938.35C2284.19 1955.41 2279.51 1977.66 2249.35 1977.67C2219.3 1977.67 2214.72 1955.41 2214.72 1938.35C2214.72 1919.42 2222.94 1902.79 2249.46 1902.79ZM2249.56 1913.5C2239.58 1913.5 2238.02 1920.36 2238.02 1937.1V1946.15C2238.02 1957.8 2239.47 1967.06 2249.46 1967.06C2259.34 1967.06 2261 1957.8 2261 1946.15V1937.1C2261 1920.36 2259.34 1913.5 2249.56 1913.5Z" fill="white" fill-opacity="0.75"/>
<path fill-rule="evenodd" clip-rule="evenodd" d="M2609.46 1902.79C2635.98 1902.79 2644.19 1919.42 2644.19 1938.35C2644.19 1955.41 2639.51 1977.67 2609.35 1977.67C2579.3 1977.67 2574.72 1955.41 2574.72 1938.35C2574.72 1919.42 2582.94 1902.79 2609.46 1902.79ZM2609.56 1913.5C2599.58 1913.5 2598.02 1920.36 2598.02 1937.1V1946.15C2598.02 1957.8 2599.47 1967.06 2609.46 1967.06C2619.34 1967.06 2621 1957.8 2621 1946.15V1937.1C2621 1920.36 2619.34 1913.5 2609.56 1913.5Z" fill="white" fill-opacity="0.75"/>
<path fill-rule="evenodd" clip-rule="evenodd" d="M2969.46 1902.78C2995.98 1902.78 3004.19 1919.42 3004.19 1938.35C3004.19 1955.41 2999.51 1977.66 2969.35 1977.67C2939.3 1977.67 2934.72 1955.41 2934.72 1938.35C2934.72 1919.42 2942.94 1902.78 2969.46 1902.78ZM2969.56 1913.5C2959.58 1913.5 2958.02 1920.36 2958.02 1937.1V1946.15C2958.02 1957.8 2959.47 1967.06 2969.46 1967.06C2979.34 1967.06 2981 1957.8 2981 1946.15V1937.1C2981 1920.36 2979.34 1913.5 2969.56 1913.5Z" fill="white" fill-opacity="0.75"/>
<path fill-rule="evenodd" clip-rule="evenodd" d="M3329.46 1902.78C3355.98 1902.78 3364.19 1919.42 3364.19 1938.35C3364.19 1955.41 3359.51 1977.67 3329.35 1977.67C3299.3 1977.67 3294.72 1955.41 3294.72 1938.35C3294.72 1919.42 3302.94 1902.78 3329.46 1902.78ZM3329.56 1913.5C3319.58 1913.5 3318.02 1920.36 3318.02 1937.1V1946.15C3318.02 1957.8 3319.47 1967.06 3329.46 1967.06C3339.34 1967.06 3341 1957.8 3341 1946.15V1937.1C3341 1920.36 3339.34 1913.5 3329.56 1913.5Z" fill="white" fill-opacity="0.75"/>
<path fill-rule="evenodd" clip-rule="evenodd" d="M3689.46 1902.79C3715.98 1902.79 3724.19 1919.42 3724.19 1938.35C3724.19 1955.41 3719.51 1977.67 3689.35 1977.67C3659.3 1977.66 3654.72 1955.41 3654.72 1938.35C3654.72 1919.42 3662.94 1902.79 3689.46 1902.79ZM3689.56 1913.5C3679.58 1913.5 3678.02 1920.36 3678.02 1937.1V1946.15C3678.02 1957.8 3679.47 1967.06 3689.46 1967.06C3699.34 1967.06 3701 1957.8 3701 1946.15V1937.1C3701 1920.36 3699.34 1913.5 3689.56 1913.5Z" fill="white" fill-opacity="0.75"/>
<path d="M1431.2 1902.47C1446.17 1902.47 1463.95 1906.22 1463.96 1921.82C1463.96 1932.22 1454.49 1937.1 1443.47 1938.35C1456.47 1938.77 1465.2 1944.28 1465.2 1956.24C1465.2 1972.98 1445.75 1977.35 1429.22 1977.35C1416.74 1977.35 1396.67 1974.23 1396.67 1960.5C1396.67 1954.47 1401.55 1950.31 1407.59 1950.31C1409.67 1950.31 1411.54 1950.63 1413.31 1951.25C1416.95 1952.5 1419.44 1955.1 1419.44 1958.94C1419.44 1962.06 1417.99 1963.94 1414.45 1965.5C1417.05 1966.74 1422.04 1967.16 1425.47 1967.16C1435.67 1967.16 1441.59 1962.9 1441.59 1954.68C1441.59 1947.92 1436.71 1943.14 1417.88 1943.14V1933.88C1428.59 1933.88 1441.18 1933.88 1441.18 1922.54C1441.18 1915.37 1433.69 1912.04 1426.1 1912.04C1422.35 1912.04 1418.61 1912.77 1415.91 1914.12C1419.13 1915.78 1420.9 1917.76 1420.9 1920.78C1420.9 1926.7 1416.01 1929.41 1410.08 1929.41C1402.7 1929.41 1398.43 1925.25 1398.43 1918.8C1398.43 1904.97 1418.92 1902.47 1431.2 1902.47Z" fill="white" fill-opacity="0.75"/>
<path d="M2183.66 1903.3C2179.5 1917.45 2161.19 1918.07 2147.98 1918.07C2143.41 1918.07 2139.66 1917.97 2136.65 1917.76L2135.92 1932.32C2141.64 1927.02 2147.88 1926.18 2156.3 1926.18C2175.02 1926.18 2186.57 1934.71 2186.57 1950.31C2186.57 1968.93 2170.24 1977.35 2149.65 1977.35C2137.48 1977.35 2120.01 1973.4 2120.01 1960.71C2120.01 1954.89 2124.59 1950.31 2131.87 1950.31C2137.48 1950.31 2142.68 1953.64 2142.68 1958.94C2142.68 1961.75 2140.7 1963.94 2137.58 1965.71C2140.29 1966.75 2144.14 1967.16 2147.67 1967.16C2158.8 1967.16 2164.31 1959.26 2164.31 1951.46C2164.31 1943.87 2159.32 1936.48 2148.4 1936.48C2141.54 1936.48 2138.94 1938.46 2135.61 1943.03H2123.65L2125 1903.62C2135.61 1904.55 2145.59 1904.66 2157.34 1904.66C2167.12 1904.66 2176.69 1904.24 2183.66 1903.3Z" fill="white" fill-opacity="0.75"/>
<path d="M2871.2 1902.47C2886.17 1902.47 2903.95 1906.22 2903.96 1921.82C2903.96 1932.22 2894.49 1937.1 2883.47 1938.35C2896.47 1938.77 2905.2 1944.28 2905.2 1956.24C2905.2 1972.98 2885.75 1977.35 2869.22 1977.35C2856.74 1977.35 2836.67 1974.23 2836.67 1960.5C2836.67 1954.47 2841.55 1950.31 2847.59 1950.31C2849.67 1950.31 2851.54 1950.63 2853.31 1951.25C2856.95 1952.5 2859.44 1955.1 2859.44 1958.94C2859.44 1962.06 2857.99 1963.94 2854.45 1965.5C2857.05 1966.74 2862.04 1967.16 2865.48 1967.16C2875.67 1967.16 2881.59 1962.9 2881.59 1954.68C2881.59 1947.92 2876.71 1943.14 2857.88 1943.14V1933.88C2868.59 1933.88 2881.18 1933.88 2881.18 1922.54C2881.18 1915.37 2873.69 1912.04 2866.1 1912.04C2862.35 1912.04 2858.61 1912.77 2855.91 1914.12C2859.13 1915.78 2860.9 1917.76 2860.9 1920.78C2860.9 1926.7 2856.01 1929.41 2850.08 1929.41C2842.7 1929.41 2838.44 1925.25 2838.44 1918.8C2838.44 1904.97 2858.92 1902.47 2871.2 1902.47Z" fill="white" fill-opacity="0.75"/>
<path d="M1070.86 1902.68C1086.98 1902.68 1103.93 1907.67 1103.93 1923.48C1103.93 1932.53 1096.55 1939.6 1087.19 1943.76C1062.02 1954.99 1053.6 1958.01 1050.37 1964.04C1054.53 1960.82 1057.65 1959.15 1062.96 1959.15C1070.44 1959.15 1078.45 1960.82 1086.15 1960.82C1090.2 1960.82 1093.74 1960.61 1093.84 1956.97L1094.05 1950.94H1104.76V1961.75C1104.76 1973.09 1096.86 1977.04 1086.88 1977.04C1075.54 1977.04 1059.73 1970.18 1053.7 1970.18C1049.23 1970.18 1048.6 1972.67 1048.08 1976H1039.25C1039.25 1972.36 1039.24 1962.9 1052.14 1952.6C1061.4 1945.22 1080.12 1937.52 1080.12 1923.79C1080.12 1916.51 1074.19 1912.67 1065.66 1912.67C1061.92 1912.67 1054.74 1913.39 1053.08 1916.41C1057.44 1917.14 1059.84 1919.94 1059.84 1923.48C1059.84 1928.68 1055.57 1932.11 1049.64 1932.11C1042.16 1932.11 1037.27 1927.43 1037.27 1920.88C1037.27 1906.22 1057.55 1902.68 1070.86 1902.68Z" fill="white" fill-opacity="0.75"/>
<path d="M3230.86 1902.68C3246.98 1902.68 3263.93 1907.67 3263.93 1923.48C3263.93 1932.53 3256.55 1939.6 3247.19 1943.76C3222.02 1954.99 3213.6 1958.01 3210.37 1964.04C3214.53 1960.82 3217.65 1959.15 3222.96 1959.15C3230.44 1959.15 3238.45 1960.82 3246.15 1960.82C3250.2 1960.82 3253.74 1960.61 3253.84 1956.97L3254.05 1950.94H3264.76V1961.75C3264.76 1973.09 3256.86 1977.04 3246.88 1977.04C3235.54 1977.04 3219.73 1970.18 3213.7 1970.18C3209.23 1970.18 3208.6 1972.67 3208.08 1976H3199.25C3199.25 1972.36 3199.24 1962.9 3212.14 1952.6C3221.4 1945.22 3240.12 1937.52 3240.12 1923.79C3240.12 1916.51 3234.19 1912.67 3225.66 1912.67C3221.92 1912.67 3214.74 1913.39 3213.08 1916.41C3217.44 1917.14 3219.84 1919.94 3219.84 1923.48C3219.84 1928.68 3215.57 1932.11 3209.64 1932.11C3202.16 1932.11 3197.27 1927.43 3197.27 1920.88C3197.27 1906.22 3217.55 1902.68 3230.86 1902.68Z" fill="white" fill-opacity="0.75"/>
<path d="M732.677 1961.44C732.677 1963.42 733.716 1965.39 736.94 1965.39H749.629V1976H693.261V1965.39H706.988C708.756 1965.39 710.94 1964.35 710.94 1961.54V1924.83C704.492 1926.08 698.356 1926.39 692.116 1926.39V1917.03C704.7 1916.2 714.165 1915.68 718.013 1903.62H732.677V1961.44Z" fill="white" fill-opacity="0.75"/>
<path fill-rule="evenodd" clip-rule="evenodd" d="M1813.16 1946.78H1826.99V1956.76H1813.16V1962.9C1813.16 1965.29 1815.66 1965.39 1817.42 1965.39H1824.91V1976H1780.3V1965.39H1787.89C1791.11 1965.39 1792.05 1963.1 1792.05 1961.23V1956.76H1753.78V1946.78L1794.13 1903.62H1813.16V1946.78ZM1768.65 1946.78H1792.26V1921.4L1768.65 1946.78Z" fill="white" fill-opacity="0.75"/>
<path fill-rule="evenodd" clip-rule="evenodd" d="M2533.16 1946.78H2546.99V1956.76H2533.16V1962.9C2533.16 1965.29 2535.66 1965.39 2537.43 1965.39H2544.91V1976H2500.3V1965.39H2507.89C2511.11 1965.39 2512.05 1963.1 2512.05 1961.23V1956.76H2473.78V1946.78L2514.13 1903.62H2533.16V1946.78ZM2488.65 1946.78H2512.26V1921.4L2488.65 1946.78Z" fill="white" fill-opacity="0.75"/>
<path d="M3612.68 1961.44C3612.68 1963.42 3613.72 1965.39 3616.94 1965.39H3629.63V1976H3573.26V1965.39H3586.99C3588.76 1965.39 3590.94 1964.35 3590.94 1961.54V1924.83C3584.49 1926.08 3578.36 1926.39 3572.12 1926.39V1917.03C3584.7 1916.2 3594.16 1915.68 3598.01 1903.62H3612.68V1961.44Z" fill="white" fill-opacity="0.75"/>
<path d="M673 1949L637 1940L673 1931V1949Z" fill="white" fill-opacity="0.75"/>
<path d="M1019 1949L983 1940L1019 1931V1949Z" fill="white" fill-opacity="0.75"/>
<path d="M1378 1949L1342 1940L1378 1931V1949Z" fill="white" fill-opacity="0.75"/>
<path d="M1737 1949L1701 1940L1737 1931V1949Z" fill="white" fill-opacity="0.75"/>
<path d="M2699 1940L2663 1949V1931L2699 1940Z" fill="white" fill-opacity="0.75"/>
<path d="M3059 1940L3023 1949V1931L3059 1940Z" fill="white" fill-opacity="0.75"/>
<path d="M3419 1940L3383 1949V1931L3419 1940Z" fill="white" fill-opacity="0.75"/>
<path d="M3779 1940L3743 1949V1931L3779 1940Z" fill="white" fill-opacity="0.75"/>
<path d="M438 1532H434V1508H438V1532Z" fill="white" fill-opacity="0.75"/>
<path d="M474 1532H470V1508H474V1532Z" fill="white" fill-opacity="0.75"/>
<path d="M510 1532H506V1508H510V1532Z" fill="white" fill-opacity="0.75"/>
<path d="M546 1532H542V1508H546V1532Z" fill="white" fill-opacity="0.75"/>
<path d="M618 1532H614V1508H618V1532Z" fill="white" fill-opacity="0.75"/>
<path d="M654 1532H650V1508H654V1532Z" fill="white" fill-opacity="0.75"/>
<path d="M690 1532H686V1508H690V1532Z" fill="white" fill-opacity="0.75"/>
<path d="M726 1532H722V1508H726V1532Z" fill="white" fill-opacity="0.75"/>
<path d="M798 1532H794V1508H798V1532Z" fill="white" fill-opacity="0.75"/>
<path d="M834 1532H830V1508H834V1532Z" fill="white" fill-opacity="0.75"/>
<path d="M870 1532H866V1508H870V1532Z" fill="white" fill-opacity="0.75"/>
<path d="M906 1532H902V1508H906V1532Z" fill="white" fill-opacity="0.75"/>
<path d="M978 1532H974V1508H978V1532Z" fill="white" fill-opacity="0.75"/>
<path d="M1014 1532H1010V1508H1014V1532Z" fill="white" fill-opacity="0.75"/>
<path d="M1050 1532H1046V1508H1050V1532Z" fill="white" fill-opacity="0.75"/>
<path d="M1086 1532H1082V1508H1086V1532Z" fill="white" fill-opacity="0.75"/>
<path d="M1158 1532H1154V1508H1158V1532Z" fill="white" fill-opacity="0.75"/>
<path d="M1194 1532H1190V1508H1194V1532Z" fill="white" fill-opacity="0.75"/>
<path d="M1230 1532H1226V1508H1230V1532Z" fill="white" fill-opacity="0.75"/>
<path d="M1266 1532H1262V1508H1266V1532Z" fill="white" fill-opacity="0.75"/>
<path d="M1338 1532H1334V1508H1338V1532Z" fill="white" fill-opacity="0.75"/>
<path d="M1374 1532H1370V1508H1374V1532Z" fill="white" fill-opacity="0.75"/>
<path d="M1410 1532H1406V1508H1410V1532Z" fill="white" fill-opacity="0.75"/>
<path d="M1446 1532H1442V1508H1446V1532Z" fill="white" fill-opacity="0.75"/>
<path d="M1518 1532H1514V1508H1518V1532Z" fill="white" fill-opacity="0.75"/>
<path d="M1554 1532H1550V1508H1554V1532Z" fill="white" fill-opacity="0.75"/>
<path d="M1590 1532H1586V1508H1590V1532Z" fill="white" fill-opacity="0.75"/>
<path d="M1626 1532H1622V1508H1626V1532Z" fill="white" fill-opacity="0.75"/>
<path d="M1698 1532H1694V1508H1698V1532Z" fill="white" fill-opacity="0.75"/>
<path d="M1734 1532H1730V1508H1734V1532Z" fill="white" fill-opacity="0.75"/>
<path d="M1770 1532H1766V1508H1770V1532Z" fill="white" fill-opacity="0.75"/>
<path d="M1806 1532H1802V1508H1806V1532Z" fill="white" fill-opacity="0.75"/>
<path d="M1878 1532H1874V1508H1878V1532Z" fill="white" fill-opacity="0.75"/>
<path d="M1914 1532H1910V1508H1914V1532Z" fill="white" fill-opacity="0.75"/>
<path d="M1950 1532H1946V1508H1950V1532Z" fill="white" fill-opacity="0.75"/>
<path d="M1986 1532H1982V1508H1986V1532Z" fill="white" fill-opacity="0.75"/>
<path d="M2058 1532H2054V1508H2058V1532Z" fill="white" fill-opacity="0.75"/>
<path d="M2094 1532H2090V1508H2094V1532Z" fill="white" fill-opacity="0.75"/>
<path d="M2130 1532H2126V1508H2130V1532Z" fill="white" fill-opacity="0.75"/>
<path d="M2166 1532H2162V1508H2166V1532Z" fill="white" fill-opacity="0.75"/>
<path d="M2238 1532H2234V1508H2238V1532Z" fill="white" fill-opacity="0.75"/>
<path d="M2274 1532H2270V1508H2274V1532Z" fill="white" fill-opacity="0.75"/>
<path d="M2310 1532H2306V1508H2310V1532Z" fill="white" fill-opacity="0.75"/>
<path d="M2346 1532H2342V1508H2346V1532Z" fill="white" fill-opacity="0.75"/>
<path d="M2418 1532H2414V1508H2418V1532Z" fill="white" fill-opacity="0.75"/>
<path d="M2454 1532H2450V1508H2454V1532Z" fill="white" fill-opacity="0.75"/>
<path d="M2490 1532H2486V1508H2490V1532Z" fill="white" fill-opacity="0.75"/>
<path d="M2526 1532H2522V1508H2526V1532Z" fill="white" fill-opacity="0.75"/>
<path d="M2598 1532H2594V1508H2598V1532Z" fill="white" fill-opacity="0.75"/>
<path d="M2634 1532H2630V1508H2634V1532Z" fill="white" fill-opacity="0.75"/>
<path d="M2670 1532H2666V1508H2670V1532Z" fill="white" fill-opacity="0.75"/>
<path d="M2706 1532H2702V1508H2706V1532Z" fill="white" fill-opacity="0.75"/>
<path d="M2778 1532H2774V1508H2778V1532Z" fill="white" fill-opacity="0.75"/>
<path d="M2814 1532H2810V1508H2814V1532Z" fill="white" fill-opacity="0.75"/>
<path d="M2850 1532H2846V1508H2850V1532Z" fill="white" fill-opacity="0.75"/>
<path d="M2886 1532H2882V1508H2886V1532Z" fill="white" fill-opacity="0.75"/>
<path d="M2958 1532H2954V1508H2958V1532Z" fill="white" fill-opacity="0.75"/>
<path d="M2994 1532H2990V1508H2994V1532Z" fill="white" fill-opacity="0.75"/>
<path d="M3030 1532H3026V1508H3030V1532Z" fill="white" fill-opacity="0.75"/>
<path d="M3066 1532H3062V1508H3066V1532Z" fill="white" fill-opacity="0.75"/>
<path d="M3138 1532H3134V1508H3138V1532Z" fill="white" fill-opacity="0.75"/>
<path d="M3174 1532H3170V1508H3174V1532Z" fill="white" fill-opacity="0.75"/>
<path d="M3210 1532H3206V1508H3210V1532Z" fill="white" fill-opacity="0.75"/>
<path d="M3246 1532H3242V1508H3246V1532Z" fill="white" fill-opacity="0.75"/>
<path d="M3318 1532H3314V1508H3318V1532Z" fill="white" fill-opacity="0.75"/>
<path d="M3354 1532H3350V1508H3354V1532Z" fill="white" fill-opacity="0.75"/>
<path d="M3390 1532H3386V1508H3390V1532Z" fill="white" fill-opacity="0.75"/>
<path d="M3426 1532H3422V1508H3426V1532Z" fill="white" fill-opacity="0.75"/>
<path d="M3498 1532H3494V1508H3498V1532Z" fill="white" fill-opacity="0.75"/>
<path d="M3534 1532H3530V1508H3534V1532Z" fill="white" fill-opacity="0.75"/>
<path d="M3570 1532H3566V1508H3570V1532Z" fill="white" fill-opacity="0.75"/>
<path d="M3606 1532H3602V1508H3606V1532Z" fill="white" fill-opacity="0.75"/>
<path d="M3678 1532H3674V1508H3678V1532Z" fill="white" fill-opacity="0.75"/>
<path d="M3714 1532H3710V1508H3714V1532Z" fill="white" fill-opacity="0.75"/>
<path d="M3750 1532H3746V1508H3750V1532Z" fill="white" fill-opacity="0.75"/>
<path d="M3786 1532H3782V1508H3786V1532Z" fill="white" fill-opacity="0.75"/>
<path d="M3858 1532H3854V1508H3858V1532Z" fill="white" fill-opacity="0.75"/>
<path d="M3894 1532H3890V1508H3894V1532Z" fill="white" fill-opacity="0.75"/>
<path d="M3930 1532H3926V1508H3930V1532Z" fill="white" fill-opacity="0.75"/>
<path d="M3966 1532H3962V1508H3966V1532Z" fill="white" fill-opacity="0.75"/>
<path d="M510 1280H506V1256H510V1280Z" fill="white" fill-opacity="0.75"/>
<path d="M3894 1280H3890V1256H3894V1280Z" fill="white" fill-opacity="0.75"/>
<path d="M438 1028H434V1004H438V1028Z" fill="white" fill-opacity="0.75"/>
<path d="M474 1028H470V1004H474V1028Z" fill="white" fill-opacity="0.75"/>
<path d="M510 1028H506V1004H510V1028Z" fill="white" fill-opacity="0.75"/>
<path d="M546 1028H542V1004H546V1028Z" fill="white" fill-opacity="0.75"/>
<path d="M618 1028H614V1004H618V1028Z" fill="white" fill-opacity="0.75"/>
<path d="M654 1028H650V1004H654V1028Z" fill="white" fill-opacity="0.75"/>
<path d="M690 1028H686V1004H690V1028Z" fill="white" fill-opacity="0.75"/>
<path d="M726 1028H722V1004H726V1028Z" fill="white" fill-opacity="0.75"/>
<path d="M798 1028H794V1004H798V1028Z" fill="white" fill-opacity="0.75"/>
<path d="M834 1028H830V1004H834V1028Z" fill="white" fill-opacity="0.75"/>
<path d="M870 1028H866V1004H870V1028Z" fill="white" fill-opacity="0.75"/>
<path d="M906 1028H902V1004H906V1028Z" fill="white" fill-opacity="0.75"/>
<path d="M978 1028H974V1004H978V1028Z" fill="white" fill-opacity="0.75"/>
<path d="M1014 1028H1010V1004H1014V1028Z" fill="white" fill-opacity="0.75"/>
<path d="M1050 1028H1046V1004H1050V1028Z" fill="white" fill-opacity="0.75"/>
<path d="M1086 1028H1082V1004H1086V1028Z" fill="white" fill-opacity="0.75"/>
<path d="M1158 1028H1154V1004H1158V1028Z" fill="white" fill-opacity="0.75"/>
<path d="M1194 1028H1190V1004H1194V1028Z" fill="white" fill-opacity="0.75"/>
<path d="M1230 1028H1226V1004H1230V1028Z" fill="white" fill-opacity="0.75"/>
<path d="M1266 1028H1262V1004H1266V1028Z" fill="white" fill-opacity="0.75"/>
<path d="M1338 1028H1334V1004H1338V1028Z" fill="white" fill-opacity="0.75"/>
<path d="M1374 1028H1370V1004H1374V1028Z" fill="white" fill-opacity="0.75"/>
<path d="M1410 1028H1406V1004H1410V1028Z" fill="white" fill-opacity="0.75"/>
<path d="M1446 1028H1442V1004H1446V1028Z" fill="white" fill-opacity="0.75"/>
<path d="M1518 1028H1514V1004H1518V1028Z" fill="white" fill-opacity="0.75"/>
<path d="M1554 1028H1550V1004H1554V1028Z" fill="white" fill-opacity="0.75"/>
<path d="M1590 1028H1586V1004H1590V1028Z" fill="white" fill-opacity="0.75"/>
<path d="M1626 1028H1622V1004H1626V1028Z" fill="white" fill-opacity="0.75"/>
<path d="M1698 1028H1694V1004H1698V1028Z" fill="white" fill-opacity="0.75"/>
<path d="M1734 1028H1730V1004H1734V1028Z" fill="white" fill-opacity="0.75"/>
<path d="M1770 1028H1766V1004H1770V1028Z" fill="white" fill-opacity="0.75"/>
<path d="M1806 1028H1802V1004H1806V1028Z" fill="white" fill-opacity="0.75"/>
<path d="M1878 1028H1874V1004H1878V1028Z" fill="white" fill-opacity="0.75"/>
<path d="M1914 1028H1910V1004H1914V1028Z" fill="white" fill-opacity="0.75"/>
<path d="M1950 1028H1946V1004H1950V1028Z" fill="white" fill-opacity="0.75"/>
<path d="M1986 1028H1982V1004H1986V1028Z" fill="white" fill-opacity="0.75"/>
<path d="M2058 1028H2054V1004H2058V1028Z" fill="white" fill-opacity="0.75"/>
<path d="M2094 1028H2090V1004H2094V1028Z" fill="white" fill-opacity="0.75"/>
<path d="M2130 1028H2126V1004H2130V1028Z" fill="white" fill-opacity="0.75"/>
<path d="M2166 1028H2162V1004H2166V1028Z" fill="white" fill-opacity="0.75"/>
<path d="M2238 1028H2234V1004H2238V1028Z" fill="white" fill-opacity="0.75"/>
<path d="M2274 1028H2270V1004H2274V1028Z" fill="white" fill-opacity="0.75"/>
<path d="M2310 1028H2306V1004H2310V1028Z" fill="white" fill-opacity="0.75"/>
<path d="M2346 1028H2342V1004H2346V1028Z" fill="white" fill-opacity="0.75"/>
<path d="M2418 1028H2414V1004H2418V1028Z" fill="white" fill-opacity="0.75"/>
<path d="M2454 1028H2450V1004H2454V1028Z" fill="white" fill-opacity="0.75"/>
<path d="M2490 1028H2486V1004H2490V1028Z" fill="white" fill-opacity="0.75"/>
<path d="M2526 1028H2522V1004H2526V1028Z" fill="white" fill-opacity="0.75"/>
<path d="M2598 1028H2594V1004H2598V1028Z" fill="white" fill-opacity="0.75"/>
<path d="M2634 1028H2630V1004H2634V1028Z" fill="white" fill-opacity="0.75"/>
<path d="M2670 1028H2666V1004H2670V1028Z" fill="white" fill-opacity="0.75"/>
<path d="M2706 1028H2702V1004H2706V1028Z" fill="white" fill-opacity="0.75"/>
<path d="M2778 1028H2774V1004H2778V1028Z" fill="white" fill-opacity="0.75"/>
<path d="M2814 1028H2810V1004H2814V1028Z" fill="white" fill-opacity="0.75"/>
<path d="M2850 1028H2846V1004H2850V1028Z" fill="white" fill-opacity="0.75"/>
<path d="M2886 1028H2882V1004H2886V1028Z" fill="white" fill-opacity="0.75"/>
<path d="M2958 1028H2954V1004H2958V1028Z" fill="white" fill-opacity="0.75"/>
<path d="M2994 1028H2990V1004H2994V1028Z" fill="white" fill-opacity="0.75"/>
<path d="M3030 1028H3026V1004H3030V1028Z" fill="white" fill-opacity="0.75"/>
<path d="M3066 1028H3062V1004H3066V1028Z" fill="white" fill-opacity="0.75"/>
<path d="M3138 1028H3134V1004H3138V1028Z" fill="white" fill-opacity="0.75"/>
<path d="M3174 1028H3170V1004H3174V1028Z" fill="white" fill-opacity="0.75"/>
<path d="M3210 1028H3206V1004H3210V1028Z" fill="white" fill-opacity="0.75"/>
<path d="M3246 1028H3242V1004H3246V1028Z" fill="white" fill-opacity="0.75"/>
<path d="M3318 1028H3314V1004H3318V1028Z" fill="white" fill-opacity="0.75"/>
<path d="M3354 1028H3350V1004H3354V1028Z" fill="white" fill-opacity="0.75"/>
<path d="M3390 1028H3386V1004H3390V1028Z" fill="white" fill-opacity="0.75"/>
<path d="M3426 1028H3422V1004H3426V1028Z" fill="white" fill-opacity="0.75"/>
<path d="M3498 1028H3494V1004H3498V1028Z" fill="white" fill-opacity="0.75"/>
<path d="M3534 1028H3530V1004H3534V1028Z" fill="white" fill-opacity="0.75"/>
<path d="M3570 1028H3566V1004H3570V1028Z" fill="white" fill-opacity="0.75"/>
<path d="M3606 1028H3602V1004H3606V1028Z" fill="white" fill-opacity="0.75"/>
<path d="M3678 1028H3674V1004H3678V1028Z" fill="white" fill-opacity="0.75"/>
<path d="M3714 1028H3710V1004H3714V1028Z" fill="white" fill-opacity="0.75"/>
<path d="M3750 1028H3746V1004H3750V1028Z" fill="white" fill-opacity="0.75"/>
<path d="M3786 1028H3782V1004H3786V1028Z" fill="white" fill-opacity="0.75"/>
<path d="M3858 1028H3854V1004H3858V1028Z" fill="white" fill-opacity="0.75"/>
<path d="M3894 1028H3890V1004H3894V1028Z" fill="white" fill-opacity="0.75"/>
<path d="M3930 1028H3926V1004H3930V1028Z" fill="white" fill-opacity="0.75"/>
<path d="M3966 1028H3962V1004H3966V1028Z" fill="white" fill-opacity="0.75"/>
<path d="M1530.78 558.647C1543.26 558.647 1563.33 561.768 1563.33 575.496C1563.33 581.528 1558.45 585.688 1552.41 585.688C1550.33 585.687 1548.46 585.376 1546.69 584.752C1543.05 583.504 1540.56 580.904 1540.56 577.056C1540.56 573.936 1542.01 572.064 1545.55 570.504C1542.95 569.256 1537.96 568.84 1534.53 568.84C1524.33 568.84 1518.41 573.104 1518.41 581.32C1518.41 588.08 1523.29 592.864 1542.12 592.864V602.12C1531.41 602.12 1518.82 602.12 1518.82 613.456C1518.82 620.632 1526.31 623.96 1533.9 623.96C1537.65 623.96 1541.39 623.232 1544.09 621.88C1540.87 620.216 1539.1 618.24 1539.1 615.224C1539.1 609.296 1543.99 606.592 1549.92 606.592C1557.3 606.592 1561.57 610.752 1561.57 617.2C1561.57 631.032 1541.08 633.528 1528.81 633.528C1513.83 633.528 1496.04 629.784 1496.04 614.184C1496.05 603.784 1505.51 598.895 1516.53 597.647C1503.53 597.231 1494.8 591.72 1494.8 579.76C1494.8 563.016 1514.25 558.647 1530.78 558.647Z" fill="white" fill-opacity="0.75"/>
<path d="M2970.78 558.647C2983.26 558.648 3003.33 561.768 3003.33 575.496C3003.33 581.528 2998.45 585.687 2992.41 585.688C2990.33 585.687 2988.46 585.376 2986.69 584.752C2983.05 583.504 2980.56 580.904 2980.56 577.056C2980.56 573.936 2982.01 572.064 2985.55 570.504C2982.95 569.256 2977.96 568.84 2974.53 568.84C2964.33 568.84 2958.41 573.104 2958.41 581.32C2958.41 588.08 2963.29 592.864 2982.12 592.864V602.12C2971.41 602.12 2958.82 602.12 2958.82 613.456C2958.82 620.632 2966.31 623.96 2973.9 623.96C2977.65 623.96 2981.39 623.232 2984.09 621.88C2980.87 620.216 2979.1 618.24 2979.1 615.224C2979.1 609.296 2983.99 606.592 2989.92 606.592C2997.3 606.592 3001.57 610.752 3001.57 617.2C3001.57 631.032 2981.08 633.528 2968.81 633.528C2953.83 633.528 2936.05 629.784 2936.05 614.184C2936.05 603.784 2945.51 598.895 2956.53 597.647C2943.53 597.231 2934.8 591.72 2934.8 579.76C2934.8 563.016 2954.25 558.647 2970.78 558.647Z" fill="white" fill-opacity="0.75"/>
<path d="M1153.12 558.96C1164.46 558.96 1180.27 565.824 1186.3 565.824C1190.77 565.824 1191.4 563.328 1191.92 560H1200.75C1200.75 563.64 1200.76 573.104 1187.86 583.4C1178.6 590.784 1159.88 598.48 1159.88 612.208C1159.88 619.488 1165.81 623.336 1174.34 623.336C1178.08 623.336 1185.26 622.608 1186.92 619.592C1182.56 618.864 1180.16 616.055 1180.16 612.52C1180.16 607.32 1184.43 603.888 1190.36 603.888C1197.84 603.888 1202.73 608.568 1202.73 615.12C1202.73 629.784 1182.45 633.32 1169.14 633.32C1153.02 633.32 1136.07 628.327 1136.07 612.52C1136.07 603.472 1143.45 596.4 1152.81 592.24C1177.98 581.008 1186.4 577.992 1189.63 571.96C1185.47 575.184 1182.35 576.848 1177.04 576.848C1169.56 576.848 1161.55 575.184 1153.85 575.184C1149.8 575.184 1146.26 575.392 1146.16 579.032L1145.95 585.063H1135.24V574.248C1135.24 562.912 1143.14 558.96 1153.12 558.96Z" fill="white" fill-opacity="0.75"/>
<path d="M3313.12 558.96C3324.46 558.96 3340.27 565.824 3346.3 565.824C3350.77 565.824 3351.4 563.328 3351.92 560H3360.76C3360.76 563.64 3360.76 573.104 3347.86 583.4C3338.6 590.784 3319.88 598.48 3319.88 612.208C3319.88 619.488 3325.81 623.336 3334.34 623.336C3338.08 623.336 3345.26 622.608 3346.92 619.592C3342.56 618.864 3340.16 616.056 3340.16 612.52C3340.16 607.32 3344.43 603.888 3350.36 603.888C3357.84 603.888 3362.73 608.568 3362.73 615.12C3362.73 629.784 3342.45 633.32 3329.14 633.32C3313.02 633.32 3296.07 628.328 3296.07 612.52C3296.07 603.472 3303.45 596.4 3312.81 592.24C3337.98 581.008 3346.4 577.992 3349.63 571.96C3345.47 575.184 3342.35 576.848 3337.04 576.848C3329.56 576.848 3321.55 575.184 3313.85 575.184C3309.8 575.184 3306.26 575.392 3306.16 579.032L3305.95 585.063H3295.24V574.248C3295.24 562.912 3303.14 558.96 3313.12 558.96Z" fill="white" fill-opacity="0.75"/>
<path fill-rule="evenodd" clip-rule="evenodd" d="M710.648 558.336C740.704 558.336 745.28 580.592 745.28 597.647C745.28 616.575 737.064 633.216 710.544 633.216C684.024 633.216 675.808 616.575 675.808 597.647C675.808 580.592 680.489 558.336 710.648 558.336ZM710.544 568.944C700.664 568.944 699 578.2 699 589.848V598.896C699 615.64 700.664 622.504 710.44 622.504C720.424 622.504 721.984 615.639 721.984 598.896V589.848C721.984 578.2 720.528 568.944 710.544 568.944Z" fill="white" fill-opacity="0.75"/>
<path fill-rule="evenodd" clip-rule="evenodd" d="M1070.65 558.336C1100.7 558.336 1105.28 580.592 1105.28 597.647C1105.28 616.575 1097.06 633.216 1070.54 633.216C1044.02 633.216 1035.81 616.575 1035.81 597.647C1035.81 580.592 1040.49 558.336 1070.65 558.336ZM1070.54 568.944C1060.66 568.944 1059 578.2 1059 589.848V598.896C1059 615.64 1060.66 622.504 1070.44 622.504C1080.42 622.504 1081.98 615.639 1081.98 598.896V589.848C1081.98 578.2 1080.53 568.944 1070.54 568.944Z" fill="white" fill-opacity="0.75"/>
<path fill-rule="evenodd" clip-rule="evenodd" d="M1430.65 558.336C1460.7 558.336 1465.28 580.592 1465.28 597.647C1465.28 616.575 1457.06 633.216 1430.54 633.216C1404.02 633.216 1395.81 616.575 1395.81 597.647C1395.81 580.592 1400.49 558.336 1430.65 558.336ZM1430.54 568.944C1420.66 568.944 1419 578.2 1419 589.848V598.896C1419 615.64 1420.66 622.504 1430.44 622.504C1440.42 622.504 1441.98 615.639 1441.98 598.896V589.848C1441.98 578.2 1440.53 568.944 1430.54 568.944Z" fill="white" fill-opacity="0.75"/>
<path fill-rule="evenodd" clip-rule="evenodd" d="M1790.65 558.336C1820.7 558.336 1825.28 580.592 1825.28 597.647C1825.28 616.575 1817.06 633.216 1790.54 633.216C1764.02 633.216 1755.81 616.575 1755.81 597.647C1755.81 580.592 1760.49 558.336 1790.65 558.336ZM1790.54 568.944C1780.66 568.944 1779 578.2 1779 589.848V598.896C1779 615.64 1780.66 622.504 1790.44 622.504C1800.42 622.504 1801.98 615.639 1801.98 598.896V589.848C1801.98 578.2 1800.53 568.944 1790.54 568.944Z" fill="white" fill-opacity="0.75"/>
<path fill-rule="evenodd" clip-rule="evenodd" d="M2150.65 558.336C2180.7 558.336 2185.28 580.592 2185.28 597.647C2185.28 616.575 2177.06 633.216 2150.54 633.216C2124.02 633.216 2115.81 616.575 2115.81 597.647C2115.81 580.592 2120.49 558.336 2150.65 558.336ZM2150.54 568.944C2140.66 568.944 2139 578.2 2139 589.848V598.896C2139 615.64 2140.66 622.504 2150.44 622.504C2160.42 622.504 2161.98 615.639 2161.98 598.896V589.848C2161.98 578.2 2160.53 568.944 2150.54 568.944Z" fill="white" fill-opacity="0.75"/>
<path fill-rule="evenodd" clip-rule="evenodd" d="M2510.65 558.336C2540.7 558.336 2545.28 580.592 2545.28 597.647C2545.28 616.575 2537.06 633.216 2510.54 633.216C2484.02 633.216 2475.81 616.575 2475.81 597.647C2475.81 580.592 2480.49 558.336 2510.65 558.336ZM2510.54 568.944C2500.67 568.944 2499 578.2 2499 589.848V598.896C2499 615.639 2500.66 622.504 2510.44 622.504C2520.42 622.504 2521.98 615.64 2521.98 598.896V589.848C2521.98 578.2 2520.53 568.945 2510.54 568.944Z" fill="white" fill-opacity="0.75"/>
<path fill-rule="evenodd" clip-rule="evenodd" d="M2870.65 558.336C2900.7 558.336 2905.28 580.592 2905.28 597.647C2905.28 616.575 2897.06 633.216 2870.54 633.216C2844.02 633.216 2835.81 616.575 2835.81 597.647C2835.81 580.592 2840.49 558.336 2870.65 558.336ZM2870.54 568.944C2860.67 568.944 2859 578.2 2859 589.848V598.896C2859 615.639 2860.66 622.504 2870.44 622.504C2880.42 622.504 2881.98 615.64 2881.98 598.896V589.848C2881.98 578.2 2880.53 568.944 2870.54 568.944Z" fill="white" fill-opacity="0.75"/>
<path fill-rule="evenodd" clip-rule="evenodd" d="M3230.65 558.336C3260.7 558.336 3265.28 580.592 3265.28 597.647C3265.28 616.575 3257.06 633.216 3230.54 633.216C3204.02 633.216 3195.81 616.575 3195.81 597.647C3195.81 580.592 3200.49 558.336 3230.65 558.336ZM3230.54 568.944C3220.67 568.944 3219 578.2 3219 589.848V598.896C3219 615.639 3220.66 622.504 3230.44 622.504C3240.42 622.504 3241.98 615.64 3241.98 598.896V589.848C3241.98 578.2 3240.53 568.944 3230.54 568.944Z" fill="white" fill-opacity="0.75"/>
<path fill-rule="evenodd" clip-rule="evenodd" d="M3590.65 558.336C3620.7 558.336 3625.28 580.592 3625.28 597.647C3625.28 616.575 3617.06 633.216 3590.54 633.216C3564.02 633.216 3555.81 616.575 3555.81 597.647C3555.81 580.592 3560.49 558.336 3590.65 558.336ZM3590.54 568.944C3580.67 568.944 3579 578.2 3579 589.848V598.896C3579 615.639 3580.66 622.504 3590.44 622.504C3600.42 622.504 3601.98 615.64 3601.98 598.896V589.848C3601.98 578.2 3600.53 568.944 3590.54 568.944Z" fill="white" fill-opacity="0.75"/>
<path d="M2250.35 558.647C2262.52 558.647 2279.99 562.6 2279.99 575.288C2279.99 581.112 2275.42 585.687 2268.14 585.688C2262.52 585.687 2257.32 582.36 2257.32 577.056C2257.32 574.248 2259.3 572.064 2262.42 570.296C2259.71 569.256 2255.86 568.84 2252.33 568.84C2241.2 568.84 2235.69 576.744 2235.69 584.544C2235.69 592.136 2240.68 599.52 2251.6 599.52C2258.46 599.52 2261.06 597.544 2264.39 592.968H2276.35L2275 632.384C2264.39 631.448 2254.41 631.344 2242.66 631.344C2232.88 631.344 2223.31 631.76 2216.34 632.696C2220.5 618.552 2238.81 617.928 2252.02 617.928C2256.59 617.928 2260.34 618.032 2263.35 618.24L2264.08 603.68C2258.36 608.984 2252.12 609.816 2243.7 609.816C2224.98 609.816 2213.43 601.287 2213.43 585.688C2213.43 567.072 2229.76 558.647 2250.35 558.647Z" fill="white" fill-opacity="0.75"/>
<path d="M826.739 570.608H813.012C811.244 570.608 809.06 571.648 809.06 574.456V611.168C815.508 609.92 821.644 609.608 827.884 609.608V618.968C815.3 619.8 805.835 620.32 801.987 632.384H787.323V574.56C787.323 572.584 786.283 570.608 783.06 570.608H770.371V560H826.739V570.608Z" fill="white" fill-opacity="0.75"/>
<path fill-rule="evenodd" clip-rule="evenodd" d="M1899.7 570.608H1892.11C1888.89 570.608 1887.95 572.896 1887.95 574.768V579.24H1926.22V589.224L1885.87 632.384H1866.84V589.224H1853.01V579.24H1866.84V573.104C1866.84 570.712 1864.34 570.608 1862.58 570.608H1855.09V560H1899.7V570.608ZM1887.74 614.6L1911.35 589.224H1887.74V614.6Z" fill="white" fill-opacity="0.75"/>
<path fill-rule="evenodd" clip-rule="evenodd" d="M2619.7 570.608H2612.11C2608.89 570.608 2607.95 572.896 2607.95 574.768V579.24H2646.22V589.224L2605.87 632.384H2586.84V589.224H2573.01V579.24H2586.84V573.104C2586.84 570.712 2584.34 570.608 2582.58 570.608H2575.09V560H2619.7V570.608ZM2607.74 614.6L2631.35 589.224H2607.74V614.6Z" fill="white" fill-opacity="0.75"/>
<path d="M3706.74 570.608H3693.01C3691.24 570.608 3689.06 571.648 3689.06 574.456V611.168C3695.51 609.92 3701.64 609.608 3707.88 609.608V618.968C3695.3 619.8 3685.84 620.32 3681.99 632.384H3667.32V574.56C3667.32 572.584 3666.28 570.609 3663.06 570.608H3650.37V560H3706.74V570.608Z" fill="white" fill-opacity="0.75"/>
<path d="M657 605L621 596L657 587V605Z" fill="white" fill-opacity="0.75"/>
<path d="M1017 605L981 596L1017 587V605Z" fill="white" fill-opacity="0.75"/>
<path d="M1377 605L1341 596L1377 587V605Z" fill="white" fill-opacity="0.75"/>
<path d="M1737 605L1701 596L1737 587V605Z" fill="white" fill-opacity="0.75"/>
<path d="M2699 596L2663 605V587L2699 596Z" fill="white" fill-opacity="0.75"/>
<path d="M3058 596L3022 605V587L3058 596Z" fill="white" fill-opacity="0.75"/>
<path d="M3417 596L3381 605V587L3417 596Z" fill="white" fill-opacity="0.75"/>
<path d="M3763 596L3727 605V587L3763 596Z" fill="white" fill-opacity="0.75"/>
<path d="M438 336H434V312H438V336Z" fill="white" fill-opacity="0.75"/>
<path d="M474 336H470V312H474V336Z" fill="white" fill-opacity="0.75"/>
<path d="M510 336H506V312H510V336Z" fill="white" fill-opacity="0.75"/>
<path d="M546 336H542V312H546V336Z" fill="white" fill-opacity="0.75"/>
<path d="M618 336H614V312H618V336Z" fill="white" fill-opacity="0.75"/>
<path d="M654 336H650V312H654V336Z" fill="white" fill-opacity="0.75"/>
<path d="M690 336H686V312H690V336Z" fill="white" fill-opacity="0.75"/>
<path d="M726 336H722V312H726V336Z" fill="white" fill-opacity="0.75"/>
<path d="M798 336H794V312H798V336Z" fill="white" fill-opacity="0.75"/>
<path d="M834 336H830V312H834V336Z" fill="white" fill-opacity="0.75"/>
<path d="M870 336H866V312H870V336Z" fill="white" fill-opacity="0.75"/>
<path d="M906 336H902V312H906V336Z" fill="white" fill-opacity="0.75"/>
<path d="M978 336H974V312H978V336Z" fill="white" fill-opacity="0.75"/>
<path d="M1014 336H1010V312H1014V336Z" fill="white" fill-opacity="0.75"/>
<path d="M1050 336H1046V312H1050V336Z" fill="white" fill-opacity="0.75"/>
<path d="M1086 336H1082V312H1086V336Z" fill="white" fill-opacity="0.75"/>
<path d="M1158 336H1154V312H1158V336Z" fill="white" fill-opacity="0.75"/>
<path d="M1194 336H1190V312H1194V336Z" fill="white" fill-opacity="0.75"/>
<path d="M1230 336H1226V312H1230V336Z" fill="white" fill-opacity="0.75"/>
<path d="M1266 336H1262V312H1266V336Z" fill="white" fill-opacity="0.75"/>
<path d="M1338 336H1334V312H1338V336Z" fill="white" fill-opacity="0.75"/>
<path d="M1374 336H1370V312H1374V336Z" fill="white" fill-opacity="0.75"/>
<path d="M1410 336H1406V312H1410V336Z" fill="white" fill-opacity="0.75"/>
<path d="M1446 336H1442V312H1446V336Z" fill="white" fill-opacity="0.75"/>
<path d="M1518 336H1514V312H1518V336Z" fill="white" fill-opacity="0.75"/>
<path d="M1554 336H1550V312H1554V336Z" fill="white" fill-opacity="0.75"/>
<path d="M1590 336H1586V312H1590V336Z" fill="white" fill-opacity="0.75"/>
<path d="M1626 336H1622V312H1626V336Z" fill="white" fill-opacity="0.75"/>
<path d="M1698 336H1694V312H1698V336Z" fill="white" fill-opacity="0.75"/>
<path d="M1734 336H1730V312H1734V336Z" fill="white" fill-opacity="0.75"/>
<path d="M1770 336H1766V312H1770V336Z" fill="white" fill-opacity="0.75"/>
<path d="M1806 336H1802V312H1806V336Z" fill="white" fill-opacity="0.75"/>
<path d="M1878 336H1874V312H1878V336Z" fill="white" fill-opacity="0.75"/>
<path d="M1914 336H1910V312H1914V336Z" fill="white" fill-opacity="0.75"/>
<path d="M1950 336H1946V312H1950V336Z" fill="white" fill-opacity="0.75"/>
<path d="M1986 336H1982V312H1986V336Z" fill="white" fill-opacity="0.75"/>
<path d="M2058 336H2054V312H2058V336Z" fill="white" fill-opacity="0.75"/>
<path d="M2094 336H2090V312H2094V336Z" fill="white" fill-opacity="0.75"/>
<path d="M2130 336H2126V312H2130V336Z" fill="white" fill-opacity="0.75"/>
<path d="M2166 336H2162V312H2166V336Z" fill="white" fill-opacity="0.75"/>
<path d="M2238 336H2234V312H2238V336Z" fill="white" fill-opacity="0.75"/>
<path d="M2274 336H2270V312H2274V336Z" fill="white" fill-opacity="0.75"/>
<path d="M2310 336H2306V312H2310V336Z" fill="white" fill-opacity="0.75"/>
<path d="M2346 336H2342V312H2346V336Z" fill="white" fill-opacity="0.75"/>
<path d="M2418 336H2414V312H2418V336Z" fill="white" fill-opacity="0.75"/>
<path d="M2454 336H2450V312H2454V336Z" fill="white" fill-opacity="0.75"/>
<path d="M2490 336H2486V312H2490V336Z" fill="white" fill-opacity="0.75"/>
<path d="M2526 336H2522V312H2526V336Z" fill="white" fill-opacity="0.75"/>
<path d="M2598 336H2594V312H2598V336Z" fill="white" fill-opacity="0.75"/>
<path d="M2634 336H2630V312H2634V336Z" fill="white" fill-opacity="0.75"/>
<path d="M2670 336H2666V312H2670V336Z" fill="white" fill-opacity="0.75"/>
<path d="M2706 336H2702V312H2706V336Z" fill="white" fill-opacity="0.75"/>
<path d="M2778 336H2774V312H2778V336Z" fill="white" fill-opacity="0.75"/>
<path d="M2814 336H2810V312H2814V336Z" fill="white" fill-opacity="0.75"/>
<path d="M2850 336H2846V312H2850V336Z" fill="white" fill-opacity="0.75"/>
<path d="M2886 336H2882V312H2886V336Z" fill="white" fill-opacity="0.75"/>
<path d="M2958 336H2954V312H2958V336Z" fill="white" fill-opacity="0.75"/>
<path d="M2994 336H2990V312H2994V336Z" fill="white" fill-opacity="0.75"/>
<path d="M3030 336H3026V312H3030V336Z" fill="white" fill-opacity="0.75"/>
<path d="M3066 336H3062V312H3066V336Z" fill="white" fill-opacity="0.75"/>
<path d="M3138 336H3134V312H3138V336Z" fill="white" fill-opacity="0.75"/>
<path d="M3174 336H3170V312H3174V336Z" fill="white" fill-opacity="0.75"/>
<path d="M3210 336H3206V312H3210V336Z" fill="white" fill-opacity="0.75"/>
<path d="M3246 336H3242V312H3246V336Z" fill="white" fill-opacity="0.75"/>
<path d="M3318 336H3314V312H3318V336Z" fill="white" fill-opacity="0.75"/>
<path d="M3354 336H3350V312H3354V336Z" fill="white" fill-opacity="0.75"/>
<path d="M3390 336H3386V312H3390V336Z" fill="white" fill-opacity="0.75"/>
<path d="M3426 336H3422V312H3426V336Z" fill="white" fill-opacity="0.75"/>
<path d="M3498 336H3494V312H3498V336Z" fill="white" fill-opacity="0.75"/>
<path d="M3534 336H3530V312H3534V336Z" fill="white" fill-opacity="0.75"/>
<path d="M3570 336H3566V312H3570V336Z" fill="white" fill-opacity="0.75"/>
<path d="M3606 336H3602V312H3606V336Z" fill="white" fill-opacity="0.75"/>
<path d="M3678 336H3674V312H3678V336Z" fill="white" fill-opacity="0.75"/>
<path d="M3714 336H3710V312H3714V336Z" fill="white" fill-opacity="0.75"/>
<path d="M3750 336H3746V312H3750V336Z" fill="white" fill-opacity="0.75"/>
<path d="M3786 336H3782V312H3786V336Z" fill="white" fill-opacity="0.75"/>
<path d="M3858 336H3854V312H3858V336Z" fill="white" fill-opacity="0.75"/>
<path d="M3894 336H3890V312H3894V336Z" fill="white" fill-opacity="0.75"/>
<path d="M3930 336H3926V312H3930V336Z" fill="white" fill-opacity="0.75"/>
<path d="M3966 336H3962V312H3966V336Z" fill="white" fill-opacity="0.75"/>
<path fill-rule="evenodd" clip-rule="evenodd" d="M3282 300H4364V2236H3282V2518H1118V2236H36V300H1118V18H3282V300ZM1122 2514H3278V2374H1122V2514ZM1122 2370H3278V2302H3102V2306H3098V2302H2922V2306H2918V2302H2742V2306H2738V2302H2562V2306H2558V2302H2382V2306H2378V2302H2202V2306H2198V2302H2022V2306H2018V2302H1842V2306H1838V2302H1662V2306H1658V2302H1482V2306H1478V2302H1302V2306H1298V2302H1122V2370ZM44 2228H392V308H44V2228ZM400 2228H4000V308H400V2228ZM4008 2228H4356V308H4008V2228ZM1122 234H1298V230H1302V234H1478V230H1482V234H1658V230H1662V234H1838V230H1842V234H2018V230H2022V234H2198V230H2202V234H2378V230H2382V234H2558V230H2562V234H2738V230H2742V234H2918V230H2922V234H3098V230H3102V234H3278V166H1122V234ZM1122 162H3278V22H1122V162Z" fill="white" fill-opacity="0.75"/>
</svg>
