<svg width="4464" height="2352" viewBox="0 0 4464 2352" fill="none" xmlns="http://www.w3.org/2000/svg">
<path d="M470 2132H466V2108H470V2132Z" fill="white" fill-opacity="0.75"/>
<path d="M506 2132H502V2108H506V2132Z" fill="white" fill-opacity="0.75"/>
<path d="M542 2132H538V2108H542V2132Z" fill="white" fill-opacity="0.75"/>
<path d="M578 2132H574V2108H578V2132Z" fill="white" fill-opacity="0.75"/>
<path d="M614 932H624V936H614V1416H624V1420H614V2132H610V1420H600V1416H610V936H600V932H610V220H614V932Z" fill="white" fill-opacity="0.75"/>
<path d="M650 2132H646V2108H650V2132Z" fill="white" fill-opacity="0.75"/>
<path d="M686 2132H682V2108H686V2132Z" fill="white" fill-opacity="0.75"/>
<path d="M722 2132H718V2108H722V2132Z" fill="white" fill-opacity="0.75"/>
<path d="M758 2132H754V2108H758V2132Z" fill="white" fill-opacity="0.75"/>
<path d="M794 932H804V936H794V1416H804V1420H794V2132H790V1420H780V1416H790V936H780V932H790V220H794V932Z" fill="white" fill-opacity="0.75"/>
<path d="M830 2132H826V2108H830V2132Z" fill="white" fill-opacity="0.75"/>
<path d="M866 2132H862V2108H866V2132Z" fill="white" fill-opacity="0.75"/>
<path d="M902 2132H898V2108H902V2132Z" fill="white" fill-opacity="0.75"/>
<path d="M938 2132H934V2108H938V2132Z" fill="white" fill-opacity="0.75"/>
<path d="M974 932H984V936H974V1416H984V1420H974V2132H970V1420H960V1416H970V936H960V932H970V220H974V932Z" fill="white" fill-opacity="0.75"/>
<path d="M1010 2132H1006V2108H1010V2132Z" fill="white" fill-opacity="0.75"/>
<path d="M1046 2132H1042V2108H1046V2132Z" fill="white" fill-opacity="0.75"/>
<path d="M1082 2132H1078V2108H1082V2132Z" fill="white" fill-opacity="0.75"/>
<path d="M1118 2132H1114V2108H1118V2132Z" fill="white" fill-opacity="0.75"/>
<path d="M1154 932H1164V936H1154V1416H1164V1420H1154V2132H1150V1420H1140V1416H1150V936H1140V932H1150V220H1154V932Z" fill="white" fill-opacity="0.75"/>
<path d="M1190 2132H1186V2108H1190V2132Z" fill="white" fill-opacity="0.75"/>
<path d="M1226 2132H1222V2108H1226V2132Z" fill="white" fill-opacity="0.75"/>
<path d="M1262 2132H1258V2108H1262V2132Z" fill="white" fill-opacity="0.75"/>
<path d="M1298 2132H1294V2108H1298V2132Z" fill="white" fill-opacity="0.75"/>
<path d="M1334 932H1344V936H1334V1416H1344V1420H1334V2132H1330V1420H1320V1416H1330V936H1320V932H1330V220H1334V932Z" fill="white" fill-opacity="0.75"/>
<path d="M1370 2132H1366V2108H1370V2132Z" fill="white" fill-opacity="0.75"/>
<path d="M1406 2132H1402V2108H1406V2132Z" fill="white" fill-opacity="0.75"/>
<path d="M1442 2132H1438V2108H1442V2132Z" fill="white" fill-opacity="0.75"/>
<path d="M1478 2132H1474V2108H1478V2132Z" fill="white" fill-opacity="0.75"/>
<path d="M1514 932H1524V936H1514V1416H1524V1420H1514V2132H1510V1420H1500V1416H1510V936H1500V932H1510V220H1514V932Z" fill="white" fill-opacity="0.75"/>
<path d="M1550 2132H1546V2108H1550V2132Z" fill="white" fill-opacity="0.75"/>
<path d="M1586 2132H1582V2108H1586V2132Z" fill="white" fill-opacity="0.75"/>
<path d="M1622 2132H1618V2108H1622V2132Z" fill="white" fill-opacity="0.75"/>
<path d="M1658 2132H1654V2108H1658V2132Z" fill="white" fill-opacity="0.75"/>
<path d="M1694 932H1704V936H1694V1416H1704V1420H1694V2132H1690V1420H1680V1416H1690V936H1680V932H1690V220H1694V932Z" fill="white" fill-opacity="0.75"/>
<path d="M1730 2132H1726V2108H1730V2132Z" fill="white" fill-opacity="0.75"/>
<path d="M1766 2132H1762V2108H1766V2132Z" fill="white" fill-opacity="0.75"/>
<path d="M1802 2132H1798V2108H1802V2132Z" fill="white" fill-opacity="0.75"/>
<path d="M1838 2132H1834V2108H1838V2132Z" fill="white" fill-opacity="0.75"/>
<path d="M1874 932H1884V936H1874V1416H1884V1420H1874V2132H1870V1420H1860V1416H1870V936H1860V932H1870V220H1874V932Z" fill="white" fill-opacity="0.75"/>
<path d="M1910 2132H1906V2108H1910V2132Z" fill="white" fill-opacity="0.75"/>
<path d="M1946 2132H1942V2108H1946V2132Z" fill="white" fill-opacity="0.75"/>
<path d="M1982 2132H1978V2108H1982V2132Z" fill="white" fill-opacity="0.75"/>
<path d="M2018 2132H2014V2108H2018V2132Z" fill="white" fill-opacity="0.75"/>
<path d="M2054 932H2064V936H2054V1416H2064V1420H2054V2132H2050V1420H2040V1416H2050V936H2040V932H2050V220H2054V932Z" fill="white" fill-opacity="0.75"/>
<path d="M2090 2132H2086V2108H2090V2132Z" fill="white" fill-opacity="0.75"/>
<path d="M2126 2132H2122V2108H2126V2132Z" fill="white" fill-opacity="0.75"/>
<path d="M2162 2132H2158V2108H2162V2132Z" fill="white" fill-opacity="0.75"/>
<path d="M2198 2132H2194V2108H2198V2132Z" fill="white" fill-opacity="0.75"/>
<path d="M2234 932H2244V936H2234V1416H2244V1420H2234V2132H2230V1420H2220V1416H2230V936H2220V932H2230V220H2234V932Z" fill="white" fill-opacity="0.75"/>
<path d="M2270 2132H2266V2108H2270V2132Z" fill="white" fill-opacity="0.75"/>
<path d="M2306 2132H2302V2108H2306V2132Z" fill="white" fill-opacity="0.75"/>
<path d="M2342 2132H2338V2108H2342V2132Z" fill="white" fill-opacity="0.75"/>
<path d="M2378 2132H2374V2108H2378V2132Z" fill="white" fill-opacity="0.75"/>
<path d="M2414 932H2424V936H2414V1416H2424V1420H2414V2132H2410V1420H2400V1416H2410V936H2400V932H2410V220H2414V932Z" fill="white" fill-opacity="0.75"/>
<path d="M2450 2132H2446V2108H2450V2132Z" fill="white" fill-opacity="0.75"/>
<path d="M2486 2132H2482V2108H2486V2132Z" fill="white" fill-opacity="0.75"/>
<path d="M2522 2132H2518V2108H2522V2132Z" fill="white" fill-opacity="0.75"/>
<path d="M2558 2132H2554V2108H2558V2132Z" fill="white" fill-opacity="0.75"/>
<path d="M2594 932H2604V936H2594V1416H2604V1420H2594V2132H2590V1420H2580V1416H2590V936H2580V932H2590V220H2594V932Z" fill="white" fill-opacity="0.75"/>
<path d="M2630 2132H2626V2108H2630V2132Z" fill="white" fill-opacity="0.75"/>
<path d="M2666 2132H2662V2108H2666V2132Z" fill="white" fill-opacity="0.75"/>
<path d="M2702 2132H2698V2108H2702V2132Z" fill="white" fill-opacity="0.75"/>
<path d="M2738 2132H2734V2108H2738V2132Z" fill="white" fill-opacity="0.75"/>
<path d="M2774 932H2784V936H2774V1416H2784V1420H2774V2132H2770V1420H2760V1416H2770V936H2760V932H2770V220H2774V932Z" fill="white" fill-opacity="0.75"/>
<path d="M2810 2132H2806V2108H2810V2132Z" fill="white" fill-opacity="0.75"/>
<path d="M2846 2132H2842V2108H2846V2132Z" fill="white" fill-opacity="0.75"/>
<path d="M2882 2132H2878V2108H2882V2132Z" fill="white" fill-opacity="0.75"/>
<path d="M2918 2132H2914V2108H2918V2132Z" fill="white" fill-opacity="0.75"/>
<path d="M2954 932H2964V936H2954V1416H2964V1420H2954V2132H2950V1420H2940V1416H2950V936H2940V932H2950V220H2954V932Z" fill="white" fill-opacity="0.75"/>
<path d="M2990 2132H2986V2108H2990V2132Z" fill="white" fill-opacity="0.75"/>
<path d="M3026 2132H3022V2108H3026V2132Z" fill="white" fill-opacity="0.75"/>
<path d="M3062 2132H3058V2108H3062V2132Z" fill="white" fill-opacity="0.75"/>
<path d="M3098 2132H3094V2108H3098V2132Z" fill="white" fill-opacity="0.75"/>
<path d="M3134 932H3144V936H3134V1416H3144V1420H3134V2132H3130V1420H3120V1416H3130V936H3120V932H3130V220H3134V932Z" fill="white" fill-opacity="0.75"/>
<path d="M3170 2132H3166V2108H3170V2132Z" fill="white" fill-opacity="0.75"/>
<path d="M3206 2132H3202V2108H3206V2132Z" fill="white" fill-opacity="0.75"/>
<path d="M3242 2132H3238V2108H3242V2132Z" fill="white" fill-opacity="0.75"/>
<path d="M3278 2132H3274V2108H3278V2132Z" fill="white" fill-opacity="0.75"/>
<path d="M3314 932H3324V936H3314V1416H3324V1420H3314V2132H3310V1420H3300V1416H3310V936H3300V932H3310V220H3314V932Z" fill="white" fill-opacity="0.75"/>
<path d="M3350 2132H3346V2108H3350V2132Z" fill="white" fill-opacity="0.75"/>
<path d="M3386 2132H3382V2108H3386V2132Z" fill="white" fill-opacity="0.75"/>
<path d="M3422 2132H3418V2108H3422V2132Z" fill="white" fill-opacity="0.75"/>
<path d="M3458 2132H3454V2108H3458V2132Z" fill="white" fill-opacity="0.75"/>
<path d="M3494 932H3504V936H3494V1416H3504V1420H3494V2132H3490V1420H3480V1416H3490V936H3480V932H3490V220H3494V932Z" fill="white" fill-opacity="0.75"/>
<path d="M3530 2132H3526V2108H3530V2132Z" fill="white" fill-opacity="0.75"/>
<path d="M3566 2132H3562V2108H3566V2132Z" fill="white" fill-opacity="0.75"/>
<path d="M3602 2132H3598V2108H3602V2132Z" fill="white" fill-opacity="0.75"/>
<path d="M3638 2132H3634V2108H3638V2132Z" fill="white" fill-opacity="0.75"/>
<path d="M3674 932H3684V936H3674V1416H3684V1420H3674V2132H3670V1420H3660V1416H3670V936H3660V932H3670V220H3674V932Z" fill="white" fill-opacity="0.75"/>
<path d="M3710 2132H3706V2108H3710V2132Z" fill="white" fill-opacity="0.75"/>
<path d="M3746 2132H3742V2108H3746V2132Z" fill="white" fill-opacity="0.75"/>
<path d="M3782 2132H3778V2108H3782V2132Z" fill="white" fill-opacity="0.75"/>
<path d="M3818 2132H3814V2108H3818V2132Z" fill="white" fill-opacity="0.75"/>
<path d="M3854 932H3864V936H3854V1416H3864V1420H3854V2132H3850V1420H3840V1416H3850V936H3840V932H3850V220H3854V932Z" fill="white" fill-opacity="0.75"/>
<path d="M3890 2132H3886V2108H3890V2132Z" fill="white" fill-opacity="0.75"/>
<path d="M3926 2132H3922V2108H3926V2132Z" fill="white" fill-opacity="0.75"/>
<path d="M3962 2132H3958V2108H3962V2132Z" fill="white" fill-opacity="0.75"/>
<path d="M3998 2132H3994V2108H3998V2132Z" fill="white" fill-opacity="0.75"/>
<path fill-rule="evenodd" clip-rule="evenodd" d="M841.456 1810.78C867.976 1810.78 876.192 1827.42 876.192 1846.35C876.192 1863.41 871.511 1885.66 841.352 1885.66C811.296 1885.66 806.72 1863.41 806.72 1846.35C806.72 1827.42 814.936 1810.78 841.456 1810.78ZM841.56 1821.5C831.576 1821.5 830.016 1828.36 830.016 1845.1V1854.15C830.016 1865.8 831.472 1875.06 841.456 1875.06C851.336 1875.06 853 1865.8 853 1854.15V1845.1C853 1828.36 851.336 1821.5 841.56 1821.5Z" fill="white" fill-opacity="0.75"/>
<path fill-rule="evenodd" clip-rule="evenodd" d="M1201.46 1810.78C1227.98 1810.78 1236.19 1827.42 1236.19 1846.35C1236.19 1863.41 1231.51 1885.66 1201.35 1885.66C1171.3 1885.66 1166.72 1863.41 1166.72 1846.35C1166.72 1827.42 1174.94 1810.78 1201.46 1810.78ZM1201.56 1821.5C1191.58 1821.5 1190.02 1828.36 1190.02 1845.1V1854.15C1190.02 1865.8 1191.47 1875.06 1201.46 1875.06C1211.34 1875.06 1213 1865.8 1213 1854.15V1845.1C1213 1828.36 1211.34 1821.5 1201.56 1821.5Z" fill="white" fill-opacity="0.75"/>
<path fill-rule="evenodd" clip-rule="evenodd" d="M1561.46 1810.78C1587.98 1810.78 1596.19 1827.42 1596.19 1846.35C1596.19 1863.41 1591.51 1885.66 1561.35 1885.66C1531.3 1885.66 1526.72 1863.41 1526.72 1846.35C1526.72 1827.42 1534.94 1810.78 1561.46 1810.78ZM1561.56 1821.5C1551.58 1821.5 1550.02 1828.36 1550.02 1845.1V1854.15C1550.02 1865.8 1551.47 1875.06 1561.46 1875.06C1571.34 1875.06 1573 1865.8 1573 1854.15V1845.1C1573 1828.36 1571.34 1821.5 1561.56 1821.5Z" fill="white" fill-opacity="0.75"/>
<path fill-rule="evenodd" clip-rule="evenodd" d="M1921.46 1810.78C1947.98 1810.78 1956.19 1827.42 1956.19 1846.35C1956.19 1863.41 1951.51 1885.66 1921.35 1885.66C1891.3 1885.66 1886.72 1863.41 1886.72 1846.35C1886.72 1827.42 1894.94 1810.78 1921.46 1810.78ZM1921.56 1821.5C1911.58 1821.5 1910.02 1828.36 1910.02 1845.1V1854.15C1910.02 1865.8 1911.47 1875.06 1921.46 1875.06C1931.34 1875.06 1933 1865.8 1933 1854.15V1845.1C1933 1828.36 1931.34 1821.5 1921.56 1821.5Z" fill="white" fill-opacity="0.75"/>
<path fill-rule="evenodd" clip-rule="evenodd" d="M2281.46 1810.78C2307.98 1810.78 2316.19 1827.42 2316.19 1846.35C2316.19 1863.41 2311.51 1885.66 2281.35 1885.66C2251.3 1885.66 2246.72 1863.41 2246.72 1846.35C2246.72 1827.42 2254.94 1810.78 2281.46 1810.78ZM2281.56 1821.5C2271.58 1821.5 2270.02 1828.36 2270.02 1845.1V1854.15C2270.02 1865.8 2271.47 1875.06 2281.46 1875.06C2291.34 1875.06 2293 1865.8 2293 1854.15V1845.1C2293 1828.36 2291.34 1821.5 2281.56 1821.5Z" fill="white" fill-opacity="0.75"/>
<path fill-rule="evenodd" clip-rule="evenodd" d="M2641.46 1810.78C2667.98 1810.78 2676.19 1827.42 2676.19 1846.35C2676.19 1863.41 2671.51 1885.66 2641.35 1885.66C2611.3 1885.66 2606.72 1863.41 2606.72 1846.35C2606.72 1827.42 2614.94 1810.78 2641.46 1810.78ZM2641.56 1821.5C2631.58 1821.5 2630.02 1828.36 2630.02 1845.1V1854.15C2630.02 1865.8 2631.47 1875.06 2641.46 1875.06C2651.34 1875.06 2653 1865.8 2653 1854.15V1845.1C2653 1828.36 2651.34 1821.5 2641.56 1821.5Z" fill="white" fill-opacity="0.75"/>
<path fill-rule="evenodd" clip-rule="evenodd" d="M3001.46 1810.78C3027.98 1810.78 3036.19 1827.42 3036.19 1846.35C3036.19 1863.41 3031.51 1885.66 3001.35 1885.66C2971.3 1885.66 2966.72 1863.41 2966.72 1846.35C2966.72 1827.42 2974.94 1810.78 3001.46 1810.78ZM3001.56 1821.5C2991.58 1821.5 2990.02 1828.36 2990.02 1845.1V1854.15C2990.02 1865.8 2991.47 1875.06 3001.46 1875.06C3011.34 1875.06 3013 1865.8 3013 1854.15V1845.1C3013 1828.36 3011.34 1821.5 3001.56 1821.5Z" fill="white" fill-opacity="0.75"/>
<path fill-rule="evenodd" clip-rule="evenodd" d="M3361.46 1810.78C3387.98 1810.78 3396.19 1827.42 3396.19 1846.35C3396.19 1863.41 3391.51 1885.66 3361.35 1885.66C3331.3 1885.66 3326.72 1863.41 3326.72 1846.35C3326.72 1827.42 3334.94 1810.78 3361.46 1810.78ZM3361.56 1821.5C3351.58 1821.5 3350.02 1828.36 3350.02 1845.1V1854.15C3350.02 1865.8 3351.47 1875.06 3361.46 1875.06C3371.34 1875.06 3373 1865.8 3373 1854.15V1845.1C3373 1828.36 3371.34 1821.5 3361.56 1821.5Z" fill="white" fill-opacity="0.75"/>
<path fill-rule="evenodd" clip-rule="evenodd" d="M3721.46 1810.78C3747.98 1810.78 3756.19 1827.42 3756.19 1846.35C3756.19 1863.41 3751.51 1885.66 3721.35 1885.66C3691.3 1885.66 3686.72 1863.41 3686.72 1846.35C3686.72 1827.42 3694.94 1810.78 3721.46 1810.78ZM3721.56 1821.5C3711.58 1821.5 3710.02 1828.36 3710.02 1845.1V1854.15C3710.02 1865.8 3711.47 1875.06 3721.46 1875.06C3731.34 1875.06 3733 1865.8 3733 1854.15V1845.1C3733 1828.36 3731.34 1821.5 3721.56 1821.5Z" fill="white" fill-opacity="0.75"/>
<path d="M2215.66 1811.3C2211.5 1825.45 2193.19 1826.07 2179.98 1826.07C2175.41 1826.07 2171.66 1825.97 2168.65 1825.76L2167.92 1840.32C2173.64 1835.02 2179.88 1834.18 2188.3 1834.18C2207.02 1834.18 2218.57 1842.71 2218.57 1858.31C2218.57 1876.93 2202.24 1885.35 2181.65 1885.35C2169.48 1885.35 2152.01 1881.4 2152.01 1868.71C2152.01 1862.89 2156.58 1858.31 2163.86 1858.31C2169.48 1858.31 2174.68 1861.64 2174.68 1866.94C2174.68 1869.75 2172.7 1871.94 2169.58 1873.7C2172.29 1874.74 2176.14 1875.16 2179.67 1875.16C2190.8 1875.16 2196.31 1867.26 2196.31 1859.46C2196.31 1851.86 2191.32 1844.48 2180.4 1844.48C2173.54 1844.48 2170.94 1846.46 2167.61 1851.03H2155.65L2157 1811.62C2167.61 1812.55 2177.59 1812.66 2189.34 1812.66C2199.12 1812.66 2208.69 1812.24 2215.66 1811.3Z" fill="white" fill-opacity="0.75"/>
<path d="M1463.19 1810.47C1478.17 1810.47 1495.95 1814.22 1495.96 1829.82C1495.96 1840.22 1486.49 1845.1 1475.47 1846.35C1488.47 1846.77 1497.2 1852.28 1497.2 1864.24C1497.2 1880.98 1477.75 1885.35 1461.22 1885.35C1448.74 1885.35 1428.67 1882.23 1428.67 1868.5C1428.67 1862.47 1433.55 1858.31 1439.59 1858.31C1441.67 1858.31 1443.54 1858.62 1445.31 1859.25C1448.95 1860.5 1451.44 1863.1 1451.44 1866.94C1451.44 1870.06 1449.99 1871.94 1446.45 1873.5C1449.05 1874.74 1454.04 1875.16 1457.47 1875.16C1467.67 1875.16 1473.59 1870.9 1473.59 1862.68C1473.59 1855.92 1468.71 1851.14 1449.88 1851.14V1841.88C1460.59 1841.88 1473.18 1841.88 1473.18 1830.54C1473.18 1823.37 1465.69 1820.04 1458.1 1820.04C1454.35 1820.04 1450.61 1820.77 1447.91 1822.12C1451.13 1823.78 1452.9 1825.76 1452.9 1828.78C1452.9 1834.7 1448.01 1837.41 1442.08 1837.41C1434.7 1837.41 1430.43 1833.25 1430.43 1826.8C1430.43 1812.97 1450.92 1810.47 1463.19 1810.47Z" fill="white" fill-opacity="0.75"/>
<path d="M2903.19 1810.47C2918.17 1810.47 2935.95 1814.22 2935.95 1829.82C2935.95 1840.22 2926.49 1845.1 2915.47 1846.35C2928.47 1846.77 2937.2 1852.28 2937.2 1864.24C2937.2 1880.98 2917.75 1885.35 2901.22 1885.35C2888.74 1885.35 2868.67 1882.23 2868.67 1868.5C2868.67 1862.47 2873.55 1858.31 2879.59 1858.31C2881.67 1858.31 2883.54 1858.62 2885.31 1859.25C2888.95 1860.5 2891.44 1863.1 2891.44 1866.94C2891.44 1870.06 2889.99 1871.94 2886.45 1873.5C2889.05 1874.74 2894.04 1875.16 2897.47 1875.16C2907.67 1875.16 2913.59 1870.9 2913.59 1862.68C2913.59 1855.92 2908.71 1851.14 2889.88 1851.14V1841.88C2900.59 1841.88 2913.18 1841.88 2913.18 1830.54C2913.18 1823.37 2905.69 1820.04 2898.1 1820.04C2894.35 1820.04 2890.61 1820.77 2887.91 1822.12C2891.13 1823.78 2892.9 1825.76 2892.9 1828.78C2892.9 1834.7 2888.01 1837.41 2882.08 1837.41C2874.7 1837.41 2870.43 1833.25 2870.43 1826.8C2870.43 1812.97 2890.92 1810.47 2903.19 1810.47Z" fill="white" fill-opacity="0.75"/>
<path d="M1102.86 1810.68C1118.98 1810.68 1135.93 1815.67 1135.93 1831.48C1135.93 1840.53 1128.55 1847.6 1119.19 1851.76C1094.02 1862.99 1085.6 1866.01 1082.37 1872.04C1086.53 1868.82 1089.65 1867.15 1094.96 1867.15C1102.44 1867.15 1110.45 1868.82 1118.15 1868.82C1122.2 1868.82 1125.74 1868.61 1125.84 1864.97L1126.05 1858.94H1136.76V1869.75C1136.76 1881.09 1128.86 1885.04 1118.88 1885.04C1107.54 1885.04 1091.73 1878.18 1085.7 1878.18C1081.23 1878.18 1080.6 1880.67 1080.08 1884H1071.25C1071.25 1880.36 1071.24 1870.9 1084.14 1860.6C1093.4 1853.22 1112.12 1845.52 1112.12 1831.79C1112.12 1824.51 1106.19 1820.66 1097.66 1820.66C1093.92 1820.66 1086.74 1821.39 1085.08 1824.41C1089.44 1825.14 1091.84 1827.94 1091.84 1831.48C1091.84 1836.68 1087.57 1840.11 1081.64 1840.11C1074.16 1840.11 1069.27 1835.43 1069.27 1828.88C1069.27 1814.22 1089.55 1810.68 1102.86 1810.68Z" fill="white" fill-opacity="0.75"/>
<path d="M3262.86 1810.68C3278.98 1810.68 3295.93 1815.67 3295.93 1831.48C3295.93 1840.53 3288.55 1847.6 3279.19 1851.76C3254.02 1862.99 3245.6 1866.01 3242.37 1872.04C3246.53 1868.82 3249.65 1867.15 3254.96 1867.15C3262.45 1867.15 3270.45 1868.82 3278.15 1868.82C3282.21 1868.82 3285.74 1868.61 3285.85 1864.97L3286.05 1858.94H3296.77V1869.75C3296.77 1881.09 3288.86 1885.04 3278.88 1885.04C3267.54 1885.04 3251.73 1878.18 3245.7 1878.18C3241.23 1878.18 3240.61 1880.67 3240.09 1884H3231.25C3231.25 1880.36 3231.25 1870.9 3244.14 1860.6C3253.4 1853.22 3272.12 1845.52 3272.12 1831.79C3272.12 1824.51 3266.19 1820.66 3257.66 1820.66C3253.92 1820.66 3246.74 1821.39 3245.08 1824.41C3249.45 1825.14 3251.84 1827.94 3251.84 1831.48C3251.84 1836.68 3247.57 1840.11 3241.65 1840.11C3234.16 1840.11 3229.27 1835.43 3229.27 1828.88C3229.27 1814.22 3249.55 1810.68 3262.86 1810.68Z" fill="white" fill-opacity="0.75"/>
<path d="M764.677 1869.44C764.677 1871.42 765.717 1873.39 768.94 1873.39H781.629V1884H725.261V1873.39H738.988C740.756 1873.39 742.94 1872.35 742.94 1869.54V1832.83C736.492 1834.08 730.356 1834.39 724.116 1834.39V1825.03C736.7 1824.2 746.165 1823.68 750.013 1811.62H764.677V1869.44Z" fill="white" fill-opacity="0.75"/>
<path fill-rule="evenodd" clip-rule="evenodd" d="M1845.16 1854.78H1858.99V1864.76H1845.16V1870.9C1845.16 1873.29 1847.66 1873.39 1849.42 1873.39H1856.91V1884H1812.3V1873.39H1819.89C1823.11 1873.39 1824.05 1871.1 1824.05 1869.23V1864.76H1785.78V1854.78L1826.13 1811.62H1845.16V1854.78ZM1800.65 1854.78H1824.26V1829.4L1800.65 1854.78Z" fill="white" fill-opacity="0.75"/>
<path fill-rule="evenodd" clip-rule="evenodd" d="M2565.16 1854.78H2578.99V1864.76H2565.16V1870.9C2565.16 1873.29 2567.66 1873.39 2569.43 1873.39H2576.91V1884H2532.3V1873.39H2539.89C2543.11 1873.39 2544.05 1871.1 2544.05 1869.23V1864.76H2505.78V1854.78L2546.13 1811.62H2565.16V1854.78ZM2520.65 1854.78H2544.26V1829.4L2520.65 1854.78Z" fill="white" fill-opacity="0.75"/>
<path d="M3644.68 1869.44C3644.68 1871.42 3645.72 1873.39 3648.94 1873.39H3661.63V1884H3605.26V1873.39H3618.99C3620.76 1873.39 3622.94 1872.35 3622.94 1869.54V1832.83C3616.49 1834.08 3610.36 1834.39 3604.12 1834.39V1825.03C3616.7 1824.2 3626.17 1823.68 3630.01 1811.62H3644.68V1869.44Z" fill="white" fill-opacity="0.75"/>
<path d="M705 1857L669 1848L705 1839V1857Z" fill="white" fill-opacity="0.75"/>
<path d="M1051 1857L1015 1848L1051 1839V1857Z" fill="white" fill-opacity="0.75"/>
<path d="M1410 1857L1374 1848L1410 1839V1857Z" fill="white" fill-opacity="0.75"/>
<path d="M1769 1857L1733 1848L1769 1839V1857Z" fill="white" fill-opacity="0.75"/>
<path d="M2731 1848L2695 1857V1839L2731 1848Z" fill="white" fill-opacity="0.75"/>
<path d="M3091 1848L3055 1857V1839L3091 1848Z" fill="white" fill-opacity="0.75"/>
<path d="M3451 1848L3415 1857V1839L3451 1848Z" fill="white" fill-opacity="0.75"/>
<path d="M3811 1848L3775 1857V1839L3811 1848Z" fill="white" fill-opacity="0.75"/>
<path d="M470 1440H466V1416H470V1440Z" fill="white" fill-opacity="0.75"/>
<path d="M506 1440H502V1416H506V1440Z" fill="white" fill-opacity="0.75"/>
<path d="M542 1440H538V1416H542V1440Z" fill="white" fill-opacity="0.75"/>
<path d="M578 1440H574V1416H578V1440Z" fill="white" fill-opacity="0.75"/>
<path d="M650 1440H646V1416H650V1440Z" fill="white" fill-opacity="0.75"/>
<path d="M686 1440H682V1416H686V1440Z" fill="white" fill-opacity="0.75"/>
<path d="M722 1440H718V1416H722V1440Z" fill="white" fill-opacity="0.75"/>
<path d="M758 1440H754V1416H758V1440Z" fill="white" fill-opacity="0.75"/>
<path d="M830 1440H826V1416H830V1440Z" fill="white" fill-opacity="0.75"/>
<path d="M866 1440H862V1416H866V1440Z" fill="white" fill-opacity="0.75"/>
<path d="M902 1440H898V1416H902V1440Z" fill="white" fill-opacity="0.75"/>
<path d="M938 1440H934V1416H938V1440Z" fill="white" fill-opacity="0.75"/>
<path d="M1010 1440H1006V1416H1010V1440Z" fill="white" fill-opacity="0.75"/>
<path d="M1046 1440H1042V1416H1046V1440Z" fill="white" fill-opacity="0.75"/>
<path d="M1082 1440H1078V1416H1082V1440Z" fill="white" fill-opacity="0.75"/>
<path d="M1118 1440H1114V1416H1118V1440Z" fill="white" fill-opacity="0.75"/>
<path d="M1190 1440H1186V1416H1190V1440Z" fill="white" fill-opacity="0.75"/>
<path d="M1226 1440H1222V1416H1226V1440Z" fill="white" fill-opacity="0.75"/>
<path d="M1262 1440H1258V1416H1262V1440Z" fill="white" fill-opacity="0.75"/>
<path d="M1298 1440H1294V1416H1298V1440Z" fill="white" fill-opacity="0.75"/>
<path d="M1370 1440H1366V1416H1370V1440Z" fill="white" fill-opacity="0.75"/>
<path d="M1406 1440H1402V1416H1406V1440Z" fill="white" fill-opacity="0.75"/>
<path d="M1442 1440H1438V1416H1442V1440Z" fill="white" fill-opacity="0.75"/>
<path d="M1478 1440H1474V1416H1478V1440Z" fill="white" fill-opacity="0.75"/>
<path d="M1550 1440H1546V1416H1550V1440Z" fill="white" fill-opacity="0.75"/>
<path d="M1586 1440H1582V1416H1586V1440Z" fill="white" fill-opacity="0.75"/>
<path d="M1622 1440H1618V1416H1622V1440Z" fill="white" fill-opacity="0.75"/>
<path d="M1658 1440H1654V1416H1658V1440Z" fill="white" fill-opacity="0.75"/>
<path d="M1730 1440H1726V1416H1730V1440Z" fill="white" fill-opacity="0.75"/>
<path d="M1766 1440H1762V1416H1766V1440Z" fill="white" fill-opacity="0.75"/>
<path d="M1802 1440H1798V1416H1802V1440Z" fill="white" fill-opacity="0.75"/>
<path d="M1838 1440H1834V1416H1838V1440Z" fill="white" fill-opacity="0.75"/>
<path d="M1910 1440H1906V1416H1910V1440Z" fill="white" fill-opacity="0.75"/>
<path d="M1946 1440H1942V1416H1946V1440Z" fill="white" fill-opacity="0.75"/>
<path d="M1982 1440H1978V1416H1982V1440Z" fill="white" fill-opacity="0.75"/>
<path d="M2018 1440H2014V1416H2018V1440Z" fill="white" fill-opacity="0.75"/>
<path d="M2090 1440H2086V1416H2090V1440Z" fill="white" fill-opacity="0.75"/>
<path d="M2126 1440H2122V1416H2126V1440Z" fill="white" fill-opacity="0.75"/>
<path d="M2162 1440H2158V1416H2162V1440Z" fill="white" fill-opacity="0.75"/>
<path d="M2198 1440H2194V1416H2198V1440Z" fill="white" fill-opacity="0.75"/>
<path d="M2270 1440H2266V1416H2270V1440Z" fill="white" fill-opacity="0.75"/>
<path d="M2306 1440H2302V1416H2306V1440Z" fill="white" fill-opacity="0.75"/>
<path d="M2342 1440H2338V1416H2342V1440Z" fill="white" fill-opacity="0.75"/>
<path d="M2378 1440H2374V1416H2378V1440Z" fill="white" fill-opacity="0.75"/>
<path d="M2450 1440H2446V1416H2450V1440Z" fill="white" fill-opacity="0.75"/>
<path d="M2486 1440H2482V1416H2486V1440Z" fill="white" fill-opacity="0.75"/>
<path d="M2522 1440H2518V1416H2522V1440Z" fill="white" fill-opacity="0.75"/>
<path d="M2558 1440H2554V1416H2558V1440Z" fill="white" fill-opacity="0.75"/>
<path d="M2630 1440H2626V1416H2630V1440Z" fill="white" fill-opacity="0.75"/>
<path d="M2666 1440H2662V1416H2666V1440Z" fill="white" fill-opacity="0.75"/>
<path d="M2702 1440H2698V1416H2702V1440Z" fill="white" fill-opacity="0.75"/>
<path d="M2738 1440H2734V1416H2738V1440Z" fill="white" fill-opacity="0.75"/>
<path d="M2810 1440H2806V1416H2810V1440Z" fill="white" fill-opacity="0.75"/>
<path d="M2846 1440H2842V1416H2846V1440Z" fill="white" fill-opacity="0.75"/>
<path d="M2882 1440H2878V1416H2882V1440Z" fill="white" fill-opacity="0.75"/>
<path d="M2918 1440H2914V1416H2918V1440Z" fill="white" fill-opacity="0.75"/>
<path d="M2990 1440H2986V1416H2990V1440Z" fill="white" fill-opacity="0.75"/>
<path d="M3026 1440H3022V1416H3026V1440Z" fill="white" fill-opacity="0.75"/>
<path d="M3062 1440H3058V1416H3062V1440Z" fill="white" fill-opacity="0.75"/>
<path d="M3098 1440H3094V1416H3098V1440Z" fill="white" fill-opacity="0.75"/>
<path d="M3170 1440H3166V1416H3170V1440Z" fill="white" fill-opacity="0.75"/>
<path d="M3206 1440H3202V1416H3206V1440Z" fill="white" fill-opacity="0.75"/>
<path d="M3242 1440H3238V1416H3242V1440Z" fill="white" fill-opacity="0.75"/>
<path d="M3278 1440H3274V1416H3278V1440Z" fill="white" fill-opacity="0.75"/>
<path d="M3350 1440H3346V1416H3350V1440Z" fill="white" fill-opacity="0.75"/>
<path d="M3386 1440H3382V1416H3386V1440Z" fill="white" fill-opacity="0.75"/>
<path d="M3422 1440H3418V1416H3422V1440Z" fill="white" fill-opacity="0.75"/>
<path d="M3458 1440H3454V1416H3458V1440Z" fill="white" fill-opacity="0.75"/>
<path d="M3530 1440H3526V1416H3530V1440Z" fill="white" fill-opacity="0.75"/>
<path d="M3566 1440H3562V1416H3566V1440Z" fill="white" fill-opacity="0.75"/>
<path d="M3602 1440H3598V1416H3602V1440Z" fill="white" fill-opacity="0.75"/>
<path d="M3638 1440H3634V1416H3638V1440Z" fill="white" fill-opacity="0.75"/>
<path d="M3710 1440H3706V1416H3710V1440Z" fill="white" fill-opacity="0.75"/>
<path d="M3746 1440H3742V1416H3746V1440Z" fill="white" fill-opacity="0.75"/>
<path d="M3782 1440H3778V1416H3782V1440Z" fill="white" fill-opacity="0.75"/>
<path d="M3818 1440H3814V1416H3818V1440Z" fill="white" fill-opacity="0.75"/>
<path d="M3890 1440H3886V1416H3890V1440Z" fill="white" fill-opacity="0.75"/>
<path d="M3926 1440H3922V1416H3926V1440Z" fill="white" fill-opacity="0.75"/>
<path d="M3962 1440H3958V1416H3962V1440Z" fill="white" fill-opacity="0.75"/>
<path d="M3998 1440H3994V1416H3998V1440Z" fill="white" fill-opacity="0.75"/>
<path d="M542 1188H538V1164H542V1188Z" fill="white" fill-opacity="0.75"/>
<path d="M3926 1188H3922V1164H3926V1188Z" fill="white" fill-opacity="0.75"/>
<path d="M470 936H466V912H470V936Z" fill="white" fill-opacity="0.75"/>
<path d="M506 936H502V912H506V936Z" fill="white" fill-opacity="0.75"/>
<path d="M542 936H538V912H542V936Z" fill="white" fill-opacity="0.75"/>
<path d="M578 936H574V912H578V936Z" fill="white" fill-opacity="0.75"/>
<path d="M650 936H646V912H650V936Z" fill="white" fill-opacity="0.75"/>
<path d="M686 936H682V912H686V936Z" fill="white" fill-opacity="0.75"/>
<path d="M722 936H718V912H722V936Z" fill="white" fill-opacity="0.75"/>
<path d="M758 936H754V912H758V936Z" fill="white" fill-opacity="0.75"/>
<path d="M830 936H826V912H830V936Z" fill="white" fill-opacity="0.75"/>
<path d="M866 936H862V912H866V936Z" fill="white" fill-opacity="0.75"/>
<path d="M902 936H898V912H902V936Z" fill="white" fill-opacity="0.75"/>
<path d="M938 936H934V912H938V936Z" fill="white" fill-opacity="0.75"/>
<path d="M1010 936H1006V912H1010V936Z" fill="white" fill-opacity="0.75"/>
<path d="M1046 936H1042V912H1046V936Z" fill="white" fill-opacity="0.75"/>
<path d="M1082 936H1078V912H1082V936Z" fill="white" fill-opacity="0.75"/>
<path d="M1118 936H1114V912H1118V936Z" fill="white" fill-opacity="0.75"/>
<path d="M1190 936H1186V912H1190V936Z" fill="white" fill-opacity="0.75"/>
<path d="M1226 936H1222V912H1226V936Z" fill="white" fill-opacity="0.75"/>
<path d="M1262 936H1258V912H1262V936Z" fill="white" fill-opacity="0.75"/>
<path d="M1298 936H1294V912H1298V936Z" fill="white" fill-opacity="0.75"/>
<path d="M1370 936H1366V912H1370V936Z" fill="white" fill-opacity="0.75"/>
<path d="M1406 936H1402V912H1406V936Z" fill="white" fill-opacity="0.75"/>
<path d="M1442 936H1438V912H1442V936Z" fill="white" fill-opacity="0.75"/>
<path d="M1478 936H1474V912H1478V936Z" fill="white" fill-opacity="0.75"/>
<path d="M1550 936H1546V912H1550V936Z" fill="white" fill-opacity="0.75"/>
<path d="M1586 936H1582V912H1586V936Z" fill="white" fill-opacity="0.75"/>
<path d="M1622 936H1618V912H1622V936Z" fill="white" fill-opacity="0.75"/>
<path d="M1658 936H1654V912H1658V936Z" fill="white" fill-opacity="0.75"/>
<path d="M1730 936H1726V912H1730V936Z" fill="white" fill-opacity="0.75"/>
<path d="M1766 936H1762V912H1766V936Z" fill="white" fill-opacity="0.75"/>
<path d="M1802 936H1798V912H1802V936Z" fill="white" fill-opacity="0.75"/>
<path d="M1838 936H1834V912H1838V936Z" fill="white" fill-opacity="0.75"/>
<path d="M1910 936H1906V912H1910V936Z" fill="white" fill-opacity="0.75"/>
<path d="M1946 936H1942V912H1946V936Z" fill="white" fill-opacity="0.75"/>
<path d="M1982 936H1978V912H1982V936Z" fill="white" fill-opacity="0.75"/>
<path d="M2018 936H2014V912H2018V936Z" fill="white" fill-opacity="0.75"/>
<path d="M2090 936H2086V912H2090V936Z" fill="white" fill-opacity="0.75"/>
<path d="M2126 936H2122V912H2126V936Z" fill="white" fill-opacity="0.75"/>
<path d="M2162 936H2158V912H2162V936Z" fill="white" fill-opacity="0.75"/>
<path d="M2198 936H2194V912H2198V936Z" fill="white" fill-opacity="0.75"/>
<path d="M2270 936H2266V912H2270V936Z" fill="white" fill-opacity="0.75"/>
<path d="M2306 936H2302V912H2306V936Z" fill="white" fill-opacity="0.75"/>
<path d="M2342 936H2338V912H2342V936Z" fill="white" fill-opacity="0.75"/>
<path d="M2378 936H2374V912H2378V936Z" fill="white" fill-opacity="0.75"/>
<path d="M2450 936H2446V912H2450V936Z" fill="white" fill-opacity="0.75"/>
<path d="M2486 936H2482V912H2486V936Z" fill="white" fill-opacity="0.75"/>
<path d="M2522 936H2518V912H2522V936Z" fill="white" fill-opacity="0.75"/>
<path d="M2558 936H2554V912H2558V936Z" fill="white" fill-opacity="0.75"/>
<path d="M2630 936H2626V912H2630V936Z" fill="white" fill-opacity="0.75"/>
<path d="M2666 936H2662V912H2666V936Z" fill="white" fill-opacity="0.75"/>
<path d="M2702 936H2698V912H2702V936Z" fill="white" fill-opacity="0.75"/>
<path d="M2738 936H2734V912H2738V936Z" fill="white" fill-opacity="0.75"/>
<path d="M2810 936H2806V912H2810V936Z" fill="white" fill-opacity="0.75"/>
<path d="M2846 936H2842V912H2846V936Z" fill="white" fill-opacity="0.75"/>
<path d="M2882 936H2878V912H2882V936Z" fill="white" fill-opacity="0.75"/>
<path d="M2918 936H2914V912H2918V936Z" fill="white" fill-opacity="0.75"/>
<path d="M2990 936H2986V912H2990V936Z" fill="white" fill-opacity="0.75"/>
<path d="M3026 936H3022V912H3026V936Z" fill="white" fill-opacity="0.75"/>
<path d="M3062 936H3058V912H3062V936Z" fill="white" fill-opacity="0.75"/>
<path d="M3098 936H3094V912H3098V936Z" fill="white" fill-opacity="0.75"/>
<path d="M3170 936H3166V912H3170V936Z" fill="white" fill-opacity="0.75"/>
<path d="M3206 936H3202V912H3206V936Z" fill="white" fill-opacity="0.75"/>
<path d="M3242 936H3238V912H3242V936Z" fill="white" fill-opacity="0.75"/>
<path d="M3278 936H3274V912H3278V936Z" fill="white" fill-opacity="0.75"/>
<path d="M3350 936H3346V912H3350V936Z" fill="white" fill-opacity="0.75"/>
<path d="M3386 936H3382V912H3386V936Z" fill="white" fill-opacity="0.75"/>
<path d="M3422 936H3418V912H3422V936Z" fill="white" fill-opacity="0.75"/>
<path d="M3458 936H3454V912H3458V936Z" fill="white" fill-opacity="0.75"/>
<path d="M3530 936H3526V912H3530V936Z" fill="white" fill-opacity="0.75"/>
<path d="M3566 936H3562V912H3566V936Z" fill="white" fill-opacity="0.75"/>
<path d="M3602 936H3598V912H3602V936Z" fill="white" fill-opacity="0.75"/>
<path d="M3638 936H3634V912H3638V936Z" fill="white" fill-opacity="0.75"/>
<path d="M3710 936H3706V912H3710V936Z" fill="white" fill-opacity="0.75"/>
<path d="M3746 936H3742V912H3746V936Z" fill="white" fill-opacity="0.75"/>
<path d="M3782 936H3778V912H3782V936Z" fill="white" fill-opacity="0.75"/>
<path d="M3818 936H3814V912H3818V936Z" fill="white" fill-opacity="0.75"/>
<path d="M3890 936H3886V912H3890V936Z" fill="white" fill-opacity="0.75"/>
<path d="M3926 936H3922V912H3926V936Z" fill="white" fill-opacity="0.75"/>
<path d="M3962 936H3958V912H3962V936Z" fill="white" fill-opacity="0.75"/>
<path d="M3998 936H3994V912H3998V936Z" fill="white" fill-opacity="0.75"/>
<path d="M1562.78 466.647C1575.26 466.647 1595.33 469.768 1595.33 483.496C1595.33 489.528 1590.45 493.688 1584.41 493.688C1582.33 493.687 1580.46 493.376 1578.69 492.752C1575.05 491.504 1572.56 488.904 1572.56 485.056C1572.56 481.936 1574.01 480.064 1577.55 478.504C1574.95 477.256 1569.96 476.84 1566.53 476.84C1556.33 476.84 1550.41 481.104 1550.41 489.32C1550.41 496.08 1555.29 500.864 1574.12 500.864V510.12C1563.41 510.12 1550.82 510.12 1550.82 521.456C1550.82 528.632 1558.31 531.96 1565.9 531.96C1569.65 531.96 1573.39 531.232 1576.09 529.88C1572.87 528.216 1571.1 526.24 1571.1 523.224C1571.1 517.296 1575.99 514.592 1581.92 514.592C1589.3 514.592 1593.57 518.752 1593.57 525.2C1593.57 539.032 1573.08 541.528 1560.81 541.528C1545.83 541.528 1528.04 537.784 1528.04 522.184C1528.05 511.784 1537.51 506.895 1548.53 505.647C1535.53 505.231 1526.8 499.72 1526.8 487.76C1526.8 471.016 1546.25 466.647 1562.78 466.647Z" fill="white" fill-opacity="0.75"/>
<path d="M3002.78 466.647C3015.26 466.648 3035.33 469.768 3035.33 483.496C3035.33 489.528 3030.45 493.687 3024.41 493.688C3022.33 493.687 3020.46 493.376 3018.69 492.752C3015.05 491.504 3012.56 488.904 3012.56 485.056C3012.56 481.936 3014.01 480.064 3017.55 478.504C3014.95 477.256 3009.96 476.84 3006.53 476.84C2996.33 476.84 2990.41 481.104 2990.41 489.32C2990.41 496.08 2995.29 500.864 3014.12 500.864V510.12C3003.41 510.12 2990.82 510.12 2990.82 521.456C2990.82 528.632 2998.31 531.96 3005.9 531.96C3009.65 531.96 3013.39 531.232 3016.09 529.88C3012.87 528.216 3011.1 526.24 3011.1 523.224C3011.1 517.296 3015.99 514.592 3021.92 514.592C3029.3 514.592 3033.57 518.752 3033.57 525.2C3033.57 539.032 3013.08 541.528 3000.81 541.528C2985.83 541.528 2968.05 537.784 2968.05 522.184C2968.05 511.784 2977.51 506.895 2988.53 505.647C2975.53 505.231 2966.8 499.72 2966.8 487.76C2966.8 471.016 2986.25 466.647 3002.78 466.647Z" fill="white" fill-opacity="0.75"/>
<path d="M1185.12 466.96C1196.46 466.96 1212.27 473.824 1218.3 473.824C1222.77 473.824 1223.4 471.328 1223.92 468H1232.75C1232.75 471.64 1232.76 481.104 1219.86 491.4C1210.6 498.784 1191.88 506.48 1191.88 520.208C1191.88 527.488 1197.81 531.336 1206.34 531.336C1210.08 531.336 1217.26 530.608 1218.92 527.592C1214.56 526.864 1212.16 524.055 1212.16 520.52C1212.16 515.32 1216.43 511.888 1222.36 511.888C1229.84 511.888 1234.73 516.568 1234.73 523.12C1234.73 537.784 1214.45 541.32 1201.14 541.32C1185.02 541.32 1168.07 536.327 1168.07 520.52C1168.07 511.472 1175.45 504.4 1184.81 500.24C1209.98 489.008 1218.4 485.992 1221.63 479.96C1217.47 483.184 1214.35 484.848 1209.04 484.848C1201.56 484.848 1193.55 483.184 1185.85 483.184C1181.8 483.184 1178.26 483.392 1178.16 487.032L1177.95 493.063H1167.24V482.248C1167.24 470.912 1175.14 466.96 1185.12 466.96Z" fill="white" fill-opacity="0.75"/>
<path d="M3345.12 466.96C3356.46 466.96 3372.27 473.824 3378.3 473.824C3382.77 473.824 3383.4 471.328 3383.92 468H3392.76C3392.76 471.64 3392.76 481.104 3379.86 491.4C3370.6 498.784 3351.88 506.48 3351.88 520.208C3351.88 527.488 3357.81 531.336 3366.34 531.336C3370.08 531.336 3377.26 530.608 3378.92 527.592C3374.56 526.864 3372.16 524.056 3372.16 520.52C3372.16 515.32 3376.43 511.888 3382.36 511.888C3389.84 511.888 3394.73 516.568 3394.73 523.12C3394.73 537.784 3374.45 541.32 3361.14 541.32C3345.02 541.32 3328.07 536.328 3328.07 520.52C3328.07 511.472 3335.45 504.4 3344.81 500.24C3369.98 489.008 3378.4 485.992 3381.63 479.96C3377.47 483.184 3374.35 484.848 3369.04 484.848C3361.56 484.848 3353.55 483.184 3345.85 483.184C3341.8 483.184 3338.26 483.392 3338.16 487.032L3337.95 493.063H3327.24V482.248C3327.24 470.912 3335.14 466.96 3345.12 466.96Z" fill="white" fill-opacity="0.75"/>
<path fill-rule="evenodd" clip-rule="evenodd" d="M742.648 466.336C772.704 466.336 777.28 488.592 777.28 505.647C777.28 524.575 769.064 541.216 742.544 541.216C716.024 541.216 707.808 524.575 707.808 505.647C707.808 488.592 712.489 466.336 742.648 466.336ZM742.544 476.944C732.664 476.944 731 486.2 731 497.848V506.896C731 523.64 732.664 530.504 742.44 530.504C752.424 530.504 753.984 523.639 753.984 506.896V497.848C753.984 486.2 752.528 476.944 742.544 476.944Z" fill="white" fill-opacity="0.75"/>
<path fill-rule="evenodd" clip-rule="evenodd" d="M1102.65 466.336C1132.7 466.336 1137.28 488.592 1137.28 505.647C1137.28 524.575 1129.06 541.216 1102.54 541.216C1076.02 541.216 1067.81 524.575 1067.81 505.647C1067.81 488.592 1072.49 466.336 1102.65 466.336ZM1102.54 476.944C1092.66 476.944 1091 486.2 1091 497.848V506.896C1091 523.64 1092.66 530.504 1102.44 530.504C1112.42 530.504 1113.98 523.639 1113.98 506.896V497.848C1113.98 486.2 1112.53 476.944 1102.54 476.944Z" fill="white" fill-opacity="0.75"/>
<path fill-rule="evenodd" clip-rule="evenodd" d="M1462.65 466.336C1492.7 466.336 1497.28 488.592 1497.28 505.647C1497.28 524.575 1489.06 541.216 1462.54 541.216C1436.02 541.216 1427.81 524.575 1427.81 505.647C1427.81 488.592 1432.49 466.336 1462.65 466.336ZM1462.54 476.944C1452.66 476.944 1451 486.2 1451 497.848V506.896C1451 523.64 1452.66 530.504 1462.44 530.504C1472.42 530.504 1473.98 523.639 1473.98 506.896V497.848C1473.98 486.2 1472.53 476.944 1462.54 476.944Z" fill="white" fill-opacity="0.75"/>
<path fill-rule="evenodd" clip-rule="evenodd" d="M1822.65 466.336C1852.7 466.336 1857.28 488.592 1857.28 505.647C1857.28 524.575 1849.06 541.216 1822.54 541.216C1796.02 541.216 1787.81 524.575 1787.81 505.647C1787.81 488.592 1792.49 466.336 1822.65 466.336ZM1822.54 476.944C1812.66 476.944 1811 486.2 1811 497.848V506.896C1811 523.64 1812.66 530.504 1822.44 530.504C1832.42 530.504 1833.98 523.639 1833.98 506.896V497.848C1833.98 486.2 1832.53 476.944 1822.54 476.944Z" fill="white" fill-opacity="0.75"/>
<path fill-rule="evenodd" clip-rule="evenodd" d="M2182.65 466.336C2212.7 466.336 2217.28 488.592 2217.28 505.647C2217.28 524.575 2209.06 541.216 2182.54 541.216C2156.02 541.216 2147.81 524.575 2147.81 505.647C2147.81 488.592 2152.49 466.336 2182.65 466.336ZM2182.54 476.944C2172.67 476.944 2171 486.2 2171 497.848V506.896C2171 523.639 2172.66 530.504 2182.44 530.504C2192.42 530.504 2193.98 523.64 2193.98 506.896V497.848C2193.98 486.2 2192.53 476.945 2182.54 476.944Z" fill="white" fill-opacity="0.75"/>
<path fill-rule="evenodd" clip-rule="evenodd" d="M2542.65 466.336C2572.7 466.336 2577.28 488.592 2577.28 505.647C2577.28 524.575 2569.06 541.216 2542.54 541.216C2516.02 541.216 2507.81 524.575 2507.81 505.647C2507.81 488.592 2512.49 466.336 2542.65 466.336ZM2542.54 476.944C2532.67 476.944 2531 486.2 2531 497.848V506.896C2531 523.639 2532.66 530.504 2542.44 530.504C2552.42 530.504 2553.98 523.64 2553.98 506.896V497.848C2553.98 486.2 2552.53 476.945 2542.54 476.944Z" fill="white" fill-opacity="0.75"/>
<path fill-rule="evenodd" clip-rule="evenodd" d="M2902.65 466.336C2932.7 466.336 2937.28 488.592 2937.28 505.647C2937.28 524.575 2929.06 541.216 2902.54 541.216C2876.02 541.216 2867.81 524.575 2867.81 505.647C2867.81 488.592 2872.49 466.336 2902.65 466.336ZM2902.54 476.944C2892.67 476.944 2891 486.2 2891 497.848V506.896C2891 523.639 2892.66 530.504 2902.44 530.504C2912.42 530.504 2913.98 523.64 2913.98 506.896V497.848C2913.98 486.2 2912.53 476.945 2902.54 476.944Z" fill="white" fill-opacity="0.75"/>
<path fill-rule="evenodd" clip-rule="evenodd" d="M3262.65 466.336C3292.7 466.336 3297.28 488.592 3297.28 505.647C3297.28 524.575 3289.06 541.216 3262.54 541.216C3236.02 541.216 3227.81 524.575 3227.81 505.647C3227.81 488.592 3232.49 466.336 3262.65 466.336ZM3262.54 476.944C3252.67 476.944 3251 486.2 3251 497.848V506.896C3251 523.639 3252.66 530.504 3262.44 530.504C3272.42 530.504 3273.98 523.64 3273.98 506.896V497.848C3273.98 486.2 3272.53 476.945 3262.54 476.944Z" fill="white" fill-opacity="0.75"/>
<path fill-rule="evenodd" clip-rule="evenodd" d="M3622.65 466.336C3652.7 466.336 3657.28 488.592 3657.28 505.647C3657.28 524.575 3649.06 541.216 3622.54 541.216C3596.02 541.216 3587.81 524.575 3587.81 505.647C3587.81 488.592 3592.49 466.336 3622.65 466.336ZM3622.54 476.944C3612.67 476.944 3611 486.2 3611 497.848V506.896C3611 523.639 3612.66 530.504 3622.44 530.504C3632.42 530.504 3633.98 523.64 3633.98 506.896V497.848C3633.98 486.2 3632.53 476.945 3622.54 476.944Z" fill="white" fill-opacity="0.75"/>
<path d="M2282.35 466.647C2294.52 466.647 2311.99 470.6 2311.99 483.288C2311.99 489.112 2307.42 493.688 2300.14 493.688C2294.52 493.687 2289.32 490.36 2289.32 485.056C2289.32 482.248 2291.3 480.064 2294.42 478.296C2291.71 477.256 2287.86 476.84 2284.33 476.84C2273.2 476.84 2267.69 484.744 2267.69 492.544C2267.69 500.136 2272.68 507.519 2283.6 507.52C2290.46 507.52 2293.06 505.544 2296.39 500.968H2308.35L2307 540.384C2296.39 539.448 2286.41 539.344 2274.66 539.344C2264.88 539.344 2255.31 539.76 2248.34 540.696C2252.5 526.552 2270.81 525.928 2284.02 525.928C2288.59 525.928 2292.34 526.032 2295.35 526.24L2296.08 511.68C2290.36 516.984 2284.12 517.816 2275.7 517.816C2256.98 517.816 2245.43 509.288 2245.43 493.688C2245.43 475.072 2261.76 466.648 2282.35 466.647Z" fill="white" fill-opacity="0.75"/>
<path d="M858.739 478.608H845.012C843.244 478.608 841.06 479.648 841.06 482.456V519.168C847.508 517.92 853.644 517.608 859.884 517.608V526.968C847.3 527.8 837.835 528.32 833.987 540.384H819.323V482.56C819.323 480.584 818.283 478.608 815.06 478.608H802.371V468H858.739V478.608Z" fill="white" fill-opacity="0.75"/>
<path fill-rule="evenodd" clip-rule="evenodd" d="M1931.7 478.608H1924.11C1920.89 478.608 1919.95 480.896 1919.95 482.768V487.24H1958.22V497.224L1917.87 540.384H1898.84V497.224H1885.01V487.24H1898.84V481.104C1898.84 478.712 1896.34 478.608 1894.58 478.608H1887.09V468H1931.7V478.608ZM1919.74 522.6L1943.35 497.224H1919.74V522.6Z" fill="white" fill-opacity="0.75"/>
<path fill-rule="evenodd" clip-rule="evenodd" d="M2651.7 478.608H2644.11C2640.89 478.608 2639.95 480.896 2639.95 482.768V487.24H2678.22V497.224L2637.87 540.384H2618.84V497.224H2605.01V487.24H2618.84V481.104C2618.84 478.712 2616.34 478.608 2614.58 478.608H2607.09V468H2651.7V478.608ZM2639.74 522.6L2663.35 497.224H2639.74V522.6Z" fill="white" fill-opacity="0.75"/>
<path d="M3738.74 478.608H3725.01C3723.24 478.609 3721.06 479.648 3721.06 482.456V519.168C3727.51 517.92 3733.64 517.608 3739.88 517.608V526.968C3727.3 527.8 3717.84 528.32 3713.99 540.384H3699.32V482.56C3699.32 480.584 3698.28 478.609 3695.06 478.608H3682.37V468H3738.74V478.608Z" fill="white" fill-opacity="0.75"/>
<path d="M689 513L653 504L689 495V513Z" fill="white" fill-opacity="0.75"/>
<path d="M1049 513L1013 504L1049 495V513Z" fill="white" fill-opacity="0.75"/>
<path d="M1409 513L1373 504L1409 495V513Z" fill="white" fill-opacity="0.75"/>
<path d="M1769 513L1733 504L1769 495V513Z" fill="white" fill-opacity="0.75"/>
<path d="M2731 504L2695 513V495L2731 504Z" fill="white" fill-opacity="0.75"/>
<path d="M3090 504L3054 513V495L3090 504Z" fill="white" fill-opacity="0.75"/>
<path d="M3449 504L3413 513V495L3449 504Z" fill="white" fill-opacity="0.75"/>
<path d="M3795 504L3759 513V495L3795 504Z" fill="white" fill-opacity="0.75"/>
<path d="M470 244H466V220H470V244Z" fill="white" fill-opacity="0.75"/>
<path d="M506 244H502V220H506V244Z" fill="white" fill-opacity="0.75"/>
<path d="M542 244H538V220H542V244Z" fill="white" fill-opacity="0.75"/>
<path d="M578 244H574V220H578V244Z" fill="white" fill-opacity="0.75"/>
<path d="M650 244H646V220H650V244Z" fill="white" fill-opacity="0.75"/>
<path d="M686 244H682V220H686V244Z" fill="white" fill-opacity="0.75"/>
<path d="M722 244H718V220H722V244Z" fill="white" fill-opacity="0.75"/>
<path d="M758 244H754V220H758V244Z" fill="white" fill-opacity="0.75"/>
<path d="M830 244H826V220H830V244Z" fill="white" fill-opacity="0.75"/>
<path d="M866 244H862V220H866V244Z" fill="white" fill-opacity="0.75"/>
<path d="M902 244H898V220H902V244Z" fill="white" fill-opacity="0.75"/>
<path d="M938 244H934V220H938V244Z" fill="white" fill-opacity="0.75"/>
<path d="M1010 244H1006V220H1010V244Z" fill="white" fill-opacity="0.75"/>
<path d="M1046 244H1042V220H1046V244Z" fill="white" fill-opacity="0.75"/>
<path d="M1082 244H1078V220H1082V244Z" fill="white" fill-opacity="0.75"/>
<path d="M1118 244H1114V220H1118V244Z" fill="white" fill-opacity="0.75"/>
<path d="M1190 244H1186V220H1190V244Z" fill="white" fill-opacity="0.75"/>
<path d="M1226 244H1222V220H1226V244Z" fill="white" fill-opacity="0.75"/>
<path d="M1262 244H1258V220H1262V244Z" fill="white" fill-opacity="0.75"/>
<path d="M1298 244H1294V220H1298V244Z" fill="white" fill-opacity="0.75"/>
<path d="M1370 244H1366V220H1370V244Z" fill="white" fill-opacity="0.75"/>
<path d="M1406 244H1402V220H1406V244Z" fill="white" fill-opacity="0.75"/>
<path d="M1442 244H1438V220H1442V244Z" fill="white" fill-opacity="0.75"/>
<path d="M1478 244H1474V220H1478V244Z" fill="white" fill-opacity="0.75"/>
<path d="M1550 244H1546V220H1550V244Z" fill="white" fill-opacity="0.75"/>
<path d="M1586 244H1582V220H1586V244Z" fill="white" fill-opacity="0.75"/>
<path d="M1622 244H1618V220H1622V244Z" fill="white" fill-opacity="0.75"/>
<path d="M1658 244H1654V220H1658V244Z" fill="white" fill-opacity="0.75"/>
<path d="M1730 244H1726V220H1730V244Z" fill="white" fill-opacity="0.75"/>
<path d="M1766 244H1762V220H1766V244Z" fill="white" fill-opacity="0.75"/>
<path d="M1802 244H1798V220H1802V244Z" fill="white" fill-opacity="0.75"/>
<path d="M1838 244H1834V220H1838V244Z" fill="white" fill-opacity="0.75"/>
<path d="M1910 244H1906V220H1910V244Z" fill="white" fill-opacity="0.75"/>
<path d="M1946 244H1942V220H1946V244Z" fill="white" fill-opacity="0.75"/>
<path d="M1982 244H1978V220H1982V244Z" fill="white" fill-opacity="0.75"/>
<path d="M2018 244H2014V220H2018V244Z" fill="white" fill-opacity="0.75"/>
<path d="M2090 244H2086V220H2090V244Z" fill="white" fill-opacity="0.75"/>
<path d="M2126 244H2122V220H2126V244Z" fill="white" fill-opacity="0.75"/>
<path d="M2162 244H2158V220H2162V244Z" fill="white" fill-opacity="0.75"/>
<path d="M2198 244H2194V220H2198V244Z" fill="white" fill-opacity="0.75"/>
<path d="M2270 244H2266V220H2270V244Z" fill="white" fill-opacity="0.75"/>
<path d="M2306 244H2302V220H2306V244Z" fill="white" fill-opacity="0.75"/>
<path d="M2342 244H2338V220H2342V244Z" fill="white" fill-opacity="0.75"/>
<path d="M2378 244H2374V220H2378V244Z" fill="white" fill-opacity="0.75"/>
<path d="M2450 244H2446V220H2450V244Z" fill="white" fill-opacity="0.75"/>
<path d="M2486 244H2482V220H2486V244Z" fill="white" fill-opacity="0.75"/>
<path d="M2522 244H2518V220H2522V244Z" fill="white" fill-opacity="0.75"/>
<path d="M2558 244H2554V220H2558V244Z" fill="white" fill-opacity="0.75"/>
<path d="M2630 244H2626V220H2630V244Z" fill="white" fill-opacity="0.75"/>
<path d="M2666 244H2662V220H2666V244Z" fill="white" fill-opacity="0.75"/>
<path d="M2702 244H2698V220H2702V244Z" fill="white" fill-opacity="0.75"/>
<path d="M2738 244H2734V220H2738V244Z" fill="white" fill-opacity="0.75"/>
<path d="M2810 244H2806V220H2810V244Z" fill="white" fill-opacity="0.75"/>
<path d="M2846 244H2842V220H2846V244Z" fill="white" fill-opacity="0.75"/>
<path d="M2882 244H2878V220H2882V244Z" fill="white" fill-opacity="0.75"/>
<path d="M2918 244H2914V220H2918V244Z" fill="white" fill-opacity="0.75"/>
<path d="M2990 244H2986V220H2990V244Z" fill="white" fill-opacity="0.75"/>
<path d="M3026 244H3022V220H3026V244Z" fill="white" fill-opacity="0.75"/>
<path d="M3062 244H3058V220H3062V244Z" fill="white" fill-opacity="0.75"/>
<path d="M3098 244H3094V220H3098V244Z" fill="white" fill-opacity="0.75"/>
<path d="M3170 244H3166V220H3170V244Z" fill="white" fill-opacity="0.75"/>
<path d="M3206 244H3202V220H3206V244Z" fill="white" fill-opacity="0.75"/>
<path d="M3242 244H3238V220H3242V244Z" fill="white" fill-opacity="0.75"/>
<path d="M3278 244H3274V220H3278V244Z" fill="white" fill-opacity="0.75"/>
<path d="M3350 244H3346V220H3350V244Z" fill="white" fill-opacity="0.75"/>
<path d="M3386 244H3382V220H3386V244Z" fill="white" fill-opacity="0.75"/>
<path d="M3422 244H3418V220H3422V244Z" fill="white" fill-opacity="0.75"/>
<path d="M3458 244H3454V220H3458V244Z" fill="white" fill-opacity="0.75"/>
<path d="M3530 244H3526V220H3530V244Z" fill="white" fill-opacity="0.75"/>
<path d="M3566 244H3562V220H3566V244Z" fill="white" fill-opacity="0.75"/>
<path d="M3602 244H3598V220H3602V244Z" fill="white" fill-opacity="0.75"/>
<path d="M3638 244H3634V220H3638V244Z" fill="white" fill-opacity="0.75"/>
<path d="M3710 244H3706V220H3710V244Z" fill="white" fill-opacity="0.75"/>
<path d="M3746 244H3742V220H3746V244Z" fill="white" fill-opacity="0.75"/>
<path d="M3782 244H3778V220H3782V244Z" fill="white" fill-opacity="0.75"/>
<path d="M3818 244H3814V220H3818V244Z" fill="white" fill-opacity="0.75"/>
<path d="M3890 244H3886V220H3890V244Z" fill="white" fill-opacity="0.75"/>
<path d="M3926 244H3922V220H3926V244Z" fill="white" fill-opacity="0.75"/>
<path d="M3962 244H3958V220H3962V244Z" fill="white" fill-opacity="0.75"/>
<path d="M3998 244H3994V220H3998V244Z" fill="white" fill-opacity="0.75"/>
<path fill-rule="evenodd" clip-rule="evenodd" d="M3314 208H4396V2144H3314V2282H1150V2144H68V208H1150V70H3314V208ZM1154 2278H3310V2210H3134V2214H3130V2210H2954V2214H2950V2210H2774V2214H2770V2210H2594V2214H2590V2210H2414V2214H2410V2210H2234V2214H2230V2210H2054V2214H2050V2210H1874V2214H1870V2210H1694V2214H1690V2210H1514V2214H1510V2210H1334V2214H1330V2210H1154V2278ZM76 2136H424V216H76V2136ZM432 2136H4032V216H432V2136ZM4040 2136H4388V216H4040V2136ZM1154 142H1330V138H1334V142H1510V138H1514V142H1690V138H1694V142H1870V138H1874V142H2050V138H2054V142H2230V138H2234V142H2410V138H2414V142H2590V138H2594V142H2770V138H2774V142H2950V138H2954V142H3130V138H3134V142H3310V74H1154V142Z" fill="white" fill-opacity="0.75"/>
</svg>
