<svg width="20" height="20" viewBox="0 0 20 20" fill="none" xmlns="http://www.w3.org/2000/svg">
<path d="M6.57812 15H10.4219L12.4625 12.9594L7.04063 7.5375L3.08125 11.4969L6.58125 14.9969L6.57812 15ZM8 17H6.57812C6.04688 17 5.5375 16.7906 5.1625 16.4156L1.53125 12.7812C1.19063 12.4406 1 11.9812 1 11.5C1 11.0188 1.19063 10.5594 1.53125 10.2188L9.21875 2.53125C9.55937 2.19063 10.0188 2 10.5 2C10.9812 2 11.4406 2.19063 11.7812 2.53125L17.4688 8.21875C17.8094 8.55937 18 9.01875 18 9.5C18 9.98125 17.8094 10.4406 17.4688 10.7812L13.25 15H17C17.5531 15 18 15.4469 18 16C18 16.5531 17.5531 17 17 17H8Z" fill="white"/>
</svg>
