<svg width="20" height="20" viewBox="0 0 20 20" fill="none" xmlns="http://www.w3.org/2000/svg">
<path d="M10 4C8.225 4 6.62813 4.77188 5.52813 6H7C7.55313 6 8 6.44687 8 7C8 7.55313 7.55313 8 7 8H3C2.44687 8 2 7.55313 2 7V3C2 2.44687 2.44687 2 3 2C3.55313 2 4 2.44687 4 3V4.70937C5.46563 3.05 7.60938 2 10 2C14.4187 2 18 5.58125 18 10C18 14.4187 14.4187 18 10 18C7.28125 18 4.87813 16.6437 3.43438 14.5719C3.11875 14.1187 3.22812 13.4969 3.68125 13.1781C4.13437 12.8594 4.75625 12.9719 5.075 13.425C6.1625 14.9813 7.9625 15.9969 10 15.9969C13.3125 15.9969 16 13.3094 16 9.99687C16 6.68437 13.3125 4 10 4Z" fill="white"/>
</svg>
