<svg width="20" height="20" viewBox="0 0 20 20" fill="none" xmlns="http://www.w3.org/2000/svg">
<path d="M7.27187 2.18437C7.40937 1.775 7.79063 1.5 8.22188 1.5H11.7812C12.2125 1.5 12.5937 1.775 12.7312 2.18437L13 3H16C16.5531 3 17 3.44687 17 4C17 4.55313 16.5531 5 16 5H4C3.44687 5 3 4.55313 3 4C3 3.44687 3.44687 3 4 3H7L7.27187 2.18437ZM4 6.5H16V16C16 17.1031 15.1031 18 14 18H6C4.89688 18 4 17.1031 4 16V6.5ZM6.75 8.5C6.33437 8.5 6 8.83437 6 9.25V15.25C6 15.6656 6.33437 16 6.75 16C7.16563 16 7.5 15.6656 7.5 15.25V9.25C7.5 8.83437 7.16563 8.5 6.75 8.5ZM10 8.5C9.58437 8.5 9.25 8.83437 9.25 9.25V15.25C9.25 15.6656 9.58437 16 10 16C10.4156 16 10.75 15.6656 10.75 15.25V9.25C10.75 8.83437 10.4156 8.5 10 8.5ZM13.25 8.5C12.8344 8.5 12.5 8.83437 12.5 9.25V15.25C12.5 15.6656 12.8344 16 13.25 16C13.6656 16 14 15.6656 14 15.25V9.25C14 8.83437 13.6656 8.5 13.25 8.5Z" fill="#FF7878"/>
</svg>
