<svg width="20" height="20" viewBox="0 0 20 20" fill="none" xmlns="http://www.w3.org/2000/svg">
<path d="M16.9844 9C16.725 5.09063 13.475 2 9.5 2C5.35938 2 2 5.35938 2 9.5V11.2594C2 12.775 3.225 14 4.74062 14H8.71875L12.7375 17.7937C12.8781 17.925 13.0625 18 13.2531 18H16.2531C16.6688 18 17.0031 17.6656 17.0031 17.25C17.0031 16.8344 16.6688 16.5 16.2531 16.5H13.55L13.5031 16.4531V11H17.0031C17.5563 11 18.0031 10.5531 18.0031 10C18.0031 9.44687 17.5563 9 17.0031 9H16.9875H16.9844ZM12 15.0375L9.5625 12.7344L10.575 11H12V15.0375Z" fill="white"/>
</svg>
