<svg width="20" height="20" viewBox="0 0 20 20" fill="none" xmlns="http://www.w3.org/2000/svg">
<path d="M11 10.8875C13.0031 10.4344 14.5 8.64062 14.5 6.5C14.5 4.01562 12.4844 2 10 2C7.51562 2 5.5 4.01562 5.5 6.5C5.5 8.64062 6.99688 10.4344 9 10.8875V17C9 17.5531 9.44687 18 10 18C10.5531 18 11 17.5531 11 17V10.8875ZM10.25 5C9.28438 5 8.5 5.78438 8.5 6.75C8.5 7.16563 8.16563 7.5 7.75 7.5C7.33437 7.5 7 7.16563 7 6.75C7 4.95625 8.45625 3.5 10.25 3.5C10.6656 3.5 11 3.83437 11 4.25C11 4.66563 10.6656 5 10.25 5Z" fill="white"/>
</svg>
