<svg width="20" height="20" viewBox="0 0 20 20" fill="none" xmlns="http://www.w3.org/2000/svg">
<path d="M15.6457 4.33438L15.9988 4.66875V3C15.9988 2.44688 16.4457 2 16.9988 2C17.552 2 17.9988 2.44688 17.9988 3V7C17.9988 7.55313 17.552 8 16.9988 8H12.9988C12.4457 8 11.9988 7.55313 11.9988 7C11.9988 6.44688 12.4457 6 12.9988 6H14.4957L14.2582 5.775C14.252 5.76875 14.2457 5.7625 14.2395 5.75625C11.8957 3.4125 8.09883 3.4125 5.75508 5.75625C3.41133 8.1 3.41133 11.8969 5.75508 14.2406C8.09883 16.5844 11.8957 16.5844 14.2395 14.2406C14.4957 13.9844 14.7238 13.7125 14.9238 13.425C15.2395 12.9719 15.8645 12.8625 16.3176 13.1781C16.7707 13.4938 16.8801 14.1188 16.5645 14.5719C16.2988 14.9531 15.9957 15.3156 15.6551 15.6563C12.5301 18.7813 7.46445 18.7813 4.34258 15.6563C1.2207 12.5313 1.21758 7.46875 4.34258 4.34375C7.46445 1.22188 12.5207 1.21875 15.6457 4.33438Z" fill="white"/>
</svg>
