<svg width="20" height="20" viewBox="0 0 20 20" fill="none" xmlns="http://www.w3.org/2000/svg">
<path d="M10 9.75C10.4925 9.75 10.9801 9.653 11.4351 9.46455C11.89 9.27609 12.3034 8.99987 12.6517 8.65165C12.9999 8.30343 13.2761 7.89003 13.4645 7.43506C13.653 6.98009 13.75 6.49246 13.75 6C13.75 5.50754 13.653 5.01991 13.4645 4.56494C13.2761 4.10997 12.9999 3.69657 12.6517 3.34835C12.3034 3.00013 11.89 2.72391 11.4351 2.53545C10.9801 2.347 10.4925 2.25 10 2.25C9.50754 2.25 9.01991 2.347 8.56494 2.53545C8.10997 2.72391 7.69657 3.00013 7.34835 3.34835C7.00013 3.69657 6.72391 4.10997 6.53545 4.56494C6.347 5.01991 6.25 5.50754 6.25 6C6.25 6.49246 6.347 6.98009 6.53545 7.43506C6.72391 7.89003 7.00013 8.30343 7.34835 8.65165C7.69657 8.99987 8.10997 9.27609 8.56494 9.46455C9.01991 9.653 9.50754 9.75 10 9.75ZM9.07188 11.5C5.99375 11.5 3.5 13.9937 3.5 17.0719C3.5 17.5844 3.91563 18 4.42813 18H15.5719C16.0844 18 16.5 17.5844 16.5 17.0719C16.5 13.9937 14.0062 11.5 10.9281 11.5H9.07188Z" fill="white"/>
</svg>
