<svg width="24" height="24" viewBox="0 0 24 24" fill="none" xmlns="http://www.w3.org/2000/svg">
<path d="M9.41765 6.52014C10.0952 6.28613 10.7485 6.35313 11.3259 6.59241C11.7163 6.75426 11.9953 7.05805 12.1979 7.38147C12.4008 7.7053 12.555 8.09295 12.6813 8.49475C12.9319 9.29175 13.1121 10.2837 13.2975 11.2047C13.4887 12.1547 13.6881 13.0422 13.9753 13.734C14.2698 14.4434 14.5905 14.7855 14.9245 14.8893C15.5869 15.0952 16.2733 14.8236 16.9518 14.2096C17.6218 13.6032 18.1571 12.7675 18.4372 12.1871C18.5873 11.8766 18.9604 11.7463 19.2712 11.8961C19.582 12.0461 19.7122 12.4202 19.5622 12.7311C19.2335 13.4121 18.6118 14.3932 17.7907 15.1364C16.978 15.8718 15.8386 16.483 14.5534 16.0836C13.67 15.809 13.1542 15.0162 12.821 14.2135C12.4806 13.3935 12.2611 12.3915 12.0719 11.4518C11.877 10.483 11.7138 9.58478 11.4889 8.86975C11.3776 8.51561 11.2612 8.24054 11.1384 8.04456C11.0154 7.84835 10.9133 7.77406 10.8473 7.74671C10.5116 7.60758 10.1754 7.58009 9.82585 7.70081C9.46482 7.82549 9.02598 8.13057 8.54265 8.77405C7.56419 10.0767 6.52051 12.6094 5.61199 17.1227C5.54388 17.461 5.21496 17.6799 4.87664 17.6119C4.53831 17.5438 4.31939 17.2149 4.38738 16.8766C5.30494 12.3183 6.39167 9.55674 7.54363 8.02307C8.12532 7.24875 8.75176 6.75022 9.41765 6.52014Z" fill="white"/>
</svg>
