<svg width="20" height="20" viewBox="0 0 20 20" fill="none" xmlns="http://www.w3.org/2000/svg">
<path d="M5 3C5 2.44687 4.55313 2 4 2C3.44687 2 3 2.44687 3 3V17C3 17.5531 3.44687 18 4 18C4.55313 18 5 17.5531 5 17V13.2L6.95937 12.6125C8.26875 12.2188 9.68125 12.3406 10.9031 12.9531C12.2375 13.6219 13.7938 13.7031 15.1906 13.1781L16.35 12.7437C16.7406 12.5969 17 12.225 17 11.8062V4.06562C17 3.34687 16.2438 2.87813 15.6 3.2L15.2312 3.38437C13.8281 4.0875 12.175 4.0875 10.7688 3.38437C9.63125 2.81562 8.32187 2.70313 7.10625 3.06875L5 3.7V3Z" fill="white"/>
</svg>
