<svg width="20" height="20" viewBox="0 0 20 20" fill="none" xmlns="http://www.w3.org/2000/svg">
<path d="M11 3C11 2.44687 10.5531 2 10 2C9.44687 2 9 2.44687 9 3V9.58437L7.70625 8.29063C7.31563 7.9 6.68125 7.9 6.29063 8.29063C5.9 8.68125 5.9 9.31563 6.29063 9.70625L9.29063 12.7063C9.68125 13.0969 10.3156 13.0969 10.7063 12.7063L13.7063 9.70625C14.0969 9.31563 14.0969 8.68125 13.7063 8.29063C13.3156 7.9 12.6812 7.9 12.2906 8.29063L11 9.58437V3ZM5 12C3.89688 12 3 12.8969 3 14V15C3 16.1031 3.89688 17 5 17H15C16.1031 17 17 16.1031 17 15V14C17 12.8969 16.1031 12 15 12H13.5344L11.7656 13.7688C10.7906 14.7438 9.20625 14.7438 8.23125 13.7688L6.46563 12H5ZM14.5 13.75C14.5985 13.75 14.696 13.7694 14.787 13.8071C14.878 13.8448 14.9607 13.9 15.0303 13.9697C15.1 14.0393 15.1552 14.122 15.1929 14.213C15.2306 14.304 15.25 14.4015 15.25 14.5C15.25 14.5985 15.2306 14.696 15.1929 14.787C15.1552 14.878 15.1 14.9607 15.0303 15.0303C14.9607 15.1 14.878 15.1552 14.787 15.1929C14.696 15.2306 14.5985 15.25 14.5 15.25C14.4015 15.25 14.304 15.2306 14.213 15.1929C14.122 15.1552 14.0393 15.1 13.9697 15.0303C13.9 14.9607 13.8448 14.878 13.8071 14.787C13.7694 14.696 13.75 14.5985 13.75 14.5C13.75 14.4015 13.7694 14.304 13.8071 14.213C13.8448 14.122 13.9 14.0393 13.9697 13.9697C14.0393 13.9 14.122 13.8448 14.213 13.8071C14.304 13.7694 14.4015 13.75 14.5 13.75Z" fill="white"/>
</svg>
