<svg width="20" height="20" viewBox="0 0 20 20" fill="none" xmlns="http://www.w3.org/2000/svg">
<path d="M5.41563 2.07773C5.66875 1.9496 5.975 1.97773 6.2 2.1496L16.2 9.64648C16.4594 9.84023 16.5625 10.1777 16.4625 10.484C16.3625 10.7902 16.075 10.9965 15.75 10.9965H10.9906L13.7688 16.5496C14.0156 17.0434 13.8156 17.6434 13.3219 17.8902C12.8281 18.1371 12.2281 17.9371 11.9812 17.4434L9.20312 11.8902L6.35 15.6965C6.15625 15.9559 5.81875 16.059 5.5125 15.959C5.20625 15.859 5 15.5715 5 15.2496V2.7496C5 2.46523 5.15938 2.20585 5.41563 2.07773Z" fill="white"/>
</svg>
