<svg width="20" height="20" viewBox="0 0 20 20" fill="none" xmlns="http://www.w3.org/2000/svg">
<path d="M3.01855 9C3.27793 5.09063 6.52793 2 10.5029 2C14.6436 2 18.0029 5.35938 18.0029 9.5V11.2594C18.0029 12.775 16.7779 14 15.2623 14H11.2842L7.26543 17.7937C7.1248 17.925 6.94043 18 6.7498 18H3.7498C3.33418 18 2.9998 17.6656 2.9998 17.25C2.9998 16.8344 3.33418 16.5 3.7498 16.5H6.45293L6.4998 16.4531V11H2.9998C2.44668 11 1.99981 10.5531 1.99981 10C1.99981 9.44687 2.44668 9 2.9998 9H3.01543H3.01855ZM8.00293 15.0375L10.4404 12.7344L9.42793 11H8.00293V15.0375Z" fill="white"/>
</svg>
