<svg width="20" height="20" viewBox="0 0 20 20" fill="none" xmlns="http://www.w3.org/2000/svg">
<path d="M13.0283 2.6625L11.6252 4.06562L15.9345 8.375L17.3377 6.97188C17.7627 6.55 18.0002 5.975 18.0002 5.375C18.0002 4.775 17.7627 4.2 17.3377 3.77813L16.222 2.6625C15.8002 2.2375 15.2252 2 14.6252 2C14.0252 2 13.4502 2.2375 13.0283 2.6625ZM10.5658 5.125L3.84078 11.8469C3.50641 12.1813 3.26266 12.6 3.13453 13.0562L2.02828 17.05C1.95641 17.3094 2.02828 17.5906 2.22203 17.7812C2.41578 17.9719 2.69391 18.0469 2.95328 17.975L6.94703 16.8656C7.40328 16.7375 7.81891 16.4969 8.15641 16.1594L14.8752 9.43437L10.5658 5.125Z" fill="white"/>
</svg>
