<svg width="20" height="20" viewBox="0 0 20 20" fill="none" xmlns="http://www.w3.org/2000/svg">
<path d="M3.13673 13.0543C3.26486 12.598 3.50548 12.1824 3.84298 11.8449L9.50548 6.18242L10.5649 5.12305C11.0836 5.6418 12.168 6.72617 13.8149 8.37305L14.8742 9.43242L13.8149 10.4918L8.15236 16.1543C7.81798 16.4887 7.39923 16.7324 6.94298 16.8605L2.94923 17.973C2.68986 18.0449 2.40861 17.973 2.21798 17.7793C2.02736 17.5855 1.95548 17.3074 2.02736 17.048L3.13673 13.0543ZM4.87423 12.9387C4.73673 13.0855 4.63673 13.2637 4.58361 13.4574L3.83048 16.173L6.54611 15.4199C6.74611 15.3637 6.92736 15.2605 7.07736 15.1168L4.87111 12.9387H4.87423ZM15.9367 8.37305C15.418 7.8543 14.3336 6.76992 12.6867 5.12305L11.6242 4.06367C12.4524 3.23555 12.918 2.76992 13.0274 2.66055C13.4492 2.23555 14.0242 1.99805 14.6242 1.99805C15.2242 1.99805 15.7992 2.23555 16.2211 2.66055L17.3367 3.77617C17.7617 4.20117 17.9992 4.77617 17.9992 5.37305C17.9992 5.96992 17.7617 6.54805 17.3367 6.96992C17.2274 7.0793 16.7617 7.54492 15.9336 8.37305H15.9367Z" fill="white"/>
</svg>
