<svg width="20" height="20" viewBox="0 0 20 20" fill="none" xmlns="http://www.w3.org/2000/svg">
<path d="M11 5.41484V11.9992C11 12.5523 10.5531 12.9992 10 12.9992C9.44687 12.9992 9 12.5523 9 11.9992V5.41484L7.70625 6.70859C7.31563 7.09922 6.68125 7.09922 6.29063 6.70859C5.9 6.31797 5.9 5.68359 6.29063 5.29297L9.29063 2.29297C9.68125 1.90234 10.3156 1.90234 10.7063 2.29297L13.7063 5.29297C14.0969 5.68359 14.0969 6.31797 13.7063 6.70859C13.3156 7.09922 12.6812 7.09922 12.2906 6.70859L11 5.41484ZM10 14.4992C11.3813 14.4992 12.5 13.3805 12.5 11.9992H15C16.1031 11.9992 17 12.8961 17 13.9992V14.9992C17 16.1023 16.1031 16.9992 15 16.9992H5C3.89688 16.9992 3 16.1023 3 14.9992V13.9992C3 12.8961 3.89688 11.9992 5 11.9992H7.5C7.5 13.3805 8.61875 14.4992 10 14.4992ZM14.5 15.2492C14.5985 15.2492 14.696 15.2298 14.787 15.1921C14.878 15.1544 14.9607 15.0992 15.0303 15.0295C15.1 14.9599 15.1552 14.8772 15.1929 14.7862C15.2306 14.6952 15.25 14.5977 15.25 14.4992C15.25 14.4007 15.2306 14.3032 15.1929 14.2122C15.1552 14.1212 15.1 14.0385 15.0303 13.9689C14.9607 13.8992 14.878 13.844 14.787 13.8063C14.696 13.7686 14.5985 13.7492 14.5 13.7492C14.4015 13.7492 14.304 13.7686 14.213 13.8063C14.122 13.844 14.0393 13.8992 13.9697 13.9689C13.9 14.0385 13.8448 14.1212 13.8071 14.2122C13.7694 14.3032 13.75 14.4007 13.75 14.4992C13.75 14.5977 13.7694 14.6952 13.8071 14.7862C13.8448 14.8772 13.9 14.9599 13.9697 15.0295C14.0393 15.0992 14.122 15.1544 14.213 15.1921C14.304 15.2298 14.4015 15.2492 14.5 15.2492Z" fill="white"/>
</svg>
