<svg width="24" height="24" viewBox="0 0 24 24" fill="none" xmlns="http://www.w3.org/2000/svg">
<path d="M8.96935 5.22055C10.0076 4.86202 11.0092 4.97276 11.8522 5.32211C12.5995 5.63187 13.0727 6.18811 13.3629 6.65121C13.6539 7.11569 13.8499 7.62748 13.9928 8.08187C14.2718 8.96907 14.4703 10.0648 14.6451 10.9334C14.8386 11.8948 15.0161 12.657 15.2447 13.2079C15.3209 13.3914 15.3862 13.5038 15.4293 13.5711C15.4418 13.5678 15.457 13.5671 15.4733 13.5614C15.5935 13.5188 15.7846 13.4114 16.0289 13.1903C16.5325 12.7345 16.9723 12.0592 17.1988 11.5897C17.679 10.5952 18.8741 10.1781 19.8688 10.658C20.8635 11.1381 21.2803 12.3332 20.8004 13.328C20.4183 14.1199 19.7012 15.2622 18.7135 16.1561C17.7532 17.0252 16.1155 18.0088 14.1451 17.3963C12.6575 16.9339 11.9262 15.6464 11.5504 14.7411C11.1514 13.7798 10.9102 12.6511 10.7233 11.7225C10.5177 10.7013 10.3739 9.90688 10.1774 9.28207C10.1557 9.21307 10.1342 9.15229 10.1149 9.09848C10.0057 9.18144 9.84436 9.33129 9.6422 9.60043C8.8546 10.6491 7.8591 12.9307 6.96056 17.3944C6.7426 18.4772 5.68788 19.1786 4.60509 18.9608C3.52231 18.7428 2.82083 17.6881 3.03869 16.6053C3.96616 11.9978 5.10119 8.98584 6.44396 7.19809C7.13426 6.27905 7.96759 5.56651 8.96935 5.22055Z" fill="white"/>
</svg>
