<svg width="20" height="20" viewBox="0 0 20 20" fill="none" xmlns="http://www.w3.org/2000/svg">
<path d="M10.1598 2.70643C7.37856 3.26893 5.45669 4.68768 4.22231 6.5783C3.49419 7.6908 3.03169 8.93143 2.76294 10.1877L9.87231 17.2939C12.6536 16.7314 14.5754 15.3127 15.8129 13.4221C16.5411 12.3096 17.0036 11.0689 17.2723 9.81268L10.1598 2.70643ZM17.5348 7.95955C17.6348 6.63768 17.5567 5.35643 17.3848 4.25018C17.2473 3.38143 16.5473 2.75018 15.7254 2.63768C14.3817 2.4533 13.1567 2.4033 12.0442 2.46893L17.5348 7.95643V7.95955ZM7.99106 17.5346L2.49731 12.0439C2.39731 13.3658 2.47544 14.6471 2.64731 15.7533C2.78481 16.6221 3.48481 17.2533 4.30669 17.3658C5.65044 17.5502 6.87544 17.6002 7.98794 17.5346H7.99106ZM10.4848 6.46893C10.7786 6.17518 11.2536 6.17518 11.5442 6.46893L13.5442 8.46893C13.8379 8.76268 13.8379 9.23768 13.5442 9.5283C13.2504 9.81893 12.7754 9.82205 12.4848 9.5283L10.4848 7.5283C10.1911 7.23455 10.1911 6.75955 10.4848 6.46893ZM8.48481 8.46893C8.77856 8.17518 9.25356 8.17518 9.54419 8.46893L11.5442 10.4689C11.8379 10.7627 11.8379 11.2377 11.5442 11.5283C11.2504 11.8189 10.7754 11.8221 10.4848 11.5283L8.48481 9.5283C8.19106 9.23455 8.19106 8.75955 8.48481 8.46893ZM6.48481 10.4689C6.77856 10.1752 7.25356 10.1752 7.54419 10.4689L9.54419 12.4689C9.83794 12.7627 9.83794 13.2377 9.54419 13.5283C9.25044 13.8189 8.77544 13.8221 8.48481 13.5283L6.48481 11.5283C6.19106 11.2346 6.19106 10.7596 6.48481 10.4689Z" fill="white"/>
</svg>
