<svg width="24" height="24" viewBox="0 0 24 24" fill="none" xmlns="http://www.w3.org/2000/svg">
<path d="M9.21427 5.92965C10.0558 5.63903 10.8678 5.72536 11.5658 6.01461C12.1186 6.24369 12.4855 6.66284 12.7279 7.04976C12.971 7.4376 13.1448 7.88177 13.2787 8.30758C13.5422 9.14554 13.73 10.1849 13.9106 11.082C14.1028 12.0371 14.2926 12.8673 14.5531 13.4951C14.8283 14.1578 15.0514 14.2745 15.1108 14.2929C15.4618 14.402 15.9222 14.2994 16.5336 13.7461C17.1278 13.2081 17.6187 12.4458 17.8744 11.916C18.1745 11.2943 18.9216 11.034 19.5434 11.3339C20.1651 11.634 20.4264 12.3811 20.1264 13.0029C19.7734 13.7342 19.108 14.7879 18.2113 15.5996C17.3316 16.3958 15.9652 17.1769 14.3686 16.6806C13.2106 16.3207 12.5962 15.3034 12.2436 14.4541C11.8765 13.5698 11.6475 12.5099 11.4594 11.5752C11.2596 10.5826 11.1059 9.73159 10.894 9.05758C10.7901 8.72732 10.6925 8.50894 10.6098 8.37691C10.5879 8.34195 10.5686 8.32073 10.557 8.3066C10.3646 8.23669 10.2013 8.23303 10.0307 8.29195C9.8222 8.36395 9.47742 8.57248 9.04337 9.15035C8.15169 10.3376 7.12993 12.7564 6.22599 17.247C6.0896 17.9236 5.43 18.3618 4.75333 18.2255C4.07675 18.0892 3.63861 17.4296 3.77482 16.7529C4.69688 12.1724 5.80567 9.29751 7.04435 7.6484C7.6754 6.80825 8.39576 6.21245 9.21427 5.92965Z" fill="white"/>
</svg>
