<svg width="101" height="18" viewBox="0 0 101 18" fill="none" xmlns="http://www.w3.org/2000/svg">
<path d="M100.903 0.192771V15.494C100.903 16.5783 100.976 17.3735 101 17.6386H97.4741C97.45 17.494 97.3775 16.9639 97.3775 16.4819C96.8221 17.3012 95.6146 17.9036 94.1656 17.9036C90.7846 17.9036 88.2247 15.3012 88.2247 11.6145C88.2247 8.04819 90.6397 5.37349 94.0448 5.37349C96.0976 5.37349 96.9911 6.14458 97.2809 6.60241V0.192771H100.903ZM91.9197 11.6386C91.9197 13.6145 93.1996 14.6265 94.6244 14.6265C96.0493 14.6265 97.3292 13.6145 97.3292 11.6386C97.3292 9.63855 96.0493 8.6747 94.6244 8.6747C93.1996 8.6747 91.9197 9.63855 91.9197 11.6386Z" fill="white"/>
<path d="M87.0089 5.66265V9.27711C86.5984 9.18072 86.212 9.15663 85.8497 9.15663C84.3766 9.15663 83.0483 10.0241 83.0483 12.4096V17.6386H79.3776V5.66265H82.9276V7.27711C83.5555 5.92771 85.0769 5.54217 86.0429 5.54217C86.4052 5.54217 86.7674 5.59036 87.0089 5.66265Z" fill="white"/>
<path d="M65.4697 14.3373C65.4697 12.2169 67.0394 11.012 69.0197 10.7229L71.8453 10.2892C72.4973 10.1928 72.7147 9.87952 72.7147 9.46988C72.7147 8.77108 72.1109 8.16868 70.9517 8.16868C69.6718 8.16868 68.9714 9.03614 68.899 9.92771L65.7112 9.27711C65.8561 7.56627 67.45 5.30121 70.9759 5.30121C74.864 5.30121 76.2888 7.46988 76.2888 9.92771V15.7831C76.2888 16.7229 76.4096 17.5181 76.4337 17.6386H73.1252C73.1011 17.5422 73.0045 17.1084 73.0045 16.2892C72.3766 17.3012 71.2174 17.9759 69.6235 17.9759C66.9911 17.9759 65.4697 16.241 65.4697 14.3373ZM70.517 15.3253C71.6038 15.3253 72.7147 14.7952 72.7147 12.9398V12.4096L70.4446 12.7711C69.6718 12.8916 69.0922 13.253 69.0922 14.0964C69.0922 14.7229 69.5027 15.3253 70.517 15.3253Z" fill="white"/>
<path d="M57.4557 14.6265C58.8564 14.6265 60.1605 13.6627 60.1605 11.6386C60.1605 9.61446 58.8564 8.6747 57.4557 8.6747C56.0792 8.6747 54.7509 9.61446 54.7509 11.6386C54.7509 13.6386 56.0792 14.6265 57.4557 14.6265ZM57.4557 5.30121C61.0541 5.30121 63.8313 7.92771 63.8313 11.6386C63.8313 15.3494 61.0541 18 57.4557 18C53.8816 18 51.0802 15.3494 51.0802 11.6386C51.0802 7.92771 53.8816 5.30121 57.4557 5.30121Z" fill="white"/>
<path d="M37.1681 0.554217H43.5679C46.9488 0.554217 48.905 2.50602 48.905 5.13253C48.905 6.89157 47.7941 8.33735 46.3934 8.79518C47.939 9.15663 49.4363 10.5783 49.4363 12.7952C49.4363 15.5904 47.3111 17.6386 44.075 17.6386H37.1681V0.554217ZM40.8872 7.39759H42.9641C44.2924 7.39759 45.1617 6.6988 45.1617 5.54217C45.1617 4.43374 44.4131 3.71084 42.9158 3.71084H40.8872V7.39759ZM40.8872 14.5301H43.2781C44.7512 14.5301 45.6447 13.759 45.6447 12.5301C45.6447 11.3494 44.7754 10.5301 43.2781 10.5301H40.8872V14.5301Z" fill="white"/>
<path d="M34.9879 8.74699H32.3797V17.6386H28.7089V8.74699H26.8011V5.66265H28.7089V4.62651C28.7089 1.87952 30.3752 0 33.2974 0C34.046 0 34.6981 0.0963857 35.0362 0.265061V3.25301C34.843 3.20482 34.529 3.13253 33.9494 3.13253C33.2974 3.13253 32.3797 3.42169 32.3797 4.74699V5.66265H34.9879V8.74699Z" fill="white"/>
<path d="M17.4407 10.2169H22.2466C22.1983 9.30121 21.5704 8.19277 19.8316 8.19277C18.286 8.19277 17.5132 9.3253 17.4407 10.2169ZM22.5122 13.3253L25.5792 14.1928C24.9996 16.2651 23.0918 18 20.0489 18C16.7404 18 13.7941 15.6386 13.7941 11.6145C13.7941 7.75904 16.6679 5.30121 19.7833 5.30121C23.5023 5.30121 25.7966 7.59036 25.7966 11.4458C25.7966 11.9518 25.7483 12.506 25.7241 12.5783H17.3683C17.4407 13.9277 18.6724 14.8916 20.0972 14.8916C21.4255 14.8916 22.1741 14.2651 22.5122 13.3253Z" fill="white"/>
<path d="M8.2351 17.6386L5.16807 11.2771H3.81568V17.6386H0V0.554217H6.78611C10.1671 0.554217 12.3406 2.86747 12.3406 5.90361C12.3406 8.21687 11.0606 9.9759 8.9596 10.7229L12.4372 17.6386H8.2351ZM3.81568 8H6.06162C7.63136 8 8.4766 7.13253 8.4766 5.92771C8.4766 4.6506 7.63136 3.85542 6.06162 3.85542H3.81568V8Z" fill="white"/>
</svg>
